<svg width="8" height="12" viewBox="0 0 8 12" fill="none" xmlns="http://www.w3.org/2000/svg">
<path fill-rule="evenodd" clip-rule="evenodd" d="M7.08929 5.41086C7.24552 5.56713 7.33328 5.77906 7.33328 6.00003C7.33328 6.221 7.24552 6.43292 7.08929 6.58919L2.37512 11.3034C2.29825 11.383 2.2063 11.4464 2.10463 11.4901C2.00296 11.5338 1.89361 11.5568 1.78296 11.5577C1.67231 11.5587 1.56258 11.5376 1.46016 11.4957C1.35775 11.4538 1.2647 11.3919 1.18646 11.3137C1.10822 11.2354 1.04634 11.1424 1.00444 11.04C0.962537 10.9376 0.941453 10.8278 0.942414 10.7172C0.943376 10.6065 0.966364 10.4972 1.01004 10.3955C1.05371 10.2939 1.1172 10.2019 1.19679 10.125L5.32179 6.00003L1.19679 1.87503C1.04499 1.71786 0.960996 1.50736 0.962894 1.28886C0.964793 1.07036 1.05243 0.861353 1.20694 0.706846C1.36145 0.552339 1.57046 0.464699 1.78896 0.4628C2.00745 0.460901 2.21795 0.544897 2.37512 0.696695L7.08929 5.41086Z" fill="#F07A02"/>
</svg>
