<svg width="6" height="9" viewBox="0 0 6 9" fill="none" xmlns="http://www.w3.org/2000/svg">
<path d="M0.868016 0.698289L4.32627 4.21204C4.40211 4.28871 4.44465 4.3922 4.44465 4.50004C4.44465 4.60788 4.40211 4.71137 4.32627 4.78804L0.868766 8.30179C0.792959 8.37893 0.750482 8.48276 0.750482 8.59091C0.750482 8.69907 0.792959 8.8029 0.868766 8.88004C0.905799 8.91803 0.95006 8.94821 0.998943 8.96883C1.04783 8.98944 1.10034 9.00006 1.15339 9.00006C1.20644 9.00006 1.25896 8.98944 1.30784 8.96883C1.35672 8.94821 1.40098 8.91803 1.43802 8.88004L4.89552 5.36704C5.12271 5.13565 5.25 4.82432 5.25 4.50004C5.25 4.17576 5.12271 3.86443 4.89552 3.63304L1.43802 0.120039C1.40097 0.0819381 1.35666 0.0516513 1.30771 0.0309702C1.25876 0.0102892 1.20616 -0.000366388 1.15302 -0.00036639C1.09987 -0.000366392 1.04727 0.0102892 0.998322 0.0309702C0.949369 0.0516513 0.905061 0.081938 0.868016 0.120039C0.792209 0.197181 0.749732 0.301009 0.749732 0.409164C0.749732 0.517319 0.792209 0.621148 0.868016 0.698289Z" fill="black"/>
</svg>
