<svg width="757" height="973" viewBox="0 0 757 973" fill="none" xmlns="http://www.w3.org/2000/svg">
<path opacity="0.12" d="M710.344 344.125L696.941 309.85L661.945 344.125H710.344ZM603.867 344.125L613.547 311.341L563.659 344.125H603.867ZM516.749 344.125L544.299 314.321L492.177 344.125H516.749ZM786.293 309.85L772.89 344.125H822.033L786.293 309.85ZM870.432 310.595L880.112 343.38H920.32L870.432 310.595ZM938.935 314.321L966.485 344.125H990.312L938.935 314.321ZM492.177 339.655L547.278 308.36H540.576L532.386 312.831C518.238 321.027 504.836 329.968 492.177 339.655ZM693.218 560.208L657.478 505.815L612.057 560.208H693.218ZM452.714 560.208H521.217L501.113 505.815L452.714 560.208ZM413.25 602.679L444.523 563.188H423.675C419.952 576.601 416.229 590.012 413.25 602.679ZM554.724 563.934H527.173L548.767 604.915V602.679C551 589.267 552.49 576.601 554.724 563.934ZM562.169 521.462L527.918 560.208H554.724C556.957 547.541 559.191 534.129 562.169 521.462ZM425.164 560.208H446.013L437.822 521.462C433.354 534.129 428.887 546.796 425.164 560.208ZM338.046 560.208H382.722L380.488 507.305L338.046 560.208ZM314.964 588.522L330.6 563.188H323.899C320.921 572.13 317.942 580.326 314.964 588.522ZM397.614 606.405L398.358 601.934C402.081 587.032 405.804 571.385 410.272 556.482C405.804 572.13 401.337 587.032 397.614 602.679V606.405ZM404.315 563.934H386.445L395.38 598.209C398.358 587.032 401.337 575.11 404.315 563.934ZM416.229 528.168L388.679 560.208H405.804C408.783 549.031 412.506 538.6 416.229 528.168ZM325.388 560.208H332.834L335.812 535.619C332.089 543.815 328.367 552.012 325.388 560.208ZM276.989 589.267L272.522 609.385L296.349 563.188H287.414C283.691 572.13 280.712 580.326 276.989 589.267ZM305.284 563.934H300.816L300.072 578.836C301.561 573.62 303.795 568.404 305.284 563.934ZM311.985 547.541L303.05 559.463H306.773C308.262 555.737 309.752 552.012 311.985 547.541ZM288.903 560.208H297.838L311.241 516.246L303.05 529.658C298.583 539.345 293.371 549.776 288.903 560.208ZM790.016 560.208H871.921L826.501 505.815L790.016 560.208ZM746.084 560.208H782.57L746.084 511.776V560.208ZM962.017 560.208H1030.52L982.121 505.815L962.017 560.208ZM1100.51 560.208H1145.19L1102.75 507.305L1100.51 560.208ZM1184.65 560.208H1193.59C1189.12 549.776 1183.91 539.345 1178.69 528.913L1170.5 515.501L1184.65 560.208ZM1195.82 563.934H1186.88L1210.71 610.13L1206.24 590.012C1206.24 590.012 1206.24 590.012 1206.24 589.267C1202.52 581.071 1199.54 572.13 1195.82 563.934ZM573.338 560.208H604.611L581.529 515.501C577.806 530.404 575.572 545.306 573.338 560.208ZM565.892 609.385L603.867 563.934H572.594C570.36 577.346 568.871 590.012 566.637 603.424L565.892 609.385ZM699.175 446.951H629.928L657.478 498.364L699.175 446.951ZM631.417 443.225H699.919L673.859 395.538L631.417 443.225ZM551.745 446.951H493.667L502.602 498.364L551.745 446.951ZM496.645 443.225H553.979L548.022 396.283L496.645 443.225ZM432.61 446.951H395.38L384.956 496.128L432.61 446.951ZM399.103 443.225H435.588L449.736 397.773L399.103 443.225ZM377.51 461.108L390.168 446.951H387.19C383.467 451.422 380.488 456.637 377.51 461.108ZM353.683 500.599H381.233L391.657 451.422L366.341 478.991C361.129 486.442 357.406 493.148 353.683 500.599ZM378.254 504.324H351.449C347.726 511.031 344.003 517.736 341.025 525.188L337.302 556.482L378.254 504.324ZM425.164 504.324H384.211L386.445 557.228L419.952 518.482C421.441 514.011 422.93 508.795 425.164 504.324ZM434.844 481.226L435.588 449.931L386.445 500.599H426.653C428.887 493.893 431.865 487.187 434.844 481.226ZM451.225 446.951H439.311L438.567 472.285C442.29 464.088 446.757 455.892 451.225 446.951ZM463.883 423.853L441.545 443.971H452.714C454.203 440.99 455.692 438.01 457.926 435.029C460.16 430.558 462.394 427.578 463.883 423.853ZM482.498 394.793H454.203L440.056 440.245L469.84 413.421C474.307 406.715 478.775 400.754 482.498 394.793ZM508.559 360.518L513.026 351.577L459.415 391.068H486.221C492.922 380.636 500.368 370.204 508.559 360.518ZM519.728 347.851H518.238L516.749 350.832C518.238 350.086 518.983 348.596 519.728 347.851ZM527.173 367.224L552.49 347.851H545.044C538.342 353.812 533.13 360.518 527.173 367.224ZM507.814 391.068H547.278L554.724 350.086L516.749 379.146C513.771 383.616 510.792 387.342 507.814 391.068ZM497.39 405.97L494.411 440.245L545.044 394.048H506.325C502.602 398.519 499.623 402.244 497.39 405.97ZM474.307 443.225H489.944L492.922 412.676C488.454 420.127 483.987 426.833 479.519 434.284C477.286 437.265 475.796 440.245 474.307 443.225ZM455.692 479.736L486.965 447.696H472.073C466.117 457.383 460.904 468.559 455.692 479.736ZM446.757 500.599H499.623L490.688 449.186L451.225 489.422C449.736 493.148 448.246 496.874 446.757 500.599ZM497.39 504.324H445.268C443.779 508.05 442.29 511.776 440.8 515.501L449.736 557.972L497.39 504.324ZM565.148 504.324H504.091L524.195 558.718L562.914 514.756C563.659 511.031 564.403 507.305 565.148 504.324ZM568.871 487.187L554.724 448.441L504.836 499.854H565.148C567.382 496.128 568.126 491.658 568.871 487.187ZM579.295 446.951H558.446L570.36 480.481C572.594 470.794 575.572 460.363 577.806 450.677L579.295 446.951ZM589.719 414.911L560.68 443.971H580.784C583.018 433.539 586.741 423.853 589.719 414.911ZM596.421 394.793H551L556.957 441.735L591.953 407.46C593.442 402.989 594.932 398.519 596.421 394.793ZM605.356 372.44L603.122 349.341L553.979 391.068H597.91C600.144 384.362 603.122 378.401 605.356 372.44ZM617.269 347.851H606.845L608.334 365.734C611.313 359.773 614.291 353.812 617.269 347.851ZM624.715 332.949L610.568 344.125H619.503C620.992 340.4 622.482 336.674 624.715 332.949ZM608.334 341.145L629.183 324.752C632.161 320.282 634.395 315.811 637.374 311.341L638.863 309.105H617.269L608.334 341.145ZM559.191 347.851L551.745 388.087L600.144 347.851H559.191ZM576.317 318.792L562.914 339.655L609.824 308.36H588.975L583.018 312.831C581.529 314.321 579.295 316.556 576.317 318.792ZM548.767 344.125H556.957L568.126 326.243C560.68 331.459 554.723 337.419 548.767 344.125ZM531.641 344.125H542.81C552.49 334.439 562.914 324.753 573.338 316.556C573.338 315.811 574.083 315.811 574.083 315.811C576.317 314.321 578.551 312.086 580.784 310.595L583.018 309.105H582.273H569.615L563.659 313.576C553.234 322.517 542.065 332.949 531.641 344.125ZM527.173 337.42L531.641 334.439C539.832 326.243 548.767 318.047 557.702 309.85L559.936 307.615H553.979L527.173 337.42ZM486.221 347.851L460.904 385.107L511.537 347.851H486.221ZM434.099 391.068H452.714L478.03 353.812L455.692 370.205C448.246 376.911 440.8 383.616 434.099 391.068ZM411.761 415.656L400.592 437.265L448.991 394.048H431.121C423.675 401.499 417.718 408.205 411.761 415.656ZM389.423 443.225H393.146L400.592 429.068C399.103 431.303 397.614 432.794 396.125 435.029C393.891 438.01 391.657 440.245 389.423 443.225ZM332.089 504.324H318.687L303.795 552.012L317.942 532.639C322.41 522.952 326.877 513.266 332.089 504.324ZM355.917 463.343L358.895 455.892L321.665 500.599H334.323C340.28 487.932 347.726 475.265 355.917 463.343ZM407.294 394.793H402.081L375.276 432.049L377.51 429.813C387.934 417.891 397.614 405.97 407.294 394.793ZM419.952 380.636L406.549 390.323H410.272C413.995 387.342 416.973 384.362 419.952 380.636ZM358.15 443.225H363.362L386.445 410.44C377.51 420.127 369.319 429.813 361.129 439.5C360.384 440.99 359.639 442.48 358.15 443.225ZM332.834 478.991L329.111 484.952L360.384 446.951H355.172C347.726 457.383 340.28 467.814 332.834 478.991ZM783.314 443.225H851.817L809.375 395.538L783.314 443.225ZM852.562 446.951H784.059L825.756 498.364L852.562 446.951ZM773.635 347.851L808.63 389.578L823.522 347.851H773.635ZM746.084 309.85L769.167 341.89L782.57 308.36H746.084V309.85ZM746.084 344.125H766.189L746.084 316.556V344.125ZM746.084 381.381L766.189 347.851H746.084V381.381ZM746.084 391.068H804.907L769.911 349.341L746.084 388.832V391.068ZM746.084 396.283L779.591 441.735L805.652 394.048H746.084V396.283ZM746.084 443.225H776.613L746.084 402.244V443.225ZM746.084 491.658L776.613 446.951H746.084V491.658ZM746.084 500.599H822.033L780.336 448.441L746.084 498.364V500.599ZM822.033 504.324H746.084V505.815L786.293 558.718L822.033 504.324ZM929.255 443.225H986.589L935.212 396.283L929.255 443.225ZM988.823 446.951H931.489L980.632 498.364L988.823 446.951ZM1047.65 443.225H1084.13L1033.5 397.773L1047.65 443.225ZM1087.85 446.951H1050.62L1098.28 496.128L1087.85 446.951ZM971.697 347.851L1022.33 385.107L997.013 347.851H971.697ZM883.09 347.851L931.489 388.087L924.043 347.851H883.09ZM1119.87 443.225H1125.08L1113.17 429.068C1107.96 423.107 1102.75 417.147 1096.79 411.186L1119.87 443.225ZM1127.32 446.951H1122.1L1153.38 484.952L1149.66 478.991C1146.68 474.52 1143.7 470.05 1140.72 465.579L1127.32 446.951ZM659.711 347.851L674.603 389.578L708.855 347.851H659.711ZM657.478 314.321L658.967 341.145L693.218 307.615H661.945L658.967 312.085L657.478 314.321ZM639.607 344.125H655.244L653.755 319.537C649.287 327.733 644.075 335.929 639.607 344.125ZM623.971 375.42L653.01 347.106H638.118C632.906 356.792 628.438 365.734 623.971 375.42ZM617.269 391.068H671.625L656.733 349.341L620.248 385.107C619.503 386.597 618.759 388.832 617.269 391.068ZM613.547 400.754L627.694 441.735L670.136 394.793H616.525C615.036 396.283 614.291 398.519 613.547 400.754ZM599.399 443.225H624.715L611.313 405.97C606.845 418.637 603.122 430.558 599.399 443.225ZM587.486 487.187L623.226 447.696H597.91L596.421 452.167C593.442 463.344 590.464 475.265 587.486 487.187ZM584.507 500.599H654.499L626.949 448.441L585.996 494.638C585.252 496.128 584.507 498.364 584.507 500.599ZM653.755 504.324H583.763L582.273 510.285L607.59 558.718L653.755 504.324ZM737.149 309.85V308.36H700.664L714.067 341.89L737.149 309.85ZM737.149 344.125V316.556L717.045 344.125H737.149ZM737.149 381.381V347.851H716.301L737.149 381.381ZM737.149 391.068V388.087L713.322 348.596L678.326 390.323L737.149 391.068ZM737.149 396.283V394.793H677.582L703.643 442.48L737.149 396.283ZM737.149 443.225V402.244L706.621 443.225H737.149ZM737.149 491.658V446.951H706.621L737.149 491.658ZM737.149 500.599V498.364L702.898 448.441L661.201 500.599H737.149ZM737.149 505.815V504.324H661.201L696.941 558.718L737.149 505.815ZM737.149 560.208V511.776L700.664 560.208H737.149ZM928.51 563.934C930.744 576.601 932.233 590.012 933.722 602.679V604.915L955.316 563.934H928.51ZM921.064 521.462C923.298 534.129 925.532 547.541 927.766 560.208H955.316L921.064 521.462ZM917.341 504.324C918.086 508.05 918.831 511.031 919.575 514.756L958.294 558.718L978.398 504.324H917.341ZM914.363 487.932C915.108 492.403 916.597 496.128 917.341 500.599H977.654L927.766 449.186L914.363 487.932ZM903.939 446.951L905.428 451.422C908.406 461.108 910.64 471.54 912.874 481.226L924.787 446.951H903.939ZM893.514 414.166C896.493 423.853 899.471 433.539 902.449 443.225H922.554L893.514 414.166ZM886.068 394.793C887.558 398.519 889.047 402.989 890.536 406.715L925.532 441.735L931.489 394.793H886.068ZM877.878 373.185C880.112 379.146 883.09 385.107 885.324 391.068H929.255L880.112 349.341L877.878 373.185ZM865.964 347.851C868.943 353.812 871.921 359.773 874.155 366.479L875.644 347.851H865.964ZM858.518 332.204C860.752 335.929 862.241 339.655 864.475 343.38H873.41L858.518 332.204ZM844.371 308.36L845.86 310.595C848.839 315.066 851.072 319.537 854.051 324.007L874.899 340.4L865.22 307.615H844.371V308.36ZM1078.92 563.934C1082.64 575.855 1085.62 587.032 1087.85 598.954L1096.79 563.934L1098.28 563.188L1097.53 563.934H1078.92ZM1067.01 528.168C1070.73 538.6 1074.45 549.031 1077.43 560.208H1094.56L1067.01 528.168ZM1058.07 504.324C1060.3 508.795 1061.79 514.011 1063.28 518.482L1096.79 557.228L1099.02 504.324H1058.07ZM1048.39 481.226C1051.37 487.187 1053.6 493.893 1056.58 500.599H1096.79L1047.65 449.931L1048.39 481.226ZM1032.01 446.951C1036.48 455.147 1040.94 464.088 1044.67 473.03L1043.92 446.951H1032.01ZM1019.35 423.853C1021.58 427.578 1023.82 431.303 1026.05 435.029C1027.54 438.01 1029.03 440.99 1030.52 443.971H1041.69L1019.35 423.853ZM999.991 394.793C1004.46 400.754 1008.18 407.46 1012.65 413.421L1042.43 439.5L1028.29 394.048H999.991V394.793ZM973.931 359.773C982.121 369.459 990.312 379.891 997.758 390.323H1023.82L970.208 350.832L973.931 359.773ZM963.506 347.851C964.251 348.596 965.74 350.086 966.485 350.832L964.995 347.851H963.506ZM922.554 308.36L924.787 310.595C933.722 318.047 942.658 326.988 951.593 335.184L956.06 338.165L928.51 309.105L922.554 308.36ZM1177.95 563.934C1179.44 568.404 1181.67 573.62 1183.16 578.836L1182.42 563.934H1177.95ZM1171.99 548.286C1173.48 552.012 1174.97 555.737 1176.46 560.208H1180.18L1171.99 548.286ZM1151.14 504.324C1156.36 514.011 1160.82 523.698 1165.29 533.384L1178.69 552.012L1164.55 504.324H1151.14ZM1127.32 462.598C1135.51 475.265 1142.95 487.932 1149.66 500.599H1162.31L1125.08 455.147L1127.32 462.598ZM1075.2 394.793C1085.62 405.97 1095.3 417.892 1104.23 430.559L1106.47 432.794L1080.41 395.538L1079.66 394.793H1075.2ZM1063.28 380.636C1066.26 383.616 1069.24 387.342 1072.22 390.323H1075.94L1063.28 380.636ZM991.056 339.655C978.398 329.968 964.995 321.027 950.848 312.831L943.402 308.36H936.701L991.056 339.655ZM1049.13 391.068C1042.43 384.362 1035.73 377.656 1028.29 370.95L1005.95 354.557L1031.26 391.813L1049.13 391.068ZM1071.47 414.911C1065.52 407.46 1059.56 400.754 1052.86 394.048H1034.99L1083.39 437.265L1071.47 414.911ZM1093.81 443.225C1091.58 440.245 1089.34 437.265 1087.11 434.284C1085.62 432.794 1084.13 430.558 1082.64 429.068L1090.09 443.225H1093.81ZM1105.72 460.363C1102.75 455.892 1099.77 451.422 1096.04 446.951H1093.07L1105.72 460.363ZM1129.55 500.599C1125.83 493.148 1121.36 486.442 1116.89 478.991L1092.32 451.422L1102.75 500.599H1129.55ZM1142.21 524.442C1139.23 517.736 1135.51 511.031 1131.78 504.324H1104.98L1146.68 555.737L1142.21 524.442ZM1157.85 560.208C1154.87 552.012 1151.14 543.815 1147.42 535.619L1151.14 560.208H1157.85ZM1168.27 588.522C1165.29 580.326 1162.31 572.13 1159.33 563.188H1152.63L1168.27 588.522ZM906.917 318.792C904.683 316.556 902.449 315.066 899.471 312.831L893.514 308.36H872.666L919.575 339.655L906.917 318.792ZM934.467 344.125C928.51 338.165 921.809 332.204 915.108 326.243L926.277 344.125H934.467ZM956.06 366.479C950.103 359.773 944.891 353.812 938.935 347.106H931.489L956.06 366.479ZM974.675 391.068C971.697 387.342 968.718 383.616 965.74 379.891L927.766 350.832L935.212 391.813H974.675V391.068ZM985.844 405.97C982.866 402.244 980.632 398.519 977.654 394.048H938.935L989.567 440.245L985.844 405.97ZM1008.93 443.225C1007.44 440.245 1005.2 437.265 1003.71 434.284C999.247 426.833 994.779 419.382 990.312 412.676L993.29 443.971H1008.93V443.225ZM1027.54 478.991C1022.33 467.814 1017.12 457.383 1011.16 446.951H995.524L1027.54 478.991ZM1036.48 500.599C1034.99 496.874 1033.5 493.148 1031.26 489.422L991.801 449.186L982.866 500.599H1036.48ZM1042.43 515.501C1040.94 511.776 1039.45 508.05 1037.97 504.324H985.844L1033.5 557.972L1042.43 515.501ZM1058.07 560.208C1054.35 547.541 1049.88 534.874 1044.67 521.462L1036.48 560.208H1058.07ZM1069.98 603.424C1067 590.012 1063.28 577.346 1059.56 563.934H1038.71L1069.98 603.424ZM899.471 308.36L901.705 309.85C903.939 311.341 906.172 313.576 908.406 315.066C909.151 315.066 909.151 315.811 909.151 315.811C919.575 324.753 929.999 333.694 939.679 343.38H950.848C940.424 332.204 930 322.517 918.831 312.831L912.874 308.36H900.216H899.471ZM825.756 314.321L824.267 312.831L821.289 308.36H789.271L823.522 341.89L825.756 314.321ZM843.626 344.125C839.159 335.929 833.947 327.733 828.735 319.537L827.245 344.125H843.626ZM859.263 375.42C854.795 365.734 850.328 356.792 845.86 347.106H830.224L859.263 375.42ZM865.22 391.068C864.475 388.832 863.731 386.597 862.241 384.362L825.756 349.341L810.864 391.068H865.22ZM869.687 400.754C868.943 398.519 868.198 396.283 867.453 394.793H813.843L855.54 441.735L869.687 400.754ZM883.835 443.225C880.112 430.558 875.644 417.892 871.176 405.97L857.774 443.225H883.835ZM895.748 487.187C892.77 475.265 889.791 463.344 886.068 452.167L884.579 447.696H859.263L895.748 487.187ZM898.726 500.599L897.237 494.638L856.285 448.441L828.735 500.599H898.726ZM900.96 510.285L899.471 504.324H829.479L874.899 558.718L900.96 510.285ZM910.64 560.208C908.406 545.306 905.428 531.149 902.449 515.501L879.367 560.208H910.64ZM917.341 609.385L916.597 602.679C915.108 590.012 912.874 576.601 910.64 563.188H879.367L917.341 609.385ZM521.961 216.711C521.961 213.731 521.961 210.75 522.706 208.515L521.961 213.731V216.711ZM474.307 148.161C486.221 154.122 496.645 163.063 504.091 174.24C510.792 183.181 516.004 194.358 518.983 205.535C519.727 200.319 520.472 194.358 521.217 188.397C518.238 182.436 514.515 176.475 510.048 171.26C501.113 160.083 488.454 151.886 474.307 148.161ZM1067.75 137.729H745.34H737.149H415.484V142.2H668.647H737.894H746.084H1068.49L1067.75 137.729ZM525.684 145.926H492.177C505.58 152.632 516.005 162.318 524.195 173.495C527.173 163.808 529.407 157.103 532.386 147.416C530.896 146.671 529.407 146.671 527.918 146.671L525.684 145.926ZM590.464 145.926H557.702L556.957 148.906C565.892 155.612 572.594 164.553 577.806 174.24C580.04 177.965 581.529 181.691 583.018 185.417C583.763 179.456 584.507 173.495 585.996 168.279C587.486 162.318 588.975 155.612 590.464 149.651V145.926ZM596.421 145.926H594.187L592.698 150.396C591.209 156.357 589.719 163.063 588.23 169.024C586.741 174.985 585.996 181.691 585.252 187.652L584.507 193.613C585.252 195.848 585.996 198.083 585.996 201.064C586.741 195.103 586.741 189.887 588.23 183.927C589.719 172.75 591.953 160.828 594.932 149.651L596.421 145.926ZM656.733 145.926H641.841C647.053 151.887 650.776 159.338 653.755 167.534C654.499 160.083 655.244 153.377 656.733 145.926ZM664.924 145.926H660.456L659.711 149.651L658.222 160.828C658.222 164.553 657.478 168.279 656.733 172.005L655.988 176.475C657.478 181.691 658.222 186.162 658.967 191.378C658.967 189.142 658.967 186.162 659.711 183.927C660.456 172.005 661.945 160.828 663.434 148.906L664.924 145.926ZM739.383 234.594H744.595V145.926H739.383V234.594ZM663.434 234.594H734.915V145.926H669.391L668.647 150.396C667.157 161.573 665.668 172.75 664.924 183.927C664.179 195.848 663.434 207.77 663.434 218.947V225.653V234.594ZM653.01 234.594H656.733V225.653C656.733 213.731 655.244 189.887 648.542 171.26C644.82 159.338 638.863 148.906 629.928 145.926H629.183C635.14 150.396 640.352 159.338 643.33 169.024C650.032 186.907 652.265 210.005 651.521 221.927V226.398V234.594H653.01ZM591.953 234.594H649.287V225.653V221.182C649.287 210.005 647.053 187.652 641.096 169.77C637.374 158.593 631.417 148.906 623.226 145.926L621.737 145.181H602.378L600.888 149.651C597.91 160.083 595.676 172.004 594.187 183.181C592.698 195.103 591.209 207.025 591.209 218.947V225.653L591.953 234.594ZM580.784 234.594H583.018V225.653C583.018 208.515 578.551 187.652 568.871 172.005C565.148 165.299 559.936 159.338 553.979 154.867C558.446 158.593 562.169 163.063 565.148 168.279C575.572 183.927 580.784 204.044 580.784 221.182V225.653V234.594ZM539.832 234.594H577.061V225.653V221.182C576.317 204.79 571.849 185.417 561.425 169.77C558.446 164.554 553.979 160.083 550.256 156.357L548.767 160.083C545.788 169.024 543.555 178.711 542.065 188.397C540.576 198.829 539.832 209.26 539.087 218.947V225.653L539.832 234.594ZM524.94 234.594H530.152V225.653V221.182C530.152 214.476 528.663 207.025 526.429 201.064L525.684 209.26L524.94 225.653V234.594ZM819.799 225.653V218.947C819.799 207.025 819.055 195.848 818.31 184.672C817.566 173.495 816.076 161.573 814.587 150.396L813.843 145.926H748.318V234.594H819.799V225.653ZM829.479 168.279C832.458 159.338 836.181 151.887 841.393 145.926H826.501C827.245 153.377 827.99 160.828 829.479 168.279ZM823.522 192.123C824.267 188.397 825.012 184.672 825.756 180.946C825.756 179.456 826.501 178.711 826.501 177.221L825.756 166.044C825.012 159.338 824.267 152.632 822.778 145.926H818.31L819.055 149.651C820.544 161.573 822.033 172.75 822.778 184.672C822.778 186.907 823.522 189.887 823.522 192.123ZM829.479 225.653V221.182C829.479 209.26 831.713 186.162 838.414 168.279C842.137 158.593 846.605 150.396 852.562 145.926H851.817C843.626 148.906 837.67 159.338 833.947 171.26C827.99 189.887 825.756 212.986 826.501 225.653V234.594H830.224L829.479 225.653ZM891.281 225.653V218.947C891.281 207.025 889.791 195.848 888.302 183.927C886.813 172.75 884.579 160.828 881.601 149.651L880.112 145.181H860.752L859.263 145.926C851.072 148.906 845.86 157.847 841.393 169.024C834.691 186.907 833.202 209.26 832.458 221.182V225.653V234.594H890.536L891.281 225.653ZM896.493 201.064C897.237 198.829 897.237 196.593 897.982 194.358L897.237 187.652C896.493 181.691 895.748 174.985 894.259 169.024C892.77 163.063 891.281 156.357 889.791 150.396L888.302 145.926H886.068L886.813 149.651C889.791 160.828 892.025 172.75 893.514 183.927C895.004 189.887 895.748 195.103 896.493 201.064ZM901.705 225.653V221.182C902.449 204.044 907.662 183.927 918.086 168.279C921.064 163.063 924.787 158.593 929.255 154.867C923.298 159.338 918.086 165.299 913.618 172.005C903.939 187.652 899.471 207.77 899.471 225.653V234.594H901.705V225.653ZM939.679 225.653V218.947C939.679 209.26 938.935 200.319 937.445 191.378C935.956 181.691 933.722 172.005 931.489 162.318L930.744 158.593C927.766 161.573 924.787 165.299 921.809 169.77C912.129 184.672 906.917 204.044 906.172 221.182V225.653V234.594H940.424L939.679 225.653ZM926.277 148.906L925.532 145.926H892.77L893.514 149.651C895.004 155.612 896.493 162.318 897.982 168.279C899.471 174.24 900.216 180.201 900.96 185.417C902.449 180.946 903.939 177.22 906.172 173.495C910.64 163.808 918.086 154.867 926.277 148.906ZM950.848 147.416C954.571 157.103 956.805 164.553 959.039 174.24C967.229 162.318 977.654 152.632 991.056 145.926H957.55L954.571 146.671C953.082 146.671 951.593 146.671 950.848 147.416ZM959.783 198.829C960.528 204.045 960.528 209.26 961.273 213.731V212.986L960.528 200.319L959.783 198.829ZM958.294 225.653L957.55 209.26L956.805 201.064C954.571 207.77 953.826 214.476 953.082 221.182V225.653V234.594H958.294V225.653ZM953.827 182.436L950.848 171.26L947.125 159.338L943.402 149.651C940.424 151.142 937.445 152.632 935.212 154.867L936.701 160.083C939.679 169.769 941.913 178.711 943.402 188.397C944.147 193.613 944.891 198.829 945.636 204.044C947.87 196.593 950.104 189.142 953.827 182.436ZM964.251 204.79C967.229 193.613 971.697 183.181 978.398 174.24C986.589 163.063 997.013 154.122 1008.93 148.161C994.779 151.886 982.121 160.083 973.186 171.26C968.718 176.475 964.995 182.436 962.017 188.397C962.762 193.613 963.506 199.574 964.251 204.79ZM739.383 41.6101H744.595V22.9822V20.7471H739.383V22.9822V41.6101ZM658.222 41.6101C660.456 40.1199 661.945 38.6296 664.179 37.1394C662.69 37.8845 660.456 40.1199 658.222 41.6101ZM627.694 41.6101H631.417C638.118 37.1394 644.82 33.4138 651.521 30.4333C643.33 33.4138 635.884 37.1394 627.694 41.6101ZM626.205 45.3354H621.737C613.547 50.5513 606.101 55.7673 598.655 61.7283C586.741 71.4148 576.317 81.8459 567.382 93.7678H577.806C586.741 81.1008 597.165 69.1792 608.334 59.4927C614.291 54.2769 620.248 49.061 626.205 45.3354ZM648.542 45.3354H632.161C624.716 50.5513 617.269 55.7671 610.568 62.4731C600.144 72.1597 590.464 82.5913 581.529 94.5132H611.313C618.014 81.8462 626.205 70.6694 635.14 59.4927C639.607 54.2769 644.075 49.061 648.542 45.3354ZM654.499 45.3354C647.798 50.5513 642.586 55.7673 637.374 61.7283C629.183 71.4148 621.737 82.5911 615.036 93.7678H616.525C623.226 81.8459 630.672 69.9243 640.352 59.4927C645.564 54.2769 650.032 49.8062 654.499 45.3354ZM688.006 45.3354H659.711C653.755 50.5513 648.542 55.7673 643.33 61.7283C635.14 71.4148 627.694 82.5911 620.992 93.7678H667.157C669.391 85.5715 672.37 77.3757 675.348 69.1794C679.815 60.9832 684.283 52.7866 688.006 45.3354ZM696.197 45.3354H692.474C688.006 52.7866 683.538 61.728 679.815 70.6694C676.837 78.1206 673.859 86.3167 671.625 93.7678H675.348C678.326 82.5911 682.794 70.6697 688.006 60.238C690.984 55.0222 693.218 49.8062 696.197 45.3354ZM735.66 45.3354H700.664C697.686 50.5513 694.707 55.7673 691.729 61.7283C687.261 72.1599 682.794 83.3362 679.815 93.7678H735.66V45.3354ZM743.851 45.3354H738.638V93.7678H743.851V45.3354ZM782.57 45.3354H747.574V93.7678H803.418C801.185 86.3167 798.206 78.1206 795.228 70.6694C791.505 61.728 787.782 52.7866 782.57 45.3354ZM790.76 45.3354H787.037C791.505 52.7866 795.228 60.9832 798.951 69.1794C801.929 77.3757 804.908 85.5715 807.141 93.7678H810.864C808.63 86.3167 805.652 78.1206 802.674 70.6694C799.695 61.728 795.228 52.7866 790.76 45.3354ZM822.778 45.3354H794.483C798.951 52.7866 802.674 60.9832 806.397 69.1794C809.375 77.3757 812.353 85.5715 814.587 93.7678H860.752C854.051 82.5911 846.605 71.4148 838.414 61.7283C833.947 55.7673 828.735 49.8062 822.778 45.3354ZM828.735 45.3354C833.202 49.8062 837.67 54.2769 841.393 59.4927C850.328 69.9243 858.518 81.8462 865.22 94.5132H866.709C860.008 83.3364 853.306 72.1597 844.371 62.4731C839.903 55.7671 834.691 49.8062 828.735 45.3354ZM820.544 38.6296C822.033 39.3748 822.778 40.1199 824.267 41.6101C823.522 40.1199 822.033 39.3748 820.544 38.6296ZM850.328 45.3354H833.947C839.159 49.8062 843.626 54.2769 847.349 59.4927C856.285 69.9243 864.475 81.8459 871.176 93.7678H900.216C892.025 81.8459 882.345 71.4148 871.176 61.7283C865.22 55.7673 857.774 49.8062 850.328 45.3354ZM861.497 45.3354H857.029C862.986 49.8062 868.943 54.2769 874.899 59.4927C886.068 69.9243 896.493 81.1011 906.172 94.5132H916.597C906.917 82.5913 896.493 72.1597 885.324 62.4731C877.133 55.7671 869.687 49.8062 861.497 45.3354ZM830.968 29.6882C837.67 33.4138 844.371 37.1394 851.072 41.6101H854.795C847.349 37.1394 839.159 32.6687 830.968 29.6882ZM677.582 24.4724L676.837 23.7273C663.434 28.198 650.032 34.1589 638.118 41.6101H652.265C660.456 34.9041 668.647 28.9431 677.582 24.4724ZM699.175 24.4724H690.984C681.305 28.9431 672.37 34.9041 664.179 41.6101H690.24C693.963 34.9041 698.43 29.6882 703.643 24.4724H699.175ZM711.833 24.4724H709.599C704.387 28.9431 699.175 34.9041 695.452 41.6101H699.175C702.153 34.9041 706.621 28.9431 711.833 24.4724ZM720.768 24.4724H717.045C711.833 28.9431 707.366 34.9041 702.898 41.6101H735.66V24.4724H720.768ZM714.067 20.7471H715.556L716.301 20.002H714.811L714.067 20.7471ZM766.933 20.7471H768.422L766.933 20.002H765.444L766.933 20.7471ZM766.189 24.4724H748.318V41.6101H781.08C775.868 34.9041 771.401 28.9431 766.189 24.4724ZM773.635 24.4724H771.401C776.613 29.6882 781.08 34.9041 784.803 41.6101H788.526C784.059 34.9041 778.847 28.9431 773.635 24.4724ZM791.505 24.4724H778.847C784.059 29.6882 788.526 34.9041 792.249 41.6101H818.31C810.12 34.9041 801.185 28.9431 791.505 24.4724ZM806.397 22.9822C806.397 23.7273 805.652 23.7273 805.652 23.7273C814.587 28.198 822.778 34.1589 830.224 40.865H844.371C832.458 34.1589 819.799 27.4529 806.397 22.9822ZM555.468 134.004L557.702 128.788C562.914 117.612 568.871 107.18 575.572 97.4934H565.148C559.191 105.69 553.234 114.631 548.767 123.573L543.555 134.004H555.468ZM594.187 134.004L595.676 129.533C599.399 119.102 603.867 107.925 609.079 98.2385H578.55C571.105 108.67 565.148 119.847 559.936 131.023L558.446 134.749L594.187 134.004ZM600.144 134.004L601.633 129.533C605.356 119.102 609.823 107.925 615.036 98.2385H613.547C607.59 108.67 603.122 119.847 599.399 131.023L597.91 134.749L600.144 134.004ZM658.967 134.004L659.711 129.533C661.201 119.847 664.179 109.415 667.157 97.4934H619.503C613.546 107.925 609.079 119.102 605.356 130.278L603.867 134.004H658.967ZM666.413 134.004L667.157 129.533C668.647 119.847 671.625 108.67 674.603 97.4934H670.88C667.902 109.415 664.924 120.592 663.434 130.278L662.69 134.004H666.413ZM735.66 134.004V97.4934H679.071C676.092 108.67 673.114 120.592 671.625 130.278L670.88 134.004H735.66ZM743.851 134.004V97.4934H738.638V134.004H743.851ZM813.098 134.004L812.353 130.278C810.12 120.592 807.886 109.415 804.907 97.4934H748.318V134.004H813.098ZM820.544 134.004L819.799 130.278C817.566 120.592 815.332 109.415 812.353 97.4934H808.63C811.609 108.67 814.587 119.847 816.076 129.533L816.821 134.004H820.544ZM879.367 134.004L877.878 130.278C874.155 119.102 868.943 107.925 863.731 97.4934H816.076C819.055 108.67 822.033 119.847 823.522 129.533L824.267 134.004H879.367ZM884.579 134.004L883.09 130.278C879.367 119.102 874.155 107.925 868.943 97.4934H867.453C872.666 107.925 877.133 118.357 880.856 128.788L882.345 133.259L884.579 134.004ZM924.043 134.004L922.554 130.278C917.341 118.356 910.64 107.925 903.939 97.4934H874.155C879.367 107.925 883.835 118.357 887.557 128.788L889.047 133.259L924.043 134.004ZM940.424 134.004L935.212 123.573C929.999 114.631 924.787 105.69 918.831 97.4934H907.662C914.363 107.18 920.32 117.612 925.532 128.788L927.766 134.004H940.424ZM533.13 287.497V247.261H524.94V287.497H533.13ZM580.04 287.497V247.261H539.832V287.497H580.04ZM585.996 287.497V247.261H583.763V287.497H585.996ZM650.776 287.497V247.261H591.953V287.497H650.776ZM658.967 287.497V247.261H655.244V287.497H658.967ZM735.66 287.497V247.261H664.179V287.497H735.66ZM743.851 287.497V247.261H738.638V287.497H743.851ZM819.799 287.497V247.261H748.318V287.497H819.799ZM828.735 287.497V247.261H824.267V287.497H828.735ZM891.281 287.497V247.261H832.458V287.497H891.281ZM899.471 287.497V247.261H897.237V287.497H899.471ZM939.679 287.497V247.261H903.194V287.497H939.679ZM958.294 287.497V247.261H950.104V287.497H958.294ZM963.506 291.222H959.783H947.87H944.891H941.913H901.705H895.748H893.514H830.968H823.522H822.778H747.574H739.383H661.945H660.456H653.01H590.464H588.23H582.273H539.087H536.109H524.195H520.472H513.771V304.635H518.238H532.386H570.36H583.763H647.798H657.478H738.638H743.106H743.851H825.012H825.756H834.691H899.471H912.874H950.848H964.995H969.463V300.909C969.463 300.164 969.463 299.419 969.463 299.419V291.222H963.506ZM746.084 16.2764C746.829 16.2764 747.574 17.0212 747.574 17.7664V20.002H758.743V17.7664C758.743 17.0212 759.487 16.2764 760.232 16.2764H767.678C768.422 16.2764 768.422 16.2764 768.422 16.2764L770.656 17.7664C771.401 18.5115 772.89 19.2568 773.635 20.7471H781.08L778.102 20.002C777.357 20.002 776.613 18.5115 776.613 17.7664C776.613 17.0212 778.102 16.2764 778.847 16.2764L782.57 17.7664C782.57 17.0212 784.059 16.2764 784.803 16.2764L790.016 17.7664L791.505 18.5115V17.7664C791.505 17.0212 792.994 16.2764 793.739 16.2764L797.462 17.0215C797.462 16.2764 798.206 16.2764 798.951 16.2764H799.695H800.44V15.5312H680.56V16.2764H681.305C682.049 16.2764 682.794 16.2764 683.538 17.0215L687.261 16.2764C688.006 16.2764 689.495 16.2761 689.495 17.7664V18.5115L690.984 17.7664L695.452 16.2764C696.197 16.2764 697.686 16.2761 697.686 17.7664L701.409 16.2764C702.153 16.2764 703.643 16.2761 703.643 17.7664C703.643 18.5115 703.643 20.002 702.153 20.002L699.175 20.7471H707.366C708.11 20.002 709.599 19.2566 710.344 18.5115L712.578 17.0215H713.322H720.768C721.513 17.0215 722.257 17.7664 722.257 18.5115V20.7471H733.426V18.5115C733.426 17.7664 734.171 17.0215 734.915 17.0215H746.084V16.2764ZM528.663 170.514C529.407 166.789 530.896 163.063 531.641 159.338L530.152 163.063L528.663 170.514ZM527.173 177.966C527.173 176.475 527.918 174.985 527.918 173.495L527.173 177.966ZM539.087 149.651L535.364 159.338C533.13 167.534 530.896 174.24 529.407 182.436C531.641 186.907 533.13 190.632 534.619 195.103C535.364 189.142 536.109 183.181 537.598 177.966C539.087 171.26 540.576 164.554 542.81 157.103L544.299 152.632C542.81 151.886 541.321 150.396 539.087 149.651ZM742.361 -1535.79V-1769.76H741.617H740.872V-1535.79H742.361ZM753.53 -1432.97V-1532.07H744.595H739.383H730.448V-1432.97H753.53ZM755.02 -1429.24H727.47H720.768V-1388.26H760.976V-1429.24H755.02ZM751.297 -1343.55L743.851 -1323.43H758.743L751.297 -1343.55ZM751.297 -1353.98L757.998 -1372.61H744.595L751.297 -1353.98ZM752.041 -1300.34L758.743 -1319.71H744.595L752.041 -1300.34ZM752.041 -1246.69L759.487 -1266.06H743.851L752.041 -1246.69ZM752.786 -1193.04L760.976 -1212.41H743.851L752.786 -1193.04ZM754.275 -1085.74L763.21 -1105.86H744.595L754.275 -1085.74ZM755.02 -1032.1L764.699 -1052.21H744.595L755.02 -1032.1ZM755.764 -924.8L766.933 -944.918H744.595L755.764 -924.8ZM756.509 -871.897L767.678 -892.76H744.595L756.509 -871.897ZM757.253 -818.249L769.167 -839.112H744.595L757.253 -818.249ZM757.998 -764.601L770.656 -785.464H745.34L757.998 -764.601ZM757.998 -710.953L770.656 -731.816H744.595L757.998 -710.953ZM758.743 -657.305L772.145 -678.168H744.595L758.743 -657.305ZM759.487 -603.657L773.635 -624.52H745.34L759.487 -603.657ZM760.232 -550.754L775.124 -572.362H745.34L760.232 -550.754ZM760.976 -497.106L775.868 -518.714H745.34L760.976 -497.106ZM760.976 -443.458L776.613 -465.066H744.595L760.976 -443.458ZM761.721 -389.81L778.102 -411.418H745.34L761.721 -389.81ZM762.466 -336.162L779.591 -357.77H745.34L762.466 -336.162ZM763.21 -283.259L780.336 -304.867H745.34L763.21 -283.259ZM763.955 -229.611L781.825 -251.219H746.084L763.955 -229.611ZM763.955 -175.963L782.57 -197.571H745.34L763.955 -175.963ZM764.699 -122.314L783.314 -143.923H745.34L764.699 -122.314ZM765.444 -69.4114L784.803 -91.0198H745.34L765.444 -69.4114ZM766.189 -15.7637L786.293 -37.3718H746.084L766.189 -15.7637ZM765.444 -63.4507L745.34 -41.0974H785.548L765.444 -63.4507ZM764.699 -117.099L745.34 -94.7454H784.803L764.699 -117.099ZM763.955 -170.747L745.34 -148.393H783.314L763.955 -170.747ZM763.955 -223.65L745.34 -201.296H782.57L763.955 -223.65ZM763.21 -277.298L745.34 -254.944H781.08L763.21 -277.298ZM762.466 -330.201L745.34 -307.847H780.336L762.466 -330.201ZM761.721 -383.849L744.595 -361.495H778.847L761.721 -383.849ZM761.721 -437.497L745.34 -415.144H778.102L761.721 -437.497ZM760.976 -490.4L745.34 -468.046H777.357L760.976 -490.4ZM760.232 -544.048L745.34 -521.695H775.868L760.232 -544.048ZM759.487 -597.696L744.595 -575.343H774.379L759.487 -597.696ZM758.743 -650.599L744.595 -628.245H772.89L758.743 -650.599ZM757.998 -704.247L744.595 -682.639H772.145L757.998 -704.247ZM757.998 -757.15L745.34 -735.542H771.401L757.998 -757.15ZM757.253 -810.798L744.595 -789.19H769.911L757.253 -810.798ZM756.509 -864.446L744.595 -842.838H769.167L756.509 -864.446ZM755.764 -917.349L744.595 -895.741H767.678L755.764 -917.349ZM754.275 -1077.55L744.595 -1055.94H764.699L754.275 -1077.55ZM753.53 -1130.45L744.595 -1109.59H763.21L753.53 -1130.45ZM752.786 -1183.35L743.851 -1162.49H761.721L752.786 -1183.35ZM752.041 -1237L743.851 -1216.14H760.976L752.041 -1237ZM752.041 -1290.65L744.595 -1269.79H760.232L752.041 -1290.65ZM743.106 -1331.63L749.063 -1348.77L743.106 -1364.42V-1331.63ZM743.106 -1277.98L749.807 -1295.12L743.106 -1311.51V-1277.98ZM743.106 -1224.33L750.552 -1242.22L743.106 -1259.36V-1224.33ZM743.106 -1169.94L750.552 -1187.82L743.106 -1204.96V-1169.94ZM743.106 -1116.29L751.297 -1134.92L743.106 -1152.8V-1116.29ZM743.106 -1062.65L752.041 -1082.02L743.106 -1099.9V-1062.65ZM743.106 -901.702L753.53 -921.82L743.106 -941.192V-901.702ZM743.106 -848.053L754.275 -868.172L743.106 -887.544V-848.053ZM743.106 -794.405L755.02 -814.523L743.106 -833.896V-794.405ZM743.106 -740.757L755.02 -761.621L743.106 -781.739V-740.757ZM743.106 -687.109L755.764 -707.973L743.106 -728.09V-687.109ZM743.106 -633.461L756.509 -654.324L743.106 -674.442V-633.461ZM743.106 -579.813L757.253 -600.676L743.106 -620.794V-579.813ZM743.106 -526.165L757.998 -547.773L743.106 -568.637V-526.165ZM743.106 -472.517L757.998 -494.125L743.106 -514.989V-472.517ZM743.106 -418.869L758.743 -440.477L743.106 -461.34V-418.869ZM743.106 -365.221L759.487 -386.829L743.106 -407.693V-365.221ZM743.106 -311.573L760.232 -333.181L743.106 -354.044V-311.573ZM743.106 -257.925L760.232 -279.533L743.106 -301.141V-257.925ZM743.106 -204.277L760.976 -225.885L743.106 -247.493V-204.277ZM743.106 -151.374L761.721 -173.727L743.106 -195.335V-151.374ZM743.106 -97.7258L762.466 -120.079L743.106 -141.688V-97.7258ZM743.106 -44.0779L763.21 -66.4312L743.106 -88.0393V-44.0779ZM743.106 9.57031L763.21 -12.783L743.106 -34.3914V9.57031ZM739.383 -34.3914L719.279 -12.783L739.383 9.57031V-34.3914ZM717.79 -63.4507L697.686 -41.0974H737.894L717.79 -63.4507ZM739.383 -88.0393L720.024 -66.4312L739.383 -44.0779V-88.0393ZM718.534 -117.099L698.43 -94.7454H737.894L718.534 -117.099ZM739.383 -141.688L720.024 -120.079L739.383 -97.7258V-141.688ZM718.534 -170.002L699.175 -147.648H737.149L718.534 -170.002ZM739.383 -194.59L720.768 -172.982L739.383 -150.629V-194.59ZM719.279 -223.65L700.664 -201.296H737.894L719.279 -223.65ZM739.383 -248.238L721.513 -226.63L739.383 -205.022V-248.238ZM720.024 -277.298L701.409 -254.944H737.149L720.024 -277.298ZM739.383 -301.141L722.257 -279.533L739.383 -257.925V-301.141ZM720.768 -330.201L702.898 -307.847H737.894L720.768 -330.201ZM739.383 -354.789L722.257 -333.926L739.383 -312.318V-354.789ZM721.513 -383.849L704.387 -361.495H738.638L721.513 -383.849ZM739.383 -407.693L723.002 -386.829L739.383 -365.221V-407.693ZM721.513 -437.497L705.132 -415.144H737.894L721.513 -437.497ZM739.383 -461.34L723.747 -440.477L739.383 -418.869V-461.34ZM722.257 -490.4L705.876 -468.046H737.894L722.257 -490.4ZM739.383 -514.244L724.491 -493.38L739.383 -471.772V-514.244ZM723.002 -544.048L707.366 -521.695H737.894L723.002 -544.048ZM739.383 -567.891L725.236 -547.028L739.383 -525.42V-567.891ZM723.747 -597.696L708.855 -576.088H738.638L723.747 -597.696ZM739.383 -620.794L725.236 -600.676L739.383 -579.813V-620.794ZM723.747 -650.599L708.855 -628.245H737.149L723.747 -650.599ZM739.383 -674.442L725.98 -654.324L739.383 -633.461V-674.442ZM724.491 -704.247L710.344 -682.639H737.894L724.491 -704.247ZM739.383 -727.345L726.725 -707.227L739.383 -686.364V-727.345ZM725.236 -757.15L711.833 -735.542H738.638L725.236 -757.15ZM739.383 -780.993L727.47 -760.875L739.383 -740.012V-780.993ZM725.98 -810.798L713.322 -789.19H738.638L725.98 -810.798ZM739.383 -833.896L727.47 -814.523L739.383 -794.405V-833.896ZM726.725 -864.446L714.067 -842.838H738.638L726.725 -864.446ZM739.383 -887.544L728.214 -868.172L739.383 -848.053V-887.544ZM727.47 -917.349L715.556 -895.741H738.638L727.47 -917.349ZM739.383 -940.447L728.959 -921.074L739.383 -900.957V-940.447ZM728.959 -1077.55L718.534 -1055.94H738.638L728.959 -1077.55ZM739.383 -1099.9L730.448 -1082.02L739.383 -1062.65V-1099.9ZM729.703 -1130.45L720.024 -1109.59H738.638L729.703 -1130.45ZM739.383 -1152.8L731.193 -1134.92L739.383 -1116.29V-1152.8ZM730.448 -1184.1L721.513 -1163.24H739.383L730.448 -1184.1ZM739.383 -1205.71L731.937 -1188.57L739.383 -1169.94V-1205.71ZM730.448 -1237L721.513 -1216.14H737.894L730.448 -1237ZM739.383 -1258.61L732.682 -1241.47L739.383 -1223.59V-1258.61ZM731.193 -1289.9L723.002 -1269.04H738.638L731.193 -1289.9ZM739.383 -1311.51L732.682 -1295.12L739.383 -1277.98V-1311.51ZM731.937 -1343.55L724.491 -1323.43H738.638L731.937 -1343.55ZM739.383 -1364.42L733.426 -1348.77L739.383 -1332.38V-1364.42ZM731.937 -1353.98L738.638 -1372.61H725.236L731.937 -1353.98ZM723.747 -1332.38L729.703 -1348.77L724.491 -1364.42L723.747 -1332.38ZM731.193 -1300.34L737.894 -1319.71H725.236L731.193 -1300.34ZM723.002 -1277.98L729.703 -1295.12L723.747 -1311.51L723.002 -1277.98ZM730.448 -1246.69L738.638 -1266.06H723.002L730.448 -1246.69ZM721.513 -1224.33L728.959 -1242.22L722.257 -1258.61L721.513 -1224.33ZM730.448 -1193.04L738.638 -1212.41H722.257L730.448 -1193.04ZM720.024 -1170.69L728.214 -1188.57L720.768 -1205.71L720.024 -1170.69ZM719.279 -1117.04L727.47 -1135.67L720.024 -1152.8L719.279 -1117.04ZM728.959 -1085.74L738.638 -1105.86H720.024L728.959 -1085.74ZM717.79 -1062.65L726.725 -1081.27L718.534 -1099.16L717.79 -1062.65ZM728.214 -1032.1L738.638 -1052.21H718.534L728.214 -1032.1ZM727.47 -924.8L738.638 -944.918H717.045L727.47 -924.8ZM714.067 -901.702L725.236 -921.82L715.556 -941.192L714.067 -901.702ZM726.725 -871.897L738.638 -892.76H715.556L726.725 -871.897ZM713.322 -848.053L724.491 -868.172L714.067 -887.544L713.322 -848.053ZM725.98 -818.249L738.638 -839.112H714.811L725.98 -818.249ZM711.833 -794.405L723.747 -814.523L712.578 -833.896L711.833 -794.405ZM725.236 -764.601L737.894 -785.464H712.578L725.236 -764.601ZM710.344 -740.757L723.002 -760.875L711.088 -780.248L710.344 -740.757ZM724.491 -710.953L737.894 -731.816H711.833L724.491 -710.953ZM709.599 -687.109L723.002 -707.973L711.088 -728.09L709.599 -687.109ZM724.491 -657.305L738.638 -678.168H711.088L724.491 -657.305ZM708.11 -633.461L721.513 -654.324L708.855 -674.442L708.11 -633.461ZM723.747 -603.657L737.894 -625.265H709.599L723.747 -603.657ZM707.366 -579.813L721.513 -600.676L708.11 -620.794L707.366 -579.813ZM723.002 -550.754L737.894 -572.362H708.855L723.002 -550.754ZM705.876 -526.165L720.768 -547.773L706.621 -568.637L705.876 -526.165ZM722.257 -497.106L737.894 -518.714H707.366L722.257 -497.106ZM704.387 -472.517L720.024 -494.125L705.132 -514.989L704.387 -472.517ZM721.513 -443.458L737.894 -465.066H706.621L721.513 -443.458ZM703.643 -418.869L720.024 -440.477L705.132 -461.34L703.643 -418.869ZM721.513 -389.81L737.894 -411.418H705.132L721.513 -389.81ZM702.153 -365.221L718.534 -386.829L702.898 -407.693L702.153 -365.221ZM720.768 -336.162L737.894 -357.77H704.387L720.768 -336.162ZM700.664 -311.573L717.79 -333.181L701.409 -354.044L700.664 -311.573ZM720.024 -283.259L737.894 -304.867H702.898L720.024 -283.259ZM699.919 -258.67L717.79 -280.278L700.664 -301.141L699.919 -258.67ZM719.279 -229.611L737.149 -251.219H701.409L719.279 -229.611ZM698.43 -205.022L717.045 -226.63L699.919 -248.238L698.43 -205.022ZM718.534 -175.963L737.149 -197.571H699.919L718.534 -175.963ZM697.686 -151.374L717.045 -173.727L699.175 -195.335V-181.178L697.686 -151.374ZM718.534 -122.314L737.894 -143.923H699.919L718.534 -122.314ZM696.197 -97.7258L715.556 -120.079L696.941 -141.688L696.197 -97.7258ZM717.79 -69.4114L737.894 -91.0198H699.175L717.79 -69.4114ZM694.707 -44.0779L714.811 -66.4312L695.452 -88.0393L694.707 -44.0779ZM717.045 -15.7637L737.149 -37.3718H696.941L717.045 -15.7637ZM693.963 9.57031L714.811 -12.783L695.452 -34.3914L693.963 9.57031ZM685.772 -968.762H667.157V-956.84H685.772V-968.762ZM685.772 -980.683H667.157V-972.487H685.772V-980.683ZM685.772 -993.35H667.157V-983.664H685.772V-993.35ZM685.772 -1017.94H667.157V-997.076H685.772V-1017.94ZM711.833 -968.762H689.495V-956.84H711.833V-968.762ZM722.257 -968.762H715.556V-956.84H716.301L722.257 -968.762ZM728.959 -968.762H726.725L720.024 -956.84H734.915L728.959 -968.762ZM739.383 -968.762H732.682L738.638 -956.84H739.383V-968.762ZM750.552 -968.762H743.851V-956.84H744.595L750.552 -968.762ZM756.509 -968.762H754.275L748.318 -956.84H763.21L756.509 -968.762ZM712.578 -980.683H689.495V-972.487H711.833L712.578 -980.683ZM723.002 -980.683H716.301V-972.487H725.236L726.725 -974.722L723.002 -980.683ZM728.959 -980.683H726.725L727.47 -979.193L728.959 -980.683ZM739.383 -980.683H732.682L729.703 -974.722L731.193 -972.487H740.128L739.383 -980.683ZM750.552 -980.683H743.851V-972.487H752.786L754.275 -974.722L750.552 -980.683ZM755.764 -980.683H754.275L755.02 -979.193L755.764 -980.683ZM743.106 -984.409H748.318L743.106 -994.095V-984.409ZM734.915 -984.409H740.128V-994.095L734.915 -984.409ZM712.578 -993.35H689.495V-983.664H712.578V-993.35ZM716.301 -993.35V-983.664H721.513L716.301 -993.35ZM735.66 -993.35H720.768L725.236 -983.664H730.448L735.66 -993.35ZM762.466 -993.35H746.829L752.041 -983.664H757.253L762.466 -993.35ZM745.34 -997.076H764.699L765.444 -998.566H744.595L745.34 -997.076ZM718.534 -997.076H737.149L737.894 -998.566H717.045L718.534 -997.076ZM713.322 -1017.94H689.495V-997.076H712.578L713.322 -1017.94ZM721.513 -1017.94H717.045V-1009L721.513 -1017.94ZM731.193 -1017.94H725.236L717.79 -1003.04H738.638L731.193 -1017.94ZM739.383 -1017.94H734.915L739.383 -1009V-1017.94ZM747.574 -1017.94H743.106V-1009L747.574 -1017.94ZM757.998 -1017.94H752.041L744.595 -1003.04H765.444L757.998 -1017.94ZM816.076 -968.762H797.462V-956.84H816.076V-968.762ZM816.076 -980.683H797.462V-972.487H816.076V-980.683ZM816.076 -993.35H797.462V-983.664H816.076V-993.35ZM816.076 -1017.94H797.462V-997.076H816.076V-1017.94ZM753.53 -1021.66H755.764L754.275 -1023.9L753.53 -1021.66ZM743.106 -1021.66H749.063L752.041 -1028.37L742.361 -1047L743.106 -1021.66ZM733.426 -1021.66H739.383V-1047L730.448 -1028.37L733.426 -1021.66ZM727.47 -1021.66H729.703L728.214 -1023.9L727.47 -1021.66ZM717.045 -1021.66H723.002L725.98 -1028.37L717.045 -1047V-1021.66ZM736.405 -953.114H717.79L716.301 -949.389H738.638L736.405 -953.114ZM764.699 -953.114H746.084L744.595 -949.389H766.933L764.699 -953.114ZM771.401 -968.762V-956.84H793.739V-968.762H771.401ZM770.656 -980.683V-972.487H793.739V-980.683H770.656ZM770.656 -993.35V-983.664H793.739V-993.35H770.656ZM769.911 -1017.94L770.656 -997.076H794.483V-1017.94H769.911ZM759.487 -1332.38L758.743 -1365.16L753.53 -1349.51L759.487 -1332.38ZM760.232 -1277.98L759.487 -1311.51L753.53 -1295.12L760.232 -1277.98ZM761.721 -1224.33L760.976 -1258.61L754.275 -1242.22L761.721 -1224.33ZM763.21 -1169.94L762.466 -1205.71L755.02 -1188.57L763.21 -1169.94ZM763.955 -1116.29L763.21 -1152.8L755.02 -1134.92L763.955 -1116.29ZM765.444 -1062.65L764.699 -1099.9L756.509 -1081.27L765.444 -1062.65ZM766.189 -1021.66L765.444 -1047L756.509 -1028.37L759.487 -1021.66H766.189ZM766.189 -1009V-1017.94H761.721L766.189 -1009ZM766.933 -984.409V-994.095L762.466 -984.409H766.933ZM767.678 -972.487V-980.683H760.976L757.998 -974.722L759.487 -972.487H767.678ZM767.678 -956.84V-968.762H760.976L767.678 -956.84ZM769.167 -901.702L768.422 -940.447L757.998 -921.074L769.167 -901.702ZM769.911 -848.053L769.167 -887.544L758.743 -868.172L769.911 -848.053ZM771.401 -794.405L770.656 -833.896L759.487 -814.523L771.401 -794.405ZM772.89 -740.012L772.145 -780.248L760.232 -760.13L772.89 -740.012ZM773.635 -686.364L772.89 -727.345L760.232 -707.227L773.635 -686.364ZM775.124 -633.461L774.379 -674.442L761.721 -654.324L775.124 -633.461ZM775.868 -579.813L775.124 -621.54L761.721 -601.422L775.868 -579.813ZM777.357 -526.165L776.613 -567.891L762.466 -547.028L777.357 -526.165ZM778.847 -472.517L778.102 -514.244L763.21 -493.38L778.847 -472.517ZM779.591 -418.869L778.847 -461.34L763.955 -440.477L779.591 -418.869ZM781.08 -365.221L780.336 -407.693L763.955 -386.829L781.08 -365.221ZM781.825 -311.573L781.08 -354.789L764.699 -333.926L781.825 -311.573ZM783.314 -257.925L782.57 -301.141L765.444 -279.533L783.314 -257.925ZM784.803 -204.277L784.059 -247.493L766.189 -225.885L784.803 -204.277ZM785.548 -151.374L784.803 -195.335L766.933 -173.727L785.548 -151.374ZM787.037 -97.7258L786.293 -141.688L767.678 -120.079L787.037 -97.7258ZM788.526 -44.0779L787.782 -88.0393L768.422 -66.4312L788.526 -44.0779ZM789.271 9.57031L788.526 -34.3914L768.422 -12.783L789.271 9.57031ZM737.894 -1157.27H722.257L729.703 -1139.39L737.894 -1157.27ZM760.976 -1157.27H745.34L753.53 -1139.39L760.976 -1157.27ZM737.149 12.5508L717.045 -9.80273L696.197 12.5508H737.149ZM787.037 12.5508L766.189 -9.80273L745.34 12.5508H787.037ZM763.955 -1384.53H720.024H715.556V-1377.08H723.747H742.361H760.976H769.167V-1384.53H763.955ZM1479.51 613.856H1226.35H1215.18H933.722H928.51H744.595H739.383H554.724H549.511H268.054H256.885H3.72298V625.778H1479.51V613.856ZM250.929 852.292V845.586C250.184 811.311 241.993 777.781 227.102 748.721C241.249 778.526 249.439 812.056 250.184 845.586L250.929 852.292ZM163.811 649.622C142.962 638.445 119.88 630.994 93.819 630.249H88.6068H84.8839C128.815 638.445 166.045 661.543 195.084 692.838C224.123 724.878 244.227 765.859 252.418 810.566C252.418 797.154 253.162 783.741 253.907 770.329C249.439 756.172 243.483 742.76 236.037 730.093C219.656 700.289 197.318 674.21 169.768 654.092L163.811 649.622ZM266.565 806.84V811.311C267.31 817.271 268.054 823.233 268.799 829.194L269.543 834.409H270.288C269.543 825.468 268.799 816.527 266.565 806.84ZM256.885 767.349V769.584C259.864 778.526 262.098 786.722 264.331 795.663V792.683C264.331 792.683 264.331 792.683 264.331 791.938C262.098 783.741 259.119 775.545 256.885 767.349ZM251.673 754.682V756.917L253.162 759.898V757.663C253.162 756.917 252.418 756.173 251.673 754.682ZM213.699 691.348C223.379 702.525 231.569 715.191 238.27 728.603C241.993 735.309 244.972 742.015 248.695 749.466V747.231C240.504 728.604 229.335 710.721 216.677 695.073C215.188 693.583 214.443 692.093 213.699 691.348ZM274.011 852.292H276.245V845.586C275.5 791.193 256.141 736.054 221.889 694.328C212.21 683.151 201.785 672.72 190.616 663.779C201.041 671.975 210.72 681.661 218.911 692.093C231.569 707.74 242.738 725.623 250.929 744.25C250.929 744.25 251.673 744.996 251.673 745.741C253.162 749.467 254.652 752.447 256.141 756.172C256.141 756.172 256.885 756.917 256.885 757.663C268.054 785.977 274.011 815.781 274.011 845.586V852.292ZM166.045 630.994C163.066 630.994 160.833 630.249 157.854 630.249H153.387H125.837C166.045 638.445 199.552 661.543 224.868 692.838C256.885 732.329 276.245 784.487 279.223 835.899C279.223 835.899 279.223 835.899 279.968 835.899H280.712H288.903V830.684C288.158 818.017 285.925 804.605 282.946 791.938V791.193C279.223 775.545 274.756 759.898 268.054 745.741C264.331 736.8 260.608 728.603 255.396 720.407L254.652 719.662C253.162 717.427 252.418 715.937 250.929 713.701C250.184 712.211 248.695 710.72 247.95 708.485C228.591 677.936 202.53 651.857 169.768 635.464L166.045 630.994ZM307.518 820.997C307.518 825.468 306.773 829.938 306.773 835.154H308.262C308.262 829.938 307.518 825.468 307.518 820.997ZM298.583 773.31C297.094 782.997 296.349 791.938 295.604 800.879C294.86 809.821 294.115 818.762 294.115 827.703V834.409H303.795L304.539 827.703C304.539 818.762 305.284 811.311 306.029 802.369C303.05 792.683 300.816 782.997 298.583 773.31ZM294.86 759.898C294.115 762.878 294.115 766.604 293.371 769.584L290.392 795.663L289.648 804.604C290.392 807.585 290.392 811.311 291.137 814.291C291.137 809.821 291.881 804.605 292.626 800.134C293.371 791.193 294.115 782.251 295.604 773.31L297.094 764.368C295.604 762.878 294.86 761.388 294.86 759.898ZM290.392 747.231L288.903 765.114L286.669 789.702L287.414 791.938C288.158 781.506 289.648 771.075 291.137 760.643L292.626 752.447C291.137 750.957 290.392 748.721 290.392 747.231ZM275.5 714.446C274.756 720.407 274.011 726.368 273.266 731.584L271.777 742.76C276.245 753.937 280.712 765.859 283.691 777.781C284.435 765.114 285.925 751.702 287.414 739.035C283.691 730.839 279.968 722.642 275.5 714.446ZM260.608 691.348C259.864 699.544 259.119 707.74 259.119 716.681C262.842 723.387 265.82 729.348 268.799 736.054C269.543 727.113 271.033 718.172 272.522 709.23C269.543 704.014 266.565 698.799 262.842 693.583C262.098 693.583 261.353 692.838 260.608 691.348ZM251.673 680.171V704.76C252.418 706.25 253.907 707.74 254.652 709.23L255.396 710.72L256.141 701.779L256.885 686.877C255.396 684.642 253.907 682.406 251.673 680.171ZM177.958 633.229C206.253 649.621 230.08 672.72 247.95 699.544V676.445C229.335 654.837 206.253 639.19 177.958 633.229ZM276.245 709.23L276.989 704.76C274.756 701.034 272.522 697.309 270.288 694.328C255.396 673.465 237.526 656.327 216.677 644.406C236.037 656.327 252.418 672.72 265.821 692.093C269.543 697.309 272.522 701.779 275.5 706.995C275.5 707.74 276.245 708.485 276.245 709.23ZM312.73 852.292H316.453V845.586C316.453 802.369 304.539 750.957 279.968 709.23L279.223 713.701C283.691 721.152 287.414 729.348 290.392 737.544C290.392 737.544 290.392 737.545 290.392 738.29C291.881 742.76 293.371 746.486 294.86 750.957C294.86 750.957 294.86 750.957 294.86 751.702C306.029 782.996 311.241 815.781 311.241 845.586L312.73 852.292ZM260.608 661.543L259.864 660.798C249.439 649.621 238.27 640.68 224.868 632.484L220.4 630.249H187.638C222.634 639.19 250.929 662.288 272.522 692.838C274.011 695.073 275.5 697.308 277.734 700.289L279.968 686.877C279.223 685.387 278.479 684.642 277.734 683.151C277.734 683.151 277.734 683.151 277.734 682.406C271.777 674.21 266.565 667.504 260.608 661.543ZM323.154 799.389V798.644C317.942 768.839 309.007 738.29 294.86 710.72C291.137 704.014 287.414 697.309 282.946 690.603L280.712 704.76C304.539 744.251 317.198 792.683 319.431 835.154H326.877V829.938C326.133 819.507 324.644 809.821 323.154 799.389ZM248.695 630.249H247.206H227.846C235.292 634.719 241.993 639.935 247.95 645.151L248.695 630.249ZM262.098 632.484C258.375 631.739 255.396 630.994 251.673 630.994V648.876C254.652 651.112 256.885 654.092 259.864 656.327L262.098 632.484ZM354.427 749.466V750.211C351.449 762.878 348.471 776.29 346.981 788.957C344.748 801.624 344.003 815.036 343.258 828.448V834.409H369.319C367.83 809.821 363.362 779.271 354.427 749.466ZM347.726 729.348L346.981 730.838C342.514 747.231 338.791 762.878 336.557 779.271C334.323 794.918 332.09 811.311 331.345 828.448V834.409H338.791V828.448C339.535 815.036 341.025 801.624 342.514 788.957C344.748 776.29 346.981 762.878 349.96 750.211L351.449 743.506C351.449 738.29 349.96 733.819 347.726 729.348ZM344.003 718.172L343.258 720.407C339.535 731.584 336.557 742.76 334.323 754.682C331.345 766.604 329.856 778.526 327.622 790.448L326.877 797.899C327.622 803.115 328.367 809.075 329.111 814.291C329.856 802.369 331.345 790.448 333.579 778.526C335.812 762.133 339.535 746.486 344.003 729.348L346.237 722.642C345.492 721.897 344.748 720.407 344.003 718.172ZM329.856 689.857L328.366 695.073C326.133 702.524 323.899 710.72 322.41 718.172C320.176 725.623 318.687 733.819 317.198 742.015L315.708 750.957C319.431 762.878 322.41 774.8 324.644 786.722C326.133 776.291 328.367 765.114 330.6 754.682C332.834 742.76 336.557 731.584 339.535 720.407L341.769 713.701C338.791 706.995 335.812 700.289 332.089 694.328C331.345 692.093 330.6 691.348 329.856 689.857ZM320.176 674.955C318.687 680.171 317.198 684.642 315.708 689.857L312.73 698.799C311.241 705.505 309.752 711.466 308.262 717.427L306.773 726.368C309.007 731.584 311.241 737.544 313.475 742.76L314.219 739.78C315.708 731.584 317.198 724.133 319.431 715.936C321.665 708.485 323.154 700.289 325.388 692.838L327.622 683.897C325.388 681.661 323.154 678.681 320.176 674.955ZM316.453 669.74L309.007 692.838C306.773 701.779 304.539 709.975 302.306 718.917C303.05 719.662 303.05 721.152 303.795 721.897C304.539 717.426 306.029 712.956 306.773 708.485C308.262 701.779 309.752 696.563 311.985 689.857C313.475 683.896 315.708 677.936 317.198 671.975L316.453 669.74ZM287.414 642.916L285.18 654.092L280.712 680.916C281.457 682.406 282.202 683.151 282.946 684.642C282.946 684.642 282.946 684.642 283.691 685.387C288.903 692.838 293.371 701.034 297.838 709.975C298.583 711.466 299.327 712.956 300.072 714.446C300.816 709.975 302.306 706.25 303.05 701.779C306.029 689.857 309.752 679.426 313.475 667.504C306.029 657.072 297.094 648.876 287.414 642.916ZM265.821 633.229L263.587 659.308C268.799 664.524 273.266 670.484 277.734 676.445C279.968 664.523 282.202 653.347 284.435 641.425C278.479 637.699 272.522 634.719 265.821 633.229ZM372.298 852.292H377.51V845.586C378.254 803.859 367.085 741.27 341.025 693.583C326.877 667.504 307.518 645.896 282.946 636.209C284.435 636.955 285.925 637.7 287.414 638.445H288.158C307.518 650.367 323.154 668.994 335.812 692.093C339.535 698.054 342.514 704.76 345.492 711.466C346.237 712.211 346.237 712.211 346.237 712.956C347.726 715.937 348.471 718.917 349.96 721.897C349.96 721.897 350.704 722.642 350.704 723.387C352.938 729.348 355.172 735.309 356.661 741.27C357.406 742.015 357.406 742.015 357.406 742.76C368.575 779.271 373.787 817.271 373.042 845.586L372.298 852.292ZM322.41 642.17C323.899 637.699 325.388 633.974 327.622 630.249H309.007C313.475 633.974 317.942 637.699 322.41 642.17ZM326.133 646.641C328.367 640.68 330.6 635.464 332.834 630.249H331.345L328.366 637.7L325.388 645.151L326.133 646.641ZM336.557 658.563C340.28 648.876 344.003 639.19 347.726 629.503H336.557L334.323 635.464C332.834 639.935 330.6 644.406 329.111 649.622C331.345 652.602 334.323 655.582 336.557 658.563ZM381.977 791.193V790.448C378.254 763.624 370.808 736.054 361.129 710.72C359.639 706.995 358.15 703.269 355.917 699.544L355.172 698.799C353.683 696.563 352.938 693.583 351.449 691.348C351.449 691.348 350.704 690.603 350.704 689.857C339.535 667.504 324.643 648.131 306.029 633.229L303.05 630.994H277.734C306.773 639.935 328.366 663.779 344.748 692.838C368.575 736.8 379.744 794.173 381.233 835.899H386.445V830.684C384.956 817.271 383.467 803.86 381.977 791.193ZM380.488 630.994C379.744 630.994 378.254 630.249 377.51 630.249H375.276H351.449C349.215 635.464 346.981 640.68 344.748 645.896L338.791 662.288C344.003 668.994 348.471 676.445 352.194 684.642L353.683 681.661C357.406 673.465 361.129 665.269 365.596 657.073C370.064 648.876 373.787 641.425 378.999 633.974L380.488 630.994ZM387.19 632.484C386.445 632.484 385.7 631.739 384.956 631.739L381.977 635.464C377.51 642.915 373.042 650.366 368.575 658.563C364.107 666.759 360.384 674.955 356.661 683.151L354.427 688.367C355.172 689.857 355.917 691.348 356.661 692.093L358.15 689.112C361.873 679.426 366.341 670.484 370.064 662.288C374.531 653.347 378.999 645.151 384.211 636.209L387.19 632.484ZM432.61 691.348L431.865 692.838C421.441 713.701 413.995 736.8 408.783 759.153C403.571 782.251 400.592 805.35 399.103 829.194V834.409H458.671C457.926 800.134 451.225 739.035 433.354 692.838L432.61 691.348ZM427.398 678.681L426.653 680.916C416.229 702.524 408.038 725.623 402.081 749.466C395.38 775.545 392.402 803.115 390.913 829.938V835.154H396.125V829.938C397.614 806.095 400.592 782.251 405.804 759.153C411.017 736.054 418.463 713.701 428.887 692.093L431.121 687.622C429.631 683.896 428.142 680.916 427.398 678.681ZM422.93 669.74L421.441 671.975C412.506 689.112 405.804 706.995 399.848 724.878C393.891 743.506 389.423 762.878 386.445 782.996L384.956 789.702C386.445 797.154 387.19 804.604 387.934 812.056C390.168 790.448 393.146 768.839 398.358 747.976C404.315 724.133 411.761 701.034 422.93 678.681L425.164 674.21C424.419 672.72 423.675 671.23 422.93 669.74ZM400.592 641.425L398.358 645.151C392.402 654.092 386.445 664.523 381.233 674.955C376.021 685.387 370.808 696.563 367.085 706.995L364.852 712.956C373.042 733.819 378.999 756.172 382.722 778.526C385.7 759.898 390.168 742.015 395.38 724.133C401.337 705.505 408.783 687.622 416.973 670.485L419.207 666.014C414.74 656.327 408.038 647.386 400.592 641.425ZM390.168 633.974L387.19 638.445C381.977 646.641 377.51 655.582 373.042 663.779C368.575 672.72 364.852 680.916 361.129 690.603L358.895 696.563C360.384 700.289 361.873 704.014 363.362 707.74L364.107 705.505C367.83 695.073 373.042 683.897 378.254 672.72C383.467 662.288 389.423 651.857 395.38 642.17L397.614 638.445C395.38 636.955 393.146 635.464 390.168 633.974ZM462.394 852.292H468.35V845.586C469.84 815.781 463.138 744.996 443.034 692.838C431.121 661.543 414.74 636.955 393.146 630.994C396.125 632.484 399.103 634.719 402.081 636.955C416.973 648.876 428.142 668.25 436.333 691.348C456.437 744.251 462.394 814.291 461.649 845.586L462.394 852.292ZM433.354 645.896C437.077 639.935 441.545 635.464 446.013 630.249H421.441C425.908 634.719 429.631 639.935 433.354 645.896ZM437.822 652.602L439.311 650.367C442.29 646.641 444.523 643.66 446.757 639.935C448.991 636.954 451.969 633.974 454.948 630.249L455.692 629.503H451.225L446.013 635.464L437.822 645.896L435.588 648.876C436.333 650.366 437.077 651.857 437.822 652.602ZM443.779 664.524L445.268 663.033C449.736 657.073 454.203 651.112 458.671 645.896C463.138 640.68 468.35 635.464 474.307 630.994H460.16L457.182 633.974C454.203 636.954 451.969 640.68 448.991 643.66C446.757 646.641 443.779 650.366 441.545 653.347L439.311 657.073C440.8 659.308 442.29 661.543 443.779 664.524ZM469.095 775.545V774.8C466.117 753.192 462.394 730.838 456.437 709.975C452.714 695.818 447.502 682.406 442.29 669.74L441.545 668.994C434.844 655.582 427.398 642.915 419.207 632.484L416.973 630.249H399.848C419.952 639.19 434.844 663.033 446.013 692.093C463.883 739.035 471.329 800.879 471.329 835.154H473.563V829.938C473.563 813.546 472.073 794.918 469.095 775.545ZM520.472 630.249H480.264L477.286 632.484C471.329 636.954 466.861 642.17 461.649 647.386C457.181 652.602 452.714 658.563 448.246 664.524L446.013 668.249C451.969 680.916 456.437 694.328 460.16 708.485C465.372 725.623 468.35 744.25 471.329 761.388C475.052 737.545 481.009 709.975 489.944 684.642C497.39 664.524 507.069 644.406 520.472 630.249ZM530.152 630.249H525.684L523.45 632.484C510.792 646.641 501.113 666.014 493.667 686.877C483.987 714.446 478.03 744.251 474.307 768.839L473.563 774.8C475.052 785.232 475.796 795.663 476.541 805.35C478.775 775.545 483.987 741.27 492.177 709.975C500.368 678.681 512.281 650.366 530.152 630.249ZM549.511 634.719L548.022 635.464C528.663 648.876 514.515 674.955 504.836 704.76C490.688 747.976 484.732 798.644 483.987 829.938V834.409H583.018C582.274 812.801 581.529 790.448 580.04 768.839C578.55 745.741 575.572 721.897 571.105 699.544C570.36 696.563 569.615 693.583 569.615 689.857V688.367C566.637 675.7 559.936 645.896 549.511 634.719ZM541.321 630.249H534.619L532.386 632.484C515.26 652.602 503.346 680.916 495.156 710.72C483.987 750.957 479.519 795.663 478.03 829.938V835.154H480.264V829.938C481.009 798.644 486.965 747.231 501.113 703.269C511.537 672.72 525.684 645.896 545.788 632.484H546.533C545.788 631.739 544.299 630.994 543.555 630.994L541.321 630.249ZM586.741 852.292H593.442V838.88C592.698 815.781 591.953 791.938 590.464 768.839C588.975 745.741 585.996 721.897 581.529 699.544L580.784 694.328L580.04 689.857C578.55 683.151 575.572 669.74 571.105 657.073C566.637 645.151 561.425 633.974 553.979 630.994L551.745 630.249H549.511L550.256 630.994C562.169 642.916 568.871 674.21 571.849 686.877C572.594 688.367 574.083 697.309 574.083 698.054C578.551 721.152 580.784 744.251 583.018 768.094C584.507 791.193 585.996 815.036 585.996 838.135L586.741 852.292ZM567.382 630.249H559.936C565.892 635.464 570.36 645.15 574.083 655.582C578.551 668.249 581.529 682.406 583.018 689.112C583.763 692.838 584.507 695.073 584.507 698.799C586.741 709.976 588.23 721.152 589.719 732.329C588.975 727.858 588.975 723.387 588.23 718.917L587.486 712.956L586.741 706.995C585.252 695.073 583.018 682.406 580.04 669.74C577.061 657.073 574.083 645.151 568.871 633.974L567.382 630.249ZM629.183 630.249L626.949 634.719C622.482 645.151 619.503 656.327 616.525 667.504C613.547 678.681 612.057 690.603 609.824 701.779L609.079 706.995L608.334 712.956C607.59 720.407 606.101 728.603 605.356 736.054C607.59 718.917 609.823 701.779 612.802 686.132C618.014 660.053 625.46 638.445 635.884 630.249H629.183ZM593.442 725.623C597.165 693.583 602.378 659.308 615.036 630.249H571.849L573.338 633.229C577.806 644.406 581.529 657.073 584.507 669.74C587.486 682.406 589.719 695.073 591.209 706.995C591.953 710.72 592.698 714.446 592.698 718.172C592.698 720.407 592.698 723.387 593.442 725.623ZM618.759 630.249L618.014 631.739C604.611 663.033 600.144 701.779 595.676 735.309V736.054L594.932 742.015C595.676 750.957 596.421 760.643 597.165 769.584C597.165 774.8 597.91 780.016 597.91 785.231C597.91 779.271 598.655 772.565 599.399 766.604C600.888 747.976 602.378 730.094 605.356 711.466C606.101 707.74 606.845 704.014 606.845 700.289C608.334 689.112 610.568 677.191 613.547 665.269C616.525 653.347 619.503 642.17 623.971 631.739L625.46 628.758H618.759V630.249ZM734.171 630.249H644.819H644.075C632.161 633.974 623.971 657.073 617.269 686.877C606.101 739.78 603.122 812.056 603.122 829.938V835.154H734.171V630.249ZM254.652 836.645V835.899C254.652 835.154 255.396 835.154 256.141 835.154H265.076V830.684C263.587 813.546 260.608 797.154 256.141 781.506C256.141 790.448 255.396 798.644 255.396 807.585V823.978C255.396 824.723 254.652 825.468 253.907 825.468C254.652 830.684 254.652 836.645 255.396 842.605V836.645H254.652ZM241.993 836.645V835.899C241.993 835.154 242.738 835.154 243.483 835.154H246.461C242.738 782.251 221.145 732.329 187.638 695.818C157.11 662.288 116.901 639.19 69.992 632.484C111.689 642.17 148.174 663.779 177.214 693.583C215.933 733.074 239.76 787.467 241.249 846.331V853.037H241.993V836.645ZM745.34 630.249H738.638V836.645V852.292H745.34V836.645V630.249ZM1232.31 845.586C1233.05 808.33 1243.47 771.82 1259.86 739.78C1242.73 771.82 1233.05 808.33 1232.31 845.586ZM1215.92 807.585C1214.43 816.526 1213.69 825.468 1212.95 835.154H1213.69V829.938C1214.43 823.978 1215.18 818.017 1215.92 812.056V807.585ZM1226.35 766.604C1223.37 775.545 1221.14 783.741 1218.9 792.683V796.408C1221.14 787.467 1223.37 777.781 1226.35 768.839V766.604ZM1231.56 754.682C1230.82 755.427 1230.82 756.917 1230.07 757.663V759.898C1230.82 759.153 1230.82 757.663 1231.56 756.917V754.682ZM1272.51 687.622C1270.28 689.857 1268.05 692.093 1266.56 694.328C1253.9 709.976 1243.47 727.113 1235.28 745.741V747.976C1238.26 741.27 1241.98 734.564 1244.96 727.858C1252.41 713.701 1262.09 700.289 1272.51 687.622ZM1395.37 630.249H1390.16C1364.84 631.739 1341.02 638.445 1320.17 649.622L1314.96 653.347C1287.41 673.465 1264.32 700.289 1247.94 729.348C1242.73 738.29 1238.26 747.976 1234.54 757.663V758.408C1233.05 762.133 1231.56 765.859 1230.07 769.584C1230.82 781.506 1230.82 793.428 1230.82 806.095V809.821C1238.26 765.114 1258.37 724.133 1288.15 692.093C1317.19 660.798 1354.42 637.7 1398.35 629.503L1395.37 630.249ZM1209.22 852.292V845.586C1209.22 842.605 1209.22 839.625 1209.22 836.645C1209.22 836.645 1209.22 836.645 1209.22 835.899V835.154C1210.71 808.33 1216.67 781.506 1226.35 756.172V755.427C1235.28 732.329 1247.94 709.976 1263.58 691.348C1271.77 681.661 1280.7 671.975 1290.38 664.524C1279.21 673.465 1269.54 683.151 1260.6 694.328C1226.35 735.309 1207.73 791.193 1206.99 845.586V852.292H1209.22ZM1175.72 820.997C1174.97 825.468 1174.97 829.938 1174.97 835.154H1176.46C1176.46 829.938 1175.72 825.468 1175.72 820.997ZM1184.65 773.31C1181.67 782.997 1180.18 792.683 1177.95 802.369V803.115C1178.69 813.546 1179.44 823.978 1179.44 834.409H1189.12V827.703C1188.37 818.762 1188.37 809.821 1187.63 800.879C1186.88 791.938 1186.14 782.997 1184.65 773.31ZM1188.37 759.898C1187.63 761.388 1187.63 762.878 1186.88 764.368L1188.37 772.565C1189.86 781.506 1190.61 790.448 1191.35 799.389C1192.1 803.86 1192.1 809.075 1192.1 813.546C1192.84 809.821 1192.84 806.84 1193.59 803.115L1192.84 794.918L1190.61 777.036L1188.37 759.898ZM1192.84 747.231C1192.1 748.721 1191.35 750.957 1190.61 753.192C1192.84 765.859 1194.33 779.271 1195.82 791.938V790.448C1195.08 782.251 1195.08 773.31 1194.33 765.114C1194.33 759.153 1193.59 753.192 1192.84 747.231ZM1207.73 714.446L1206.99 715.191C1206.99 715.191 1206.99 715.191 1206.99 715.936C1202.52 723.387 1198.8 731.584 1195.82 739.78C1197.31 752.447 1198.8 765.114 1199.54 778.526C1202.52 766.604 1206.99 754.682 1211.46 742.76L1207.73 714.446ZM1222.63 692.093C1221.88 692.838 1221.14 693.583 1221.14 694.328C1217.41 699.544 1214.43 704.014 1211.46 709.23L1215.18 736.054C1218.16 729.348 1221.14 722.642 1224.86 716.681C1223.37 708.485 1222.63 700.289 1222.63 692.093ZM1231.56 680.171C1229.33 682.406 1227.84 684.642 1225.6 686.877C1226.35 695.073 1227.09 702.524 1227.09 710.72L1228.58 708.485C1229.33 706.995 1230.07 705.505 1231.56 704.015V680.171ZM1305.28 633.229C1277.73 639.935 1253.9 655.582 1235.28 676.445V699.544C1253.15 672.72 1276.24 649.621 1305.28 633.229ZM1329.1 630.249H1324.63C1321.66 630.249 1319.42 630.994 1316.44 630.994L1311.98 633.229C1279.96 650.366 1253.9 675.7 1234.54 706.25C1234.54 706.25 1234.54 706.995 1233.79 706.995C1233.05 708.485 1232.31 709.976 1230.82 711.466C1224.86 721.897 1218.9 732.329 1214.43 743.506V744.25C1206.24 763.623 1200.29 783.741 1197.31 803.859V804.604C1195.82 812.801 1195.08 820.997 1194.33 828.448V833.664H1202.52C1205.5 782.251 1224.86 730.094 1256.88 691.348C1282.19 660.053 1315.7 637.7 1355.91 628.758H1329.1V630.249ZM1206.99 709.23C1207.73 707.74 1207.73 707.74 1207.73 707.74C1210.71 702.524 1213.69 697.309 1217.41 692.093C1218.9 689.857 1220.39 687.622 1221.88 686.132C1221.88 686.132 1221.88 685.387 1222.63 685.387C1235.28 668.994 1250.18 654.092 1268.05 644.406C1246.45 655.582 1227.84 673.465 1212.95 694.328C1210.71 698.054 1208.48 701.034 1206.24 704.76L1206.99 709.23ZM1170.5 852.292V845.586C1170.5 819.507 1174.97 791.938 1183.16 764.368C1183.16 763.623 1183.16 763.623 1183.16 762.878C1184.65 759.153 1185.4 755.427 1186.88 751.702C1186.88 750.957 1186.88 750.957 1187.63 750.211C1189.12 746.486 1190.61 742.76 1192.1 738.29C1192.1 737.545 1192.1 737.544 1192.84 736.799C1195.82 728.603 1199.54 721.152 1204.01 712.956L1203.27 708.485C1179.44 750.211 1167.53 800.879 1166.78 844.841V851.547H1170.5V852.292ZM1200.29 689.857C1195.82 696.563 1192.1 703.269 1188.37 709.975C1185.4 715.936 1182.42 721.897 1180.18 727.858C1180.18 727.858 1180.18 727.858 1180.18 728.603C1166.04 761.388 1158.59 796.408 1156.36 829.938V835.154H1163.8C1166.04 791.938 1178.69 743.506 1202.52 704.76L1200.29 689.857ZM1262.09 630.249L1257.62 632.484C1249.43 637.699 1241.24 643.661 1234.54 649.622L1233.79 650.367C1230.07 653.347 1226.35 657.073 1223.37 660.798C1223.37 660.798 1223.37 661.543 1222.63 661.543C1216.67 667.504 1211.46 674.21 1206.24 681.661C1206.24 682.406 1205.5 682.406 1205.5 682.406C1204.76 683.151 1204.01 684.642 1203.27 685.387L1205.5 698.799C1206.99 696.563 1208.48 693.583 1209.97 691.348C1230.82 660.798 1259.11 637.7 1294.85 629.503H1262.09V630.249ZM1128.81 749.466C1119.87 779.271 1116.15 809.821 1114.66 834.409H1140.72V828.448C1139.98 815.036 1138.49 802.369 1137 788.957C1134.76 776.29 1132.53 762.878 1129.55 750.211L1128.81 749.466ZM1134.76 729.348C1133.27 733.819 1131.78 738.29 1130.3 742.76L1131.78 749.466C1134.76 762.878 1137.74 775.545 1139.23 788.212C1141.46 801.625 1142.21 814.291 1142.95 827.703V833.664H1150.4V827.703C1149.66 810.565 1148.17 794.173 1145.19 777.036C1142.95 761.388 1139.23 744.996 1134.76 729.348ZM1139.23 718.172C1138.49 719.662 1137.74 721.897 1137 723.387L1138.49 730.093C1142.95 745.741 1146.68 761.388 1148.91 777.781C1151.14 789.702 1152.63 802.369 1153.38 815.036C1154.12 809.82 1154.87 804.605 1155.61 798.644L1154.87 790.448C1153.38 778.526 1151.14 767.349 1148.91 755.427C1146.68 743.505 1142.95 732.329 1139.98 721.152L1139.23 718.172ZM1153.38 689.857C1152.63 691.348 1151.89 692.093 1151.14 693.583C1147.42 700.289 1144.44 706.995 1141.46 713.701L1143.7 720.407C1146.68 731.584 1150.4 743.505 1152.63 755.427C1154.87 765.859 1157.1 777.036 1158.59 787.467C1160.82 775.545 1163.8 763.624 1168.27 751.702L1166.78 742.76C1165.29 735.309 1163.8 727.113 1161.57 719.662C1159.33 712.211 1157.85 704.014 1155.61 696.563L1153.38 689.857ZM1163.06 674.955C1160.82 678.681 1157.85 682.406 1155.61 686.132L1158.59 694.328C1160.82 701.779 1163.06 709.975 1164.55 717.427C1166.78 724.878 1168.27 733.074 1169.76 741.27L1170.5 743.506C1172.74 737.545 1174.97 732.329 1177.21 727.113L1172.74 708.485C1171.25 702.524 1169.76 695.818 1167.53 689.857L1164.55 680.171L1163.06 674.955ZM1166.78 669.74C1166.04 670.485 1166.04 671.23 1165.29 671.23C1170.5 688.367 1174.97 704.759 1178.69 721.897C1179.44 721.152 1179.44 719.662 1180.18 718.917L1177.95 710.72C1175.72 701.779 1173.48 693.583 1170.5 684.642L1166.78 669.74ZM1195.08 642.916C1185.4 648.876 1177.21 657.072 1169.01 666.014C1173.48 680.171 1177.95 694.328 1181.67 709.23L1182.42 713.701C1183.16 712.211 1183.91 710.72 1184.65 709.23C1189.86 699.544 1195.82 689.857 1201.78 680.916C1200.29 667.504 1198.05 655.583 1195.08 642.916ZM1217.41 633.229C1210.71 635.464 1204.76 637.699 1198.8 641.425C1201.03 653.347 1203.27 664.523 1205.5 676.445C1209.97 670.484 1214.43 664.524 1219.65 659.308L1218.16 645.151L1217.41 633.229ZM1231.56 630.249C1227.84 630.994 1224.86 630.994 1221.14 631.739C1221.88 639.935 1222.63 647.386 1223.37 655.582C1226.35 652.602 1228.58 650.366 1231.56 647.386V630.249ZM1236.03 630.249H1234.54V645.151C1241.24 639.935 1247.94 634.719 1254.64 630.249H1236.03ZM1110.94 852.292V845.586C1110.94 817.271 1115.4 779.271 1126.57 742.76C1126.57 742.015 1126.57 742.015 1127.32 741.27C1129.55 735.309 1131.04 729.348 1133.27 723.387C1133.27 722.642 1133.27 722.642 1134.02 722.642C1135.51 719.662 1136.25 716.682 1137.74 713.701C1137.74 712.956 1137.74 712.956 1138.49 712.211C1141.46 705.505 1144.44 698.799 1148.17 692.093C1160.82 669.74 1176.46 650.367 1195.82 639.19C1195.82 639.19 1195.82 639.19 1196.56 639.19C1198.05 638.445 1199.54 636.955 1201.78 636.209C1177.2 645.896 1157.85 667.504 1142.95 694.328C1116.89 742.015 1105.72 805.35 1106.47 846.331V853.037L1110.94 852.292ZM1180.18 630.249L1177.21 632.484C1166.04 641.425 1156.36 651.857 1148.17 663.779C1148.17 663.779 1148.17 664.524 1147.42 664.524C1142.21 671.975 1137 680.916 1132.53 689.112C1132.53 689.857 1132.53 690.603 1131.78 690.603C1130.3 692.838 1129.55 695.073 1128.06 697.309C1128.06 698.054 1128.06 698.054 1127.32 698.799C1125.83 702.524 1124.34 706.25 1122.1 709.975C1121.36 711.466 1121.36 712.211 1120.62 713.701V714.446C1105.72 752.447 1099.02 794.173 1096.79 829.938V835.154H1102C1103.49 793.428 1114.66 736.054 1138.49 692.093C1154.87 662.288 1176.46 639.19 1205.5 630.249H1180.18ZM1160.82 642.17C1165.29 637.699 1169.76 633.974 1174.23 630.249H1155.61C1157.85 633.974 1159.33 637.699 1160.82 642.17ZM1157.1 646.641L1158.59 645.151C1156.36 639.935 1154.87 635.464 1152.63 630.249H1150.4L1152.63 634.719C1154.12 638.445 1155.61 642.915 1157.1 646.641ZM1146.68 658.563C1148.91 655.582 1151.14 652.602 1154.12 649.622L1151.89 643.66L1148.91 636.209L1146.68 630.249H1135.51L1137.74 636.209C1140.72 643.661 1143.7 651.112 1146.68 658.563ZM1050.62 691.348L1049.88 692.838C1032.01 739.78 1025.31 800.134 1024.56 834.409H1084.13V829.194C1083.39 805.35 1079.66 780.761 1074.45 756.917C1069.24 734.564 1061.79 712.211 1052.11 692.093L1050.62 691.348ZM1055.84 678.681C1054.35 681.661 1053.6 683.896 1052.11 686.877L1054.35 691.348C1064.03 711.466 1071.47 733.819 1076.68 756.917C1082.64 780.761 1085.62 805.35 1087.11 829.194V834.409H1092.32V829.194C1091.58 803.115 1087.85 776.29 1081.15 750.211C1075.2 725.623 1067.01 701.779 1056.58 680.171L1055.84 678.681ZM1060.3 669.74C1059.56 671.23 1058.81 672.72 1058.07 674.21L1060.3 678.681C1070.73 700.289 1078.92 724.878 1084.88 749.466C1090.09 770.329 1093.07 791.193 1094.56 811.311C1095.3 804.604 1096.04 797.154 1097.53 789.702L1096.79 782.996C1093.81 762.878 1089.34 742.76 1083.39 723.387C1077.43 705.505 1070.73 688.367 1061.79 671.975L1060.3 669.74ZM1081.9 641.425C1074.45 647.386 1067.75 656.327 1062.54 666.014L1064.77 670.485C1073.71 686.877 1080.41 704.76 1086.36 722.642C1092.32 740.525 1096.79 759.898 1099.77 778.526C1103.49 756.917 1109.45 734.564 1117.64 713.701L1115.4 707.74C1110.94 696.563 1106.47 686.132 1101.26 675.7C1096.04 665.269 1090.83 654.837 1084.13 645.151L1081.9 641.425ZM1093.07 633.974C1090.09 635.464 1087.85 636.955 1084.88 639.19L1087.85 642.916C1094.56 652.602 1099.77 663.033 1104.98 673.465C1110.19 683.896 1114.66 695.073 1119.13 705.505L1119.87 707.74C1121.36 704.014 1122.85 700.289 1124.34 696.563L1122.1 690.603C1118.38 681.661 1114.66 672.72 1110.19 663.779C1105.72 654.837 1101.26 646.641 1096.04 638.445L1093.07 633.974ZM1099.02 631.739C1098.28 631.739 1097.53 632.484 1096.79 632.484L1099.02 636.209C1104.23 644.406 1108.7 653.347 1113.17 662.288C1117.64 671.229 1121.36 680.171 1125.08 689.112L1126.57 692.093C1127.32 690.603 1128.06 689.112 1128.81 688.367L1126.57 683.151C1122.85 674.955 1119.13 666.759 1114.66 658.563C1110.94 651.112 1106.47 642.915 1101.26 635.464L1099.02 631.739ZM1107.96 630.249H1105.72C1104.98 630.249 1103.49 630.249 1102.75 630.994L1104.98 633.974C1110.19 641.425 1114.66 649.621 1118.38 657.073C1122.85 665.269 1126.57 672.72 1130.3 681.661L1131.78 684.642C1136.25 677.19 1140.72 669.739 1145.19 662.288L1142.21 654.837L1135.51 637.7L1132.53 630.249H1107.96ZM1020.84 852.292V845.586C1020.1 814.291 1026.05 744.251 1046.16 691.348C1055.09 668.25 1066.26 648.876 1080.41 636.955C1080.41 636.955 1080.41 636.209 1081.15 636.209C1081.15 636.209 1081.15 636.209 1081.9 636.209C1084.88 633.974 1087.11 632.484 1090.09 630.994C1067.75 637.7 1051.37 661.543 1040.2 692.838C1020.84 744.996 1014.14 815.036 1014.88 845.586V852.292H1020.84ZM1066.26 630.249L1064.03 632.484C1059.56 637.699 1055.09 643.661 1051.37 650.367C1051.37 650.367 1051.37 650.366 1051.37 651.112C1040.94 668.249 1032.75 689.112 1026.8 710.72C1015.63 751.702 1011.16 796.408 1009.67 830.684V835.899H1011.9C1012.65 800.879 1019.35 739.78 1037.22 692.838C1048.39 663.779 1063.28 639.935 1083.39 630.994H1066.26V630.249ZM1049.88 645.896C1053.6 639.935 1057.33 634.719 1061.79 629.503H1037.22C1040.2 633.229 1043.18 636.209 1046.16 639.935C1046.9 642.17 1048.39 644.406 1049.88 645.896ZM1045.41 652.602C1046.16 651.112 1046.9 650.366 1047.65 648.876C1045.41 645.151 1042.43 642.17 1040.2 638.445L1037.22 634.719L1032.01 628.758H1028.29L1029.03 629.503C1032.01 633.229 1034.99 636.209 1037.22 639.19C1039.45 642.17 1042.43 645.896 1044.67 649.622L1045.41 652.602ZM1039.46 664.524C1040.94 661.543 1042.43 659.308 1043.18 656.327L1040.94 652.602C1038.71 648.876 1036.48 645.896 1033.5 642.17C1031.26 639.19 1028.29 636.209 1025.31 632.484L1022.33 629.503H1008.18C1014.14 633.974 1019.35 639.19 1023.82 644.406C1029.03 649.621 1033.5 655.582 1037.22 662.288L1039.46 664.524ZM962.762 630.249C977.654 647.386 988.823 671.229 996.268 695.818C1003.71 718.171 1008.18 742.015 1011.9 762.133C1014.88 744.251 1017.86 726.368 1023.07 709.23C1026.8 695.073 1032.01 681.661 1037.22 668.994L1034.99 665.269C1031.26 659.308 1026.8 653.347 1021.58 648.131C1017.12 642.915 1011.91 637.699 1005.95 633.229L1002.97 630.249H962.762ZM953.082 630.249C970.208 650.366 982.866 678.681 991.056 709.23C999.991 741.27 1004.46 775.545 1007.44 805.35C1008.18 795.663 1008.93 785.977 1010.42 775.545L1009.67 768.839C1006.69 747.231 1001.48 721.152 993.29 696.563C985.099 671.975 974.675 648.876 959.783 632.484L957.55 630.249H953.082ZM933.722 634.719C924.787 644.406 918.086 666.014 912.874 692.093C903.194 741.27 900.216 805.35 900.216 834.409H999.247V829.938C998.502 798.644 992.545 747.231 978.398 704.015C968.718 674.21 954.571 648.131 935.212 635.464L933.722 634.719ZM941.913 630.249C939.679 630.994 938.19 631.739 936.701 632.484C956.805 645.896 971.697 672.72 981.377 703.269C996.268 747.231 1001.48 798.644 1002.23 829.938V835.154H1004.46V829.938C1002.97 795.663 998.502 750.957 987.333 709.975C979.143 680.171 967.229 651.856 950.104 632.484L947.87 630.249H941.913ZM896.493 852.292V845.586C895.748 826.213 898.726 748.721 909.151 691.348C914.363 664.524 921.064 642.17 930.744 631.739V630.994C930.744 630.249 931.489 630.249 932.233 630.249L932.978 629.503H930.744H929.255C916.597 633.229 907.662 659.308 901.705 692.093C890.536 749.466 888.302 826.213 889.047 844.841V851.547H896.493V852.292ZM915.852 630.249L913.618 634.719C904.683 657.072 900.216 683.151 895.748 706.995V708.485L894.259 719.662C893.514 727.113 892.025 735.309 891.281 742.76C892.77 725.623 895.748 708.485 898.726 693.583C903.939 664.524 912.129 640.68 923.298 630.994H915.852V630.249ZM879.367 834.409V829.194C880.112 811.311 876.389 739.78 865.964 687.622C860.008 657.073 851.072 633.229 839.159 630.249H837.67H748.318V835.154L879.367 834.409ZM877.133 734.564C876.389 727.113 875.644 719.662 874.899 712.956C874.155 709.23 873.41 705.505 873.41 701.779C871.921 690.603 869.687 678.681 866.709 667.504C863.73 656.327 860.752 644.406 856.285 634.719L854.051 630.249H846.605C857.029 639.19 864.475 660.798 869.687 687.622C872.666 701.779 874.899 718.917 877.133 734.564ZM888.302 742.015L887.557 736.054C886.068 719.662 883.835 701.034 880.112 682.406C876.389 664.524 871.921 645.896 865.22 630.994L864.475 629.503H857.774L859.263 632.484C863.731 642.915 866.709 654.837 869.687 666.014C872.666 677.936 874.155 689.857 876.389 701.034L877.133 706.25L877.878 712.211C880.112 730.094 882.345 748.721 883.835 767.349C884.579 773.31 884.579 779.271 885.324 785.231C885.324 780.016 886.068 774.8 886.068 769.584C886.068 760.643 886.813 751.702 888.302 742.015ZM868.198 630.249C874.899 645.896 880.112 663.779 883.09 682.406C886.068 697.309 888.302 712.211 889.791 726.368C889.791 724.133 890.536 721.152 890.536 718.917C891.28 714.446 891.281 710.721 892.025 706.25C895.748 682.406 900.216 656.327 909.895 633.229L911.385 630.249H868.198ZM1227.84 836.645V852.292V845.586C1227.84 838.135 1228.58 831.429 1229.33 823.978C1228.58 823.978 1227.84 823.232 1227.84 822.487C1227.84 811.311 1227.09 800.879 1227.09 790.448C1227.09 786.722 1227.09 783.742 1227.09 780.761C1222.63 797.154 1218.9 813.546 1217.41 830.684V835.154H1225.6C1227.09 834.409 1227.84 835.154 1227.84 836.645ZM1241.24 836.645V852.292H1241.98V845.586C1243.47 785.977 1267.3 732.329 1306.02 692.093C1335.06 662.288 1371.54 640.68 1412.5 631.739C1365.59 638.445 1325.38 661.543 1294.85 695.073C1260.6 732.329 1239.75 781.506 1235.28 835.154H1238.26C1240.5 834.409 1241.24 835.154 1241.24 836.645ZM885.324 853.782V838.135H884.579H749.063V853.782C749.063 854.527 748.318 855.272 747.574 855.272H737.149C736.405 855.272 735.66 854.527 735.66 853.782V838.135H601.633H598.655V853.782C598.655 854.527 597.91 855.272 597.165 855.272H596.421H585.252C584.507 855.272 583.763 854.527 583.763 853.782V838.88V838.135H475.796H472.818V853.782C472.818 854.527 472.073 855.272 471.329 855.272H460.904C460.16 855.272 459.415 854.527 459.415 853.782V845.586C459.415 843.35 459.415 841.115 459.415 838.135H381.977V853.782C381.977 854.527 381.233 855.272 380.488 855.272H379.744H370.808C370.064 855.272 369.319 854.527 369.319 853.782V845.586C369.319 843.35 369.319 840.37 369.319 838.135H322.41V853.782C322.41 854.527 321.665 855.272 320.921 855.272H319.431H311.985C311.241 855.272 310.496 854.527 310.496 853.782V845.586C310.496 843.35 310.496 840.37 310.496 838.135H284.435V853.782C284.435 854.527 283.691 855.272 282.946 855.272H280.712H272.522C271.777 855.272 271.033 854.527 271.033 853.782V845.586C271.033 843.35 271.033 840.37 271.033 838.135H259.119V853.782C259.119 854.527 258.375 855.272 257.63 855.272H254.652H250.929C250.184 855.272 249.439 854.527 249.439 853.782V845.586C249.439 843.35 249.439 840.37 249.439 838.135H247.95V853.782C247.95 854.527 247.206 855.272 246.461 855.272H244.227H244.972H247.95H250.184H259.119H262.842H276.989H280.712H286.669H300.072H317.942H325.388H336.557H376.021H384.956H393.891H464.627H474.307H480.264H587.486H597.91H600.144H736.405H741.617H746.829H883.09H886.068H896.493H1003.71H1009.67H1019.35H1090.09H1099.02H1107.21H1147.42H1158.59H1166.04H1183.91H1197.31H1202.52H1206.24H1221.14H1224.86H1234.54H1236.77H1239.75H1240.5H1238.26C1237.52 855.272 1236.77 854.527 1236.77 853.782V838.135H1235.28C1235.28 840.37 1235.28 843.35 1235.28 845.586V853.782C1235.28 854.527 1234.54 855.272 1233.79 855.272H1230.07H1226.35C1225.6 855.272 1224.86 854.527 1224.86 853.782V838.135H1213.69C1213.69 840.37 1213.69 843.35 1213.69 845.586V853.782C1213.69 854.527 1212.95 855.272 1212.2 855.272H1204.01C1203.27 855.272 1202.52 854.527 1202.52 853.782V838.135H1176.46C1176.46 840.37 1176.46 843.35 1176.46 845.586V853.782C1176.46 854.527 1175.72 855.272 1174.97 855.272H1166.04C1165.29 855.272 1164.55 854.527 1164.55 853.782V838.135H1117.64C1117.64 840.37 1117.64 843.35 1117.64 845.586V853.782C1117.64 854.527 1116.89 855.272 1116.15 855.272H1106.47C1105.72 855.272 1104.98 854.527 1104.98 853.782V838.135H1024.56C1024.56 841.115 1024.56 843.35 1024.56 845.586V853.782C1024.56 854.527 1023.82 855.272 1023.07 855.272H1013.39H1012.65C1011.9 855.272 1011.16 854.527 1011.16 853.782V838.135H900.216C900.216 841.115 900.216 843.35 900.216 845.586V853.782C900.216 854.527 899.471 855.272 898.726 855.272H887.557C886.068 856.018 885.324 855.272 885.324 853.782ZM1216.67 610.13H1224.11L1217.41 590.758C1197.31 532.639 1166.78 478.991 1128.06 431.303C1089.34 383.616 1043.18 343.38 990.312 312.831L973.186 303.144V306.87C973.186 307.615 972.441 308.36 971.697 308.36H969.463L972.441 309.85L974.675 311.341L994.035 322.517C1004.46 329.223 1014.88 335.929 1025.31 343.38C1025.31 343.38 1025.31 343.38 1026.05 343.38C1037.22 351.577 1048.39 360.518 1058.81 369.459C1066.26 375.42 1073.71 382.126 1080.41 388.832L1081.9 389.578L1082.64 390.323C1093.81 401.499 1104.23 412.676 1114.66 424.598L1128.81 441.735L1142.95 461.108C1156.36 479.736 1168.27 499.854 1179.44 519.972C1180.18 521.462 1180.93 522.952 1181.67 524.442V525.188C1181.67 525.188 1181.67 525.188 1181.67 525.933C1191.35 546.051 1200.29 566.169 1207.73 586.287L1216.67 610.13ZM1192.84 610.13H1206.99L1186.14 569.894L1187.63 591.502C1188.37 594.483 1189.86 597.464 1190.61 601.189L1192.84 610.13ZM1189.12 610.13L1186.88 602.679C1183.16 589.267 1178.69 575.855 1173.48 562.443V561.698C1169.76 552.757 1166.04 543.816 1162.31 534.874C1171.99 556.482 1180.18 578.836 1186.88 601.934L1189.12 610.13ZM1178.69 610.13H1185.4L1183.16 602.679C1165.29 543.07 1137.74 486.442 1101.26 436.519C1065.52 388.087 1022.33 346.361 970.952 313.576L963.506 308.36H952.337H950.104L952.337 309.85C969.463 320.282 986.589 331.458 1002.23 344.125C1002.23 344.125 1002.97 344.125 1002.97 344.871C1020.84 359.028 1037.97 374.675 1054.35 391.068L1055.09 391.813C1067.01 404.48 1078.92 418.637 1090.09 432.794C1093.07 436.52 1096.04 440.245 1098.28 443.971L1099.02 444.716C1106.47 455.147 1113.17 465.579 1119.87 476.755L1120.62 477.5C1125.08 484.952 1129.55 493.148 1134.02 500.599C1144.44 519.972 1153.38 539.345 1161.57 559.463V560.208C1166.78 572.875 1171.25 586.287 1174.97 598.954V599.699V600.444L1178.69 610.13ZM1146.68 610.13H1175.72L1173.48 602.679V601.934L1151.14 566.914L1146.68 610.13ZM1136.25 610.13H1142.95L1147.42 563.188H1102.75L1136.25 610.13ZM1090.09 610.13H1131.78L1099.77 565.424L1089.34 605.66L1090.09 610.13ZM1075.2 610.13H1082.64L1081.15 602.679C1068.49 546.051 1047.65 488.677 1018.61 436.519C1010.42 421.617 1001.48 407.46 991.801 394.048C991.801 394.048 991.801 394.048 991.801 393.303C980.632 376.91 967.974 362.008 955.316 347.106H944.147C953.082 356.047 961.272 366.479 969.463 376.165C983.61 393.303 996.268 411.931 1007.44 431.303C1009.67 435.029 1011.9 438.754 1014.14 442.48C1014.14 442.48 1014.88 443.226 1014.88 443.971C1022.33 457.383 1029.03 471.54 1035.73 485.697V486.442C1037.97 490.913 1039.45 495.383 1041.69 499.854L1042.43 500.599C1043.92 504.325 1045.41 508.795 1046.9 512.521V513.266C1052.86 528.168 1058.07 543.815 1062.54 559.463C1062.54 559.463 1062.54 559.463 1062.54 560.208C1066.26 573.62 1069.98 587.032 1072.96 601.189L1075.2 610.13ZM1017.12 610.13H1070.73L1034.99 565.424L1017.12 610.13ZM1001.48 610.13H1012.65L1031.26 563.188H962.762L1001.48 610.13ZM935.212 610.13H997.013L959.783 564.679L935.212 610.13ZM930 610.13V602.679C926.277 574.365 921.809 545.306 915.852 516.246V515.501C915.108 511.776 914.363 507.305 913.618 503.579V502.834C909.895 486.442 906.172 469.304 901.705 452.912C900.96 450.677 900.216 448.441 900.216 446.206C900.216 446.206 900.216 446.206 900.216 445.461C896.493 432.794 892.77 420.127 888.302 408.205C876.389 373.93 861.497 341.89 843.626 312.831L840.648 308.36H839.904L841.393 310.595C867.454 352.322 886.068 400.754 900.216 451.422C914.363 502.089 923.298 554.247 929.255 601.934L930 610.13ZM921.064 610.13H926.277L925.532 601.934C919.575 554.247 910.64 502.089 896.493 452.167C882.345 402.244 863.731 353.067 837.67 312.085L834.691 307.615H826.501H825.756L827.245 309.85C834.691 320.282 841.393 331.458 847.349 343.38C848.094 343.38 848.094 344.125 848.094 344.871C854.051 356.792 860.008 368.714 865.22 381.381C866.709 384.362 867.453 387.342 868.943 390.323L869.687 391.068C877.133 409.695 883.835 429.813 889.791 449.186C895.003 468.559 900.216 487.932 904.683 507.305C904.683 508.05 904.683 508.05 904.683 508.795C908.406 525.933 911.385 543.07 914.363 559.463V560.208C916.597 573.62 918.831 587.777 920.32 600.444L921.064 610.13ZM846.605 610.13H913.618L875.644 564.679L846.605 610.13ZM827.99 610.13H842.137L872.666 563.188H790.76L827.99 610.13ZM753.53 610.13H823.522L787.037 564.679L753.53 610.13ZM746.084 610.13H748.318L782.57 563.188H746.084V610.13ZM740.872 610.13H743.106V561.698V502.089V445.461V392.558V345.615V308.36H740.872V345.615V387.342V392.558V445.461V502.089V561.698V610.13ZM734.171 610.13H736.405V563.188H699.919L734.171 610.13ZM659.711 610.13H729.703L696.197 564.679L659.711 610.13ZM641.096 610.13H655.244L692.474 563.188H610.568L641.096 610.13ZM569.615 610.13H636.629L606.845 564.679L569.615 610.13ZM556.957 610.13H562.169L562.914 601.934C564.403 588.522 566.637 575.11 568.871 561.698C568.871 561.698 568.871 561.698 568.871 560.953C568.871 560.208 568.871 560.208 568.871 560.208C571.849 543.07 574.828 526.678 577.806 509.54V508.795C578.551 506.56 578.551 504.324 579.295 502.089V501.344C580.04 498.364 580.784 496.128 580.784 493.148V492.403C583.763 478.246 587.486 464.089 591.209 450.677C601.633 414.166 615.036 379.146 632.906 345.615C632.906 344.87 633.651 344.125 633.651 344.125C639.607 333.694 645.564 323.262 651.521 313.576C651.521 312.831 652.265 312.085 652.265 312.085L653.01 310.595L654.499 308.36H645.564L642.586 312.831C616.525 353.812 597.91 402.244 583.763 452.912C569.615 503.58 560.68 554.992 554.724 602.679L556.957 610.13ZM551.745 610.13L553.234 601.934C559.191 554.247 568.126 502.089 582.273 451.422C596.421 400.754 615.78 351.577 641.841 310.595L643.33 308.36H642.586L639.607 312.831C627.694 331.458 617.269 352.322 608.334 373.185V373.93C606.101 379.891 603.122 385.852 600.888 392.558C600.888 393.303 600.888 393.303 600.144 394.048C598.655 398.519 596.421 402.989 594.932 407.46C594.932 408.205 594.932 408.205 594.187 408.95C589.719 420.872 585.996 432.794 582.273 445.461C582.273 446.206 582.273 446.206 581.529 446.951C580.784 449.186 580.04 450.677 580.04 452.912C577.061 464.834 574.083 476.01 571.105 487.932V488.677C562.169 527.423 555.468 566.169 551 602.679L551.745 610.13ZM486.221 610.13H548.022L523.45 564.679L486.221 610.13ZM469.84 610.13H481.009L519.728 563.188H451.225L469.84 610.13ZM412.506 610.13H466.117L448.246 565.424L412.506 610.13ZM400.592 610.13H408.038L408.783 609.385L410.272 601.934C422.185 549.031 442.29 493.893 469.84 444.716C469.84 444.716 469.84 444.716 469.84 443.971C472.073 440.245 474.307 435.774 476.541 432.049C481.753 422.362 487.71 413.421 493.667 404.48C493.667 404.48 493.667 404.48 493.667 403.735C496.645 399.264 499.623 395.538 502.602 391.068C502.602 391.068 502.602 391.068 502.602 390.323C513.771 374.675 526.429 360.518 539.087 346.361H527.918C503.346 373.185 482.498 402.989 463.883 435.029C434.844 487.187 413.995 544.561 401.337 601.189L400.592 610.13ZM351.449 610.13H393.146L393.891 605.66L383.467 565.424L351.449 610.13ZM340.28 610.13H346.981L381.233 563.188H336.557L340.28 610.13ZM308.262 610.13H336.557L332.834 566.914L310.496 601.934V602.679L308.262 610.13ZM297.838 610.13H304.539L306.773 601.934V601.189V600.444C310.496 587.032 314.964 574.365 320.176 560.953C320.176 560.953 320.176 560.953 320.176 560.208C325.388 547.541 330.6 534.874 336.557 522.952C344.003 507.305 352.194 491.658 361.873 477.5C361.873 477.5 361.873 477.5 361.873 476.755C371.553 461.853 381.233 446.951 392.402 432.794C410.272 409.696 430.376 387.342 451.969 367.969C460.904 359.773 469.84 352.322 478.775 344.871C478.775 344.871 478.775 344.871 479.519 344.871C495.156 332.204 512.282 321.027 529.407 310.595L531.641 309.105H530.152H518.238L510.792 314.321L508.559 315.811C508.559 315.811 508.559 315.811 507.814 316.556L506.325 317.302C457.181 350.086 414.74 391.067 379.744 438.755C343.258 488.677 315.708 544.561 297.838 604.915V610.13ZM294.115 610.13L297.094 601.189C306.029 571.385 317.198 541.58 331.345 514.011C318.687 539.345 308.262 565.424 300.072 592.248C300.072 592.248 300.072 592.248 300.072 592.993C299.327 595.973 297.838 598.954 297.094 602.679L294.115 610.13ZM276.245 610.13H290.392L292.626 601.189C293.371 598.209 294.86 594.483 295.604 591.502L297.094 569.894L276.245 610.13ZM259.119 610.13H266.565L273.266 588.522C276.245 579.581 279.968 569.895 283.691 560.953C283.691 560.953 283.691 560.208 284.435 560.208C288.903 549.031 294.115 538.6 299.327 527.423C299.327 527.423 299.327 527.423 299.327 526.678C303.795 517.737 308.262 509.541 313.475 500.599C313.475 500.599 313.475 499.854 314.219 499.854C325.388 480.481 338.046 461.853 352.194 443.971C352.194 443.226 352.938 443.225 352.938 443.225C354.427 440.99 355.917 438.755 358.15 437.265C370.808 421.617 384.956 405.97 399.103 391.813V391.068C399.103 391.068 399.103 390.323 399.848 390.323L400.592 389.578C417.718 373.185 436.333 357.538 454.948 343.38C454.948 343.38 455.692 343.38 455.692 342.635C465.372 335.184 475.796 328.478 486.965 321.772L504.836 311.341C506.325 310.595 507.814 309.85 508.559 308.36L511.537 306.125H510.792C510.048 306.125 509.303 305.38 509.303 304.635V300.909L492.177 310.595C440.056 341.89 393.146 382.126 354.427 429.813C315.708 476.755 285.925 531.149 265.821 589.267L259.119 610.13ZM240.504 973V859.743H239.76C239.015 859.743 238.27 858.998 238.27 858.253V856.762H235.292C234.548 856.762 233.803 856.018 233.803 855.272L233.058 839.625C229.335 783.741 206.253 733.819 169.023 696.563C132.538 659.308 82.6501 635.464 27.55 631.739L13.4027 630.994H1.48919C0.744595 630.994 0 630.249 0 629.503V613.856C0 613.111 0.744595 612.366 1.48919 612.366H255.396L262.098 591.502C282.202 533.384 312.73 478.991 351.449 431.303C390.168 383.616 437.077 342.635 489.944 311.341L509.303 300.164V290.477C509.303 289.732 510.048 288.987 510.792 288.987H517.494V248.751H516.005C515.26 248.751 514.515 248.006 514.515 247.261V238.32V227.888L513.771 218.947C512.282 201.064 504.091 185.417 492.922 172.75C481.753 160.083 466.117 151.886 448.991 148.161L440.8 147.416H413.25C412.506 147.416 411.761 146.671 411.761 145.926V137.729C411.761 136.984 412.506 136.24 413.25 136.24H538.342L544.299 124.318C549.511 114.631 555.468 105.69 562.169 96.7483V96.0032H562.914C572.594 83.3362 584.507 71.4148 596.421 60.9832C603.867 55.0222 612.057 49.061 620.248 43.8452V43.1003H620.992C635.884 34.1589 651.521 26.7078 667.157 22.2371L673.859 20.002L676.837 19.2568V15.5312C676.837 14.7861 677.582 14.041 678.326 14.041H689.495L693.963 -196.826V-197.571V-198.316L695.452 -250.474L696.941 -302.632C696.941 -302.632 696.941 -302.632 696.941 -303.377C696.941 -303.377 696.941 -303.377 696.941 -304.122L698.43 -357.025L704.387 -623.775C704.387 -623.775 704.387 -623.775 704.387 -624.52V-625.265L705.876 -677.423C705.876 -677.423 705.876 -677.423 705.876 -678.168V-678.913L707.366 -731.071C707.366 -731.071 707.366 -731.071 707.366 -731.816L708.855 -784.719L711.833 -953.114H687.261H664.924C664.179 -953.114 663.434 -953.859 663.434 -954.604V-1019.43C663.434 -1020.17 664.179 -1020.92 664.924 -1020.92H687.261H713.322L714.067 -1052.96L715.556 -1105.12L716.301 -1154.29H680.56V-1158.02H716.301L717.79 -1210.18C717.79 -1210.18 717.79 -1210.18 717.79 -1210.92C717.79 -1210.92 717.79 -1210.92 717.79 -1211.67L719.279 -1264.57L720.024 -1315.98H688.751V-1319.71H720.024C720.024 -1319.71 720.024 -1319.71 720.024 -1320.45C720.024 -1330.14 720.768 -1356.96 720.768 -1368.89H712.578C711.833 -1368.89 711.088 -1369.63 711.088 -1370.38V-1381.55C711.088 -1382.3 711.833 -1383.04 712.578 -1383.04H717.045V-1426.26C717.045 -1427.01 717.79 -1427.75 718.534 -1427.75H725.236V-1533.56C725.236 -1534.3 725.98 -1535.05 726.725 -1535.05H735.66V-1771.25C735.66 -1771.99 736.405 -1772.74 737.149 -1772.74H737.894V-2188.51C737.894 -2189.25 738.639 -2190 739.383 -2190C740.128 -2190 740.872 -2189.25 740.872 -2188.51V-1773.48H741.617C742.361 -1773.48 743.106 -1772.74 743.106 -1771.99V-1536.54H752.041C752.786 -1536.54 753.53 -1535.79 753.53 -1535.05V-1434.46H760.232C760.976 -1434.46 761.721 -1433.71 761.721 -1432.97V-1389.75H766.189C766.933 -1389.75 767.678 -1389 767.678 -1388.26V-1377.08C767.678 -1376.34 766.933 -1375.59 766.189 -1375.59H757.998L758.743 -1327.91V-1326.42H790.016V-1322.69H758.743L759.487 -1271.28C759.487 -1271.28 759.487 -1271.28 759.487 -1270.53C759.487 -1270.53 759.487 -1270.53 759.487 -1269.79L760.976 -1217.63V-1216.88C760.976 -1216.88 760.976 -1216.88 760.976 -1216.14L761.721 -1179.63V-1163.24H797.462V-1159.51H761.721L764.699 -1023.9H790.76H813.098C813.843 -1023.9 814.587 -1023.15 814.587 -1022.41V-957.585C814.587 -956.84 813.843 -956.095 813.098 -956.095H790.76H771.401L772.89 -897.976L774.379 -845.073C774.379 -845.073 774.379 -845.073 774.379 -844.328L775.868 -792.17L784.059 -418.869L785.548 -365.966L793.739 5.84497H804.907C805.652 5.84497 806.397 6.58984 806.397 7.33496V11.0603L816.076 14.041C832.458 19.2568 848.094 25.9626 862.241 34.9041H862.986V35.6494C871.177 40.8652 878.622 46.0806 886.068 52.7866C898.727 63.2183 909.895 75.1401 919.575 87.8071H920.32V88.552C927.021 96.7483 932.233 105.69 937.445 115.376L943.402 127.298H1068.49C1069.24 127.298 1069.98 128.043 1069.98 128.788V136.984C1069.98 137.729 1069.24 138.475 1068.49 138.475H1040.94L1032.75 139.22C1015.63 142.2 999.991 151.141 988.823 163.808C977.654 176.475 969.463 192.123 967.974 210.005L967.229 218.947V229.378V238.32C967.229 239.065 966.485 239.81 965.74 239.81H964.251V280.046H970.952C971.697 280.046 972.441 280.791 972.441 281.536V291.222L991.056 301.654C1043.92 332.949 1090.83 373.185 1129.55 420.872C1168.27 468.559 1198.8 522.952 1218.9 581.816L1225.6 602.679H1479.51C1480.26 602.679 1481 603.425 1481 604.17V619.817C1481 620.562 1480.26 621.307 1479.51 621.307H1469.09L1454.94 622.052C1399.84 625.778 1349.95 649.621 1313.47 686.877C1276.98 724.133 1253.15 774.055 1249.43 829.938L1248.69 845.586C1248.69 846.331 1247.94 847.076 1247.2 847.076H1244.22V848.566C1244.22 849.311 1243.47 850.056 1242.73 850.056H1241.98V963.313H1233.79V850.056H1227.84V963.313H1224.11H1220.39V850.056H1209.22V963.313H1205.5H1201.78V850.056H1199.54V963.313H1195.82V850.056H1186.14V963.313H1182.42V850.056H1167.53V963.313H1163.8V850.056H1160.08V963.313H1156.36V850.056H1148.91V963.313H1145.19V850.056H1108.7V963.313H1106.47V850.056H1101.26V963.313H1097.53V850.056H1092.32V963.313H1088.6V850.056H1021.58V963.313H1017.86V850.056H1011.9V963.313H1008.18V850.056H1005.95V963.313H1002.23V850.056H897.982V963.313H894.259V850.056H887.557V963.313H880.856V850.056H749.063V963.313H745.34V850.056H741.617H738.638V963.313H734.171V850.056H601.633V963.313H594.932V850.056H588.23V963.313H584.507V850.056H481.009V963.313H477.286V850.056H475.052V963.313H471.329V850.056H465.372V963.313H461.649V850.056H394.635V963.313H390.913V850.056H385.7V963.313H381.977V850.056H376.765V963.313H373.042V850.056H336.557V963.313H332.834V850.056H325.388V963.313H321.665V850.056H317.942V963.313H314.219V850.056H299.327V963.313H295.604V850.056H285.925V963.313H282.202V850.056H279.968V963.313H276.245H272.522V850.056H261.353V963.313H257.63V850.056H256.885V963.313H253.162V850.056H247.206V963.313H240.504V973ZM746.084 243.535H821.289H822.033H829.479H892.025H894.259H895.003H900.96H941.168H944.147H944.891H948.614H960.528H963.506H964.251H965.74V238.32H964.251H961.273H952.337H949.359H946.381H943.402H905.428H897.982H895.748H893.514H832.458H825.012H823.522H822.778H747.574H739.383H661.945H660.456H658.967H651.521H590.464H588.23H585.252H579.295H538.342H535.364H532.386H524.195H521.217H518.238V243.535H519.728H520.472H523.45H535.364H538.342H539.087H582.273H588.23H590.464H653.01H660.456H661.945H737.149H746.084Z" fill="#B7B7B7"/>
</svg>
