<svg width="28" height="18" viewBox="0 0 28 18" fill="none" xmlns="http://www.w3.org/2000/svg">
<g clip-path="url(#clip0_1023_8631)">
<rect width="28" height="18" rx="2" fill="#F6F6F6"/>
<path d="M0 0.00585938H28V18.0059H0V0.00585938Z" fill="#F6F6F6"/>
<path d="M12.1956 7.2H0V10.8H12.1956V18H15.9289V10.8H28.1244V7.2H15.9289V0H12.1956V7.2Z" fill="#EB000E"/>
<path d="M21.5287 3.2398L21.2798 1.7998H22.5243L22.2754 3.2398L23.7687 2.9998V4.1998L22.2754 3.9598L22.5243 5.3998H21.2798L21.5287 3.9598L20.0354 4.1998V2.9998L21.5287 3.2398ZM5.72429 3.2398L5.4754 1.7998H6.71985L6.47096 3.2398L7.96429 2.9998V4.1998L6.47096 3.9598L6.71985 5.3998H5.4754L5.72429 3.9598L4.23096 4.1998V2.9998L5.72429 3.2398ZM5.72429 14.0398L5.4754 12.5998H6.71985L6.47096 14.0398L7.96429 13.7998V14.9998L6.47096 14.7598L6.71985 16.1998H5.4754L5.72429 14.7598L4.23096 14.9998V13.7998L5.72429 14.0398ZM21.5287 14.0398L21.2798 12.5998H22.5243L22.2754 14.0398L23.7687 13.7998V14.9998L22.2754 14.7598L22.5243 16.1998H21.2798L21.5287 14.7598L20.0354 14.9998V13.7998L21.5287 14.0398Z" fill="#EB000E"/>
</g>
<defs>
<clipPath id="clip0_1023_8631">
<rect width="28" height="18" rx="2" fill="white"/>
</clipPath>
</defs>
</svg>
