<svg width="16" height="16" viewBox="0 0 16 16" fill="none" xmlns="http://www.w3.org/2000/svg">
<path fill-rule="evenodd" clip-rule="evenodd" d="M8.47124 5.74898C8.34622 5.624 8.17668 5.55379 7.9999 5.55379C7.82313 5.55379 7.65359 5.624 7.52857 5.74898L3.75724 9.52031C3.69356 9.58181 3.64277 9.65537 3.60784 9.73671C3.5729 9.81804 3.55451 9.90552 3.55374 9.99404C3.55297 10.0826 3.56983 10.1703 3.60336 10.2523C3.63688 10.3342 3.68638 10.4086 3.74897 10.4712C3.81157 10.5338 3.886 10.5833 3.96793 10.6169C4.04986 10.6504 4.13765 10.6672 4.22617 10.6665C4.31469 10.6657 4.40217 10.6473 4.48351 10.6124C4.56484 10.5774 4.63841 10.5267 4.6999 10.463L7.9999 7.16298L11.2999 10.463C11.4256 10.5844 11.594 10.6516 11.7688 10.6501C11.9436 10.6486 12.1108 10.5785 12.2344 10.4549C12.3581 10.3313 12.4282 10.164 12.4297 9.98925C12.4312 9.81445 12.364 9.64605 12.2426 9.52031L8.47124 5.74898Z" fill="white"/>
</svg>
