<svg width="24" height="24" viewBox="0 0 24 24" fill="none" xmlns="http://www.w3.org/2000/svg">
<path fill-rule="evenodd" clip-rule="evenodd" d="M24 12C24 18.6274 18.6274 24 12 24C5.37258 24 0 18.6274 0 12C0 5.37258 5.37258 0 12 0C18.6274 0 24 5.37258 24 12ZM17.9614 9.54186C17.9546 9.038 17.8602 8.53916 17.6821 8.06764C17.5278 7.66991 17.292 7.3087 16.9899 7.00709C16.6878 6.70549 16.326 6.47011 15.9276 6.316C15.4614 6.14127 14.9688 6.0468 14.4709 6.03659C13.8299 6.00798 13.6266 6 11.9993 6C10.3721 6 10.1635 6 9.5271 6.03659C9.02943 6.04687 8.5371 6.14135 8.07108 6.316C7.67263 6.47 7.31077 6.70534 7.00864 7.00696C6.70652 7.30859 6.47078 7.66985 6.31653 8.06764C6.14116 8.53274 6.04673 9.02436 6.03732 9.52123C6.00866 10.1619 6 10.3648 6 11.9894C6 13.6139 6 13.8215 6.03732 14.4575C6.04731 14.9551 6.14127 15.4461 6.31653 15.9124C6.47104 16.3101 6.70695 16.6712 7.00918 16.9727C7.3114 17.2742 7.6733 17.5094 8.07175 17.6634C8.5365 17.8451 9.0289 17.9464 9.52777 17.9627C10.1695 17.9914 10.3727 18 12 18C13.6273 18 13.8359 18 14.4722 17.9627C14.9701 17.953 15.4627 17.8587 15.9289 17.684C16.3272 17.5297 16.6889 17.2943 16.991 16.9927C17.2931 16.6911 17.5289 16.33 17.6835 15.9324C17.8587 15.4667 17.9527 14.9757 17.9627 14.4774C17.9913 13.8375 18 13.6346 18 12.0093L18 11.9871C17.9987 10.3828 17.9985 10.1756 17.9614 9.54186ZM11.9953 15.0615C10.2934 15.0615 8.9147 13.6851 8.9147 11.986C8.9147 10.287 10.2934 8.91052 11.9953 8.91052C12.8124 8.91052 13.5959 9.23455 14.1737 9.81132C14.7514 10.3881 15.076 11.1704 15.076 11.986C15.076 12.8017 14.7514 13.584 14.1737 14.1607C13.5959 14.7375 12.8124 15.0615 11.9953 15.0615ZM15.1986 9.51392C15.1042 9.514 15.0108 9.49551 14.9236 9.4595C14.8364 9.4235 14.7572 9.37067 14.6904 9.30406C14.6237 9.23745 14.5708 9.15836 14.5347 9.07131C14.4987 8.98426 14.4801 8.89097 14.4802 8.79676C14.4802 8.70263 14.4988 8.60942 14.5349 8.52245C14.571 8.43548 14.6239 8.35646 14.6905 8.28989C14.7572 8.22333 14.8364 8.17053 14.9235 8.13451C15.0106 8.09848 15.104 8.07994 15.1982 8.07994C15.2925 8.07994 15.3859 8.09848 15.473 8.13451C15.5601 8.17053 15.6393 8.22333 15.706 8.28989C15.7726 8.35646 15.8255 8.43548 15.8616 8.52245C15.8977 8.60942 15.9163 8.70263 15.9163 8.79676C15.9163 9.19326 15.5951 9.51392 15.1986 9.51392ZM14 12C14 13.1046 13.1046 14 12 14C10.8955 14 10 13.1046 10 12C10 10.8954 10.8955 10 12 10C13.1046 10 14 10.8954 14 12Z" fill="white"/>
</svg>
