<svg width="24" height="24" viewBox="0 0 24 24" fill="none" xmlns="http://www.w3.org/2000/svg">
<path d="M11.9995 0.47998C5.63709 0.47998 0.479492 5.63758 0.479492 12C0.479492 18.3624 5.63709 23.52 11.9995 23.52C18.3619 23.52 23.5195 18.3624 23.5195 12C23.5195 5.63758 18.3619 0.47998 11.9995 0.47998ZM9.17949 16.7748H6.84669V9.26758H9.17949V16.7748ZM7.99869 8.34598C7.26189 8.34598 6.78549 7.82398 6.78549 7.17838C6.78549 6.51958 7.27629 6.01318 8.02869 6.01318C8.78109 6.01318 9.24189 6.51958 9.25629 7.17838C9.25629 7.82398 8.78109 8.34598 7.99869 8.34598ZM17.6995 16.7748H15.3667V12.6144C15.3667 11.646 15.0283 10.9884 14.1847 10.9884C13.5403 10.9884 13.1575 11.4336 12.9883 11.862C12.9259 12.0144 12.9103 12.2304 12.9103 12.4452V16.7736H10.5763V11.6616C10.5763 10.7244 10.5463 9.94078 10.5151 9.26638H12.5419L12.6487 10.3092H12.6955C13.0027 9.81958 13.7551 9.09718 15.0139 9.09718C16.5487 9.09718 17.6995 10.1256 17.6995 12.336V16.7748Z" fill="white"/>
</svg>
