<svg width="9" height="13" viewBox="0 0 9 13" fill="none" xmlns="http://www.w3.org/2000/svg">
<path d="M4.11068 6.20829C3.7239 6.20829 3.35297 6.05465 3.07948 5.78116C2.80599 5.50767 2.65234 5.13673 2.65234 4.74996C2.65234 4.36319 2.80599 3.99225 3.07948 3.71876C3.35297 3.44527 3.7239 3.29163 4.11068 3.29163C4.49745 3.29163 4.86838 3.44527 5.14187 3.71876C5.41537 3.99225 5.56901 4.36319 5.56901 4.74996C5.56901 4.94147 5.53129 5.13111 5.458 5.30804C5.38471 5.48497 5.27729 5.64574 5.14187 5.78116C5.00646 5.91658 4.84569 6.024 4.66876 6.09728C4.49182 6.17057 4.30219 6.20829 4.11068 6.20829ZM4.11068 0.666626C3.02771 0.666626 1.9891 1.09683 1.22332 1.86261C0.457551 2.62838 0.0273438 3.66699 0.0273438 4.74996C0.0273438 7.81246 4.11068 12.3333 4.11068 12.3333C4.11068 12.3333 8.19401 7.81246 8.19401 4.74996C8.19401 3.66699 7.7638 2.62838 6.99803 1.86261C6.23226 1.09683 5.19364 0.666626 4.11068 0.666626Z" fill="white"/>
</svg>
