<svg width="64" height="64" viewBox="0 0 64 64" fill="none" xmlns="http://www.w3.org/2000/svg">
<path d="M25.6215 4.04525C27.6748 3.57859 29.8082 3.33325 32.0002 3.33325C47.8322 3.33325 60.6668 16.1679 60.6668 31.9999C60.6668 47.8319 47.8322 60.6666 32.0002 60.6666C29.8082 60.6666 27.6748 60.4213 25.6215 59.9546C25.3653 59.8965 25.1231 59.7884 24.9087 59.6367C24.6943 59.485 24.5119 59.2925 24.3718 59.0702C24.2318 58.848 24.1369 58.6003 24.0926 58.3414C24.0483 58.0825 24.0554 57.8174 24.1135 57.5613C24.1716 57.3051 24.2796 57.0629 24.4314 56.8485C24.5831 56.634 24.7756 56.4516 24.9978 56.3116C25.2201 56.1715 25.4677 56.0767 25.7266 56.0323C25.9856 55.988 26.2507 55.9951 26.5068 56.0533C30.1185 56.874 33.8686 56.871 37.4789 56.0443C41.0892 55.2176 44.467 53.5885 47.3616 51.2779C50.2563 48.9673 52.5934 46.0345 54.1996 42.6972C55.8058 39.3599 56.6399 35.7037 56.6399 31.9999C56.6399 28.2962 55.8058 24.64 54.1996 21.3026C52.5934 17.9653 50.2563 15.0325 47.3616 12.7219C44.467 10.4113 41.0892 8.78223 37.4789 7.95554C33.8686 7.12886 30.1185 7.12579 26.5068 7.94659C25.9895 8.06399 25.4467 7.97107 24.9978 7.68826C24.549 7.40546 24.2309 6.95593 24.1135 6.43859C23.9961 5.92124 24.089 5.37844 24.3718 4.9296C24.6546 4.48076 25.1041 4.16265 25.6215 4.04525ZM19.5042 8.35192C19.7866 8.8007 19.8792 9.34327 19.7617 9.86032C19.6442 10.3774 19.3261 10.8266 18.8775 11.1093C15.7399 13.0863 13.0855 15.7416 11.1095 18.8799C10.8266 19.329 10.3769 19.6473 9.85928 19.7649C9.34168 19.8824 8.7986 19.7895 8.3495 19.5066C7.9004 19.2237 7.58207 18.774 7.46455 18.2564C7.34703 17.7388 7.43993 17.1957 7.72283 16.7466C10.0187 13.1027 13.1023 10.02 16.7468 7.72525C16.9692 7.58501 17.2169 7.48996 17.476 7.44555C17.7351 7.40115 18.0004 7.40825 18.2567 7.46645C18.5131 7.52465 18.7554 7.63281 18.9699 7.78475C19.1844 7.93669 19.3642 8.12942 19.5042 8.35192ZM7.94683 26.5066C8.06423 25.9892 7.97131 25.4464 7.68851 24.9976C7.4057 24.5488 6.95618 24.2307 6.43883 24.1133C5.92148 23.9958 5.37868 24.0888 4.92985 24.3716C4.48101 24.6544 4.1629 25.1039 4.0455 25.6213C3.57883 27.6746 3.3335 29.8079 3.3335 31.9999C3.3335 34.1919 3.57883 36.3253 4.0455 38.3813C4.16325 38.8986 4.4817 39.348 4.93079 39.6305C5.37988 39.9131 5.92281 40.0057 6.44016 39.8879C6.95751 39.7702 7.40689 39.4517 7.68945 39.0026C7.972 38.5535 8.06459 38.0106 7.94683 37.4933C7.53795 35.6908 7.33222 33.8482 7.3335 31.9999C7.3335 30.1093 7.54683 28.2719 7.94683 26.5066ZM8.35216 44.4959C8.80095 44.2135 9.34351 44.1209 9.86057 44.2384C10.3776 44.3559 10.8269 44.674 11.1095 45.1226C13.0857 48.26 15.7401 50.9144 18.8775 52.8906C19.0999 53.0307 19.2925 53.2132 19.4443 53.4277C19.5962 53.6422 19.7043 53.8845 19.7624 54.1408C19.8206 54.3971 19.8278 54.6623 19.7835 54.9214C19.7391 55.1804 19.6442 55.4282 19.5042 55.6506C19.3641 55.873 19.1816 56.0656 18.9671 56.2174C18.7526 56.3692 18.5102 56.4773 18.254 56.5355C17.7363 56.6531 17.1933 56.5602 16.7442 56.2773C13.1016 53.9818 10.0199 50.8991 7.7255 47.2559C7.58525 47.0336 7.49021 46.7858 7.4458 46.5267C7.40139 46.2676 7.40849 46.0023 7.46669 45.746C7.5249 45.4897 7.63306 45.2473 7.78499 45.0328C7.93693 44.8183 8.12966 44.6359 8.35216 44.4959Z" fill="#F8F8F8"/>
<path d="M41.104 29.1759C43.1867 30.4079 43.1867 33.5919 41.104 34.8239L28.5173 42.2559C26.4907 43.4506 24 41.8932 24 39.4292V24.5706C24 22.1066 26.4907 20.5519 28.5173 21.7466L41.104 29.1759Z" fill="#F8F8F8"/>
</svg>
