<svg width="48" height="43" viewBox="0 0 48 43" fill="none" xmlns="http://www.w3.org/2000/svg">
<path d="M42.4998 42.5C43.7265 42.5 44.9028 42.0127 45.7702 41.1454C46.6376 40.278 47.1248 39.1016 47.1248 37.875V26.5807C47.1248 25.3541 46.6376 24.1777 45.7702 23.3104C44.9028 22.443 43.7265 21.9557 42.4998 21.9557H36.0803C36.0803 20.3324 36.1774 18.7044 36.3671 17.081C36.6538 15.3605 37.1348 13.8296 37.8008 12.493C38.4715 11.1518 39.3317 10.1019 40.3862 9.33412C41.4361 8.47388 42.7727 8.04375 44.4007 8.04375V0.875C41.7228 0.875 39.3826 1.4485 37.3707 2.5955C35.3763 3.73087 33.6616 5.29859 32.3526 7.1835C31.0387 9.26158 30.0703 11.5388 29.4851 13.9268C28.8953 16.5619 28.6067 19.2555 28.6248 21.9557V37.875C28.6248 39.1016 29.1121 40.278 29.9795 41.1454C30.8468 42.0127 32.0232 42.5 33.2498 42.5H42.4998ZM14.7498 42.5C15.9765 42.5 17.1528 42.0127 18.0202 41.1454C18.8875 40.278 19.3748 39.1016 19.3748 37.875V26.5807C19.3748 25.3541 18.8875 24.1777 18.0202 23.3104C17.1528 22.443 15.9765 21.9557 14.7498 21.9557H8.33033C8.33033 20.3324 8.42745 18.7044 8.61707 17.081C8.90382 15.3605 9.38483 13.8296 10.0508 12.493C10.7215 11.1518 11.5817 10.1019 12.6362 9.33412C13.6861 8.47388 15.0227 8.04375 16.6507 8.04375V0.875C13.9728 0.875 11.6326 1.4485 9.6207 2.5955C7.62634 3.73087 5.91165 5.29859 4.60257 7.1835C3.28873 9.26158 2.32034 11.5388 1.73508 13.9268C1.14532 16.5619 0.856723 19.2555 0.874825 21.9557V37.875C0.874825 39.1016 1.3621 40.278 2.22946 41.1454C3.09681 42.0127 4.2732 42.5 5.49983 42.5H14.7498Z" fill="#214177"/>
</svg>
