<svg width="757" height="1874" viewBox="0 0 757 1874" fill="none" xmlns="http://www.w3.org/2000/svg">
<path opacity="0.12" d="M710.344 1245.13L696.941 1210.85L661.945 1245.13H710.344ZM603.867 1245.13L613.547 1212.34L563.659 1245.13H603.867ZM516.749 1245.13L544.299 1215.32L492.177 1245.13H516.749ZM786.293 1210.85L772.89 1245.13H822.033L786.293 1210.85ZM870.432 1211.6L880.112 1244.38H920.32L870.432 1211.6ZM938.935 1215.32L966.485 1245.13H990.312L938.935 1215.32ZM492.177 1240.65L547.278 1209.36H540.576L532.386 1213.83C518.238 1222.03 504.836 1230.97 492.177 1240.65ZM693.218 1461.21L657.478 1406.81L612.057 1461.21H693.218ZM452.714 1461.21H521.217L501.113 1406.81L452.714 1461.21ZM413.25 1503.68L444.523 1464.19H423.675C419.952 1477.6 416.229 1491.01 413.25 1503.68ZM554.724 1464.93H527.173L548.767 1505.91V1503.68C551 1490.27 552.49 1477.6 554.724 1464.93ZM562.169 1422.46L527.918 1461.21H554.724C556.957 1448.54 559.191 1435.13 562.169 1422.46ZM425.164 1461.21H446.013L437.822 1422.46C433.354 1435.13 428.887 1447.8 425.164 1461.21ZM338.046 1461.21H382.722L380.488 1408.3L338.046 1461.21ZM314.964 1489.52L330.6 1464.19H323.899C320.921 1473.13 317.942 1481.33 314.964 1489.52ZM397.614 1507.4L398.358 1502.93C402.081 1488.03 405.804 1472.38 410.272 1457.48C405.804 1473.13 401.337 1488.03 397.614 1503.68V1507.4ZM404.315 1464.93H386.445L395.38 1499.21C398.358 1488.03 401.337 1476.11 404.315 1464.93ZM416.229 1429.17L388.679 1461.21H405.804C408.783 1450.03 412.506 1439.6 416.229 1429.17ZM325.388 1461.21H332.834L335.812 1436.62C332.089 1444.82 328.367 1453.01 325.388 1461.21ZM276.989 1490.27L272.522 1510.39L296.349 1464.19H287.414C283.691 1473.13 280.712 1481.33 276.989 1490.27ZM305.284 1464.93H300.816L300.072 1479.84C301.561 1474.62 303.795 1469.4 305.284 1464.93ZM311.985 1448.54L303.05 1460.46H306.773C308.262 1456.74 309.752 1453.01 311.985 1448.54ZM288.903 1461.21H297.838L311.241 1417.25L303.05 1430.66C298.583 1440.34 293.371 1450.78 288.903 1461.21ZM790.016 1461.21H871.921L826.501 1406.81L790.016 1461.21ZM746.084 1461.21H782.57L746.084 1412.78V1461.21ZM962.017 1461.21H1030.52L982.121 1406.81L962.017 1461.21ZM1100.51 1461.21H1145.19L1102.75 1408.3L1100.51 1461.21ZM1184.65 1461.21H1193.59C1189.12 1450.78 1183.91 1440.34 1178.69 1429.91L1170.5 1416.5L1184.65 1461.21ZM1195.82 1464.93H1186.88L1210.71 1511.13L1206.24 1491.01C1206.24 1491.01 1206.24 1491.01 1206.24 1490.27C1202.52 1482.07 1199.54 1473.13 1195.82 1464.93ZM573.338 1461.21H604.611L581.529 1416.5C577.806 1431.4 575.572 1446.31 573.338 1461.21ZM565.892 1510.39L603.867 1464.93H572.594C570.36 1478.35 568.871 1491.01 566.637 1504.42L565.892 1510.39ZM699.175 1347.95H629.928L657.478 1399.36L699.175 1347.95ZM631.417 1344.23H699.919L673.859 1296.54L631.417 1344.23ZM551.745 1347.95H493.667L502.602 1399.36L551.745 1347.95ZM496.645 1344.23H553.979L548.022 1297.28L496.645 1344.23ZM432.61 1347.95H395.38L384.956 1397.13L432.61 1347.95ZM399.103 1344.23H435.588L449.736 1298.77L399.103 1344.23ZM377.51 1362.11L390.168 1347.95H387.19C383.467 1352.42 380.488 1357.64 377.51 1362.11ZM353.683 1401.6H381.233L391.657 1352.42L366.341 1379.99C361.129 1387.44 357.406 1394.15 353.683 1401.6ZM378.254 1405.32H351.449C347.726 1412.03 344.003 1418.74 341.025 1426.19L337.302 1457.48L378.254 1405.32ZM425.164 1405.32H384.211L386.445 1458.23L419.952 1419.48C421.441 1415.01 422.93 1409.8 425.164 1405.32ZM434.844 1382.23L435.588 1350.93L386.445 1401.6H426.653C428.887 1394.89 431.865 1388.19 434.844 1382.23ZM451.225 1347.95H439.311L438.567 1373.28C442.29 1365.09 446.757 1356.89 451.225 1347.95ZM463.883 1324.85L441.545 1344.97H452.714C454.203 1341.99 455.692 1339.01 457.926 1336.03C460.16 1331.56 462.394 1328.58 463.883 1324.85ZM482.498 1295.79H454.203L440.056 1341.24L469.84 1314.42C474.307 1307.71 478.775 1301.75 482.498 1295.79ZM508.559 1261.52L513.026 1252.58L459.415 1292.07H486.221C492.922 1281.64 500.368 1271.2 508.559 1261.52ZM519.728 1248.85H518.238L516.749 1251.83C518.238 1251.09 518.983 1249.6 519.728 1248.85ZM527.173 1268.22L552.49 1248.85H545.044C538.342 1254.81 533.13 1261.52 527.173 1268.22ZM507.814 1292.07H547.278L554.724 1251.09L516.749 1280.15C513.771 1284.62 510.792 1288.34 507.814 1292.07ZM497.39 1306.97L494.411 1341.24L545.044 1295.05H506.325C502.602 1299.52 499.623 1303.24 497.39 1306.97ZM474.307 1344.23H489.944L492.922 1313.68C488.454 1321.13 483.987 1327.83 479.519 1335.28C477.286 1338.26 475.796 1341.24 474.307 1344.23ZM455.692 1380.74L486.965 1348.7H472.073C466.117 1358.38 460.904 1369.56 455.692 1380.74ZM446.757 1401.6H499.623L490.688 1350.19L451.225 1390.42C449.736 1394.15 448.246 1397.87 446.757 1401.6ZM497.39 1405.32H445.268C443.779 1409.05 442.29 1412.78 440.8 1416.5L449.736 1458.97L497.39 1405.32ZM565.148 1405.32H504.091L524.195 1459.72L562.914 1415.76C563.659 1412.03 564.403 1408.3 565.148 1405.32ZM568.871 1388.19L554.724 1349.44L504.836 1400.85H565.148C567.382 1397.13 568.126 1392.66 568.871 1388.19ZM579.295 1347.95H558.446L570.36 1381.48C572.594 1371.79 575.572 1361.36 577.806 1351.68L579.295 1347.95ZM589.719 1315.91L560.68 1344.97H580.784C583.018 1334.54 586.741 1324.85 589.719 1315.91ZM596.421 1295.79H551L556.957 1342.74L591.953 1308.46C593.442 1303.99 594.932 1299.52 596.421 1295.79ZM605.356 1273.44L603.122 1250.34L553.979 1292.07H597.91C600.144 1285.36 603.122 1279.4 605.356 1273.44ZM617.269 1248.85H606.845L608.334 1266.73C611.313 1260.77 614.291 1254.81 617.269 1248.85ZM624.715 1233.95L610.568 1245.13H619.503C620.992 1241.4 622.482 1237.67 624.715 1233.95ZM608.334 1242.15L629.183 1225.75C632.161 1221.28 634.395 1216.81 637.374 1212.34L638.863 1210.11H617.269L608.334 1242.15ZM559.191 1248.85L551.745 1289.09L600.144 1248.85H559.191ZM576.317 1219.79L562.914 1240.65L609.824 1209.36H588.975L583.018 1213.83C581.529 1215.32 579.295 1217.56 576.317 1219.79ZM548.767 1245.13H556.957L568.126 1227.24C560.68 1232.46 554.723 1238.42 548.767 1245.13ZM531.641 1245.13H542.81C552.49 1235.44 562.914 1225.75 573.338 1217.56C573.338 1216.81 574.083 1216.81 574.083 1216.81C576.317 1215.32 578.551 1213.09 580.784 1211.6L583.018 1210.11H582.273H569.615L563.659 1214.58C553.234 1223.52 542.065 1233.95 531.641 1245.13ZM527.173 1238.42L531.641 1235.44C539.832 1227.24 548.767 1219.05 557.702 1210.85L559.936 1208.62H553.979L527.173 1238.42ZM486.221 1248.85L460.904 1286.11L511.537 1248.85H486.221ZM434.099 1292.07H452.714L478.03 1254.81L455.692 1271.2C448.246 1277.91 440.8 1284.62 434.099 1292.07ZM411.761 1316.66L400.592 1338.26L448.991 1295.05H431.121C423.675 1302.5 417.718 1309.21 411.761 1316.66ZM389.423 1344.23H393.146L400.592 1330.07C399.103 1332.3 397.614 1333.79 396.125 1336.03C393.891 1339.01 391.657 1341.24 389.423 1344.23ZM332.089 1405.32H318.687L303.795 1453.01L317.942 1433.64C322.41 1423.95 326.877 1414.27 332.089 1405.32ZM355.917 1364.34L358.895 1356.89L321.665 1401.6H334.323C340.28 1388.93 347.726 1376.27 355.917 1364.34ZM407.294 1295.79H402.081L375.276 1333.05L377.51 1330.81C387.934 1318.89 397.614 1306.97 407.294 1295.79ZM419.952 1281.64L406.549 1291.32H410.272C413.995 1288.34 416.973 1285.36 419.952 1281.64ZM358.15 1344.23H363.362L386.445 1311.44C377.51 1321.13 369.319 1330.81 361.129 1340.5C360.384 1341.99 359.639 1343.48 358.15 1344.23ZM332.834 1379.99L329.111 1385.95L360.384 1347.95H355.172C347.726 1358.38 340.28 1368.81 332.834 1379.99ZM783.314 1344.23H851.817L809.375 1296.54L783.314 1344.23ZM852.562 1347.95H784.059L825.756 1399.36L852.562 1347.95ZM773.635 1248.85L808.63 1290.58L823.522 1248.85H773.635ZM746.084 1210.85L769.167 1242.89L782.57 1209.36H746.084V1210.85ZM746.084 1245.13H766.189L746.084 1217.56V1245.13ZM746.084 1282.38L766.189 1248.85H746.084V1282.38ZM746.084 1292.07H804.907L769.911 1250.34L746.084 1289.83V1292.07ZM746.084 1297.28L779.591 1342.74L805.652 1295.05H746.084V1297.28ZM746.084 1344.23H776.613L746.084 1303.24V1344.23ZM746.084 1392.66L776.613 1347.95H746.084V1392.66ZM746.084 1401.6H822.033L780.336 1349.44L746.084 1399.36V1401.6ZM822.033 1405.32H746.084V1406.81L786.293 1459.72L822.033 1405.32ZM929.255 1344.23H986.589L935.212 1297.28L929.255 1344.23ZM988.823 1347.95H931.489L980.632 1399.36L988.823 1347.95ZM1047.65 1344.23H1084.13L1033.5 1298.77L1047.65 1344.23ZM1087.85 1347.95H1050.62L1098.28 1397.13L1087.85 1347.95ZM971.697 1248.85L1022.33 1286.11L997.013 1248.85H971.697ZM883.09 1248.85L931.489 1289.09L924.043 1248.85H883.09ZM1119.87 1344.23H1125.08L1113.17 1330.07C1107.96 1324.11 1102.75 1318.15 1096.79 1312.19L1119.87 1344.23ZM1127.32 1347.95H1122.1L1153.38 1385.95L1149.66 1379.99C1146.68 1375.52 1143.7 1371.05 1140.72 1366.58L1127.32 1347.95ZM659.711 1248.85L674.603 1290.58L708.855 1248.85H659.711ZM657.478 1215.32L658.967 1242.15L693.218 1208.62H661.945L658.967 1213.09L657.478 1215.32ZM639.607 1245.13H655.244L653.755 1220.54C649.287 1228.73 644.075 1236.93 639.607 1245.13ZM623.971 1276.42L653.01 1248.11H638.118C632.906 1257.79 628.438 1266.73 623.971 1276.42ZM617.269 1292.07H671.625L656.733 1250.34L620.248 1286.11C619.503 1287.6 618.759 1289.83 617.269 1292.07ZM613.547 1301.75L627.694 1342.74L670.136 1295.79H616.525C615.036 1297.28 614.291 1299.52 613.547 1301.75ZM599.399 1344.23H624.715L611.313 1306.97C606.845 1319.64 603.122 1331.56 599.399 1344.23ZM587.486 1388.19L623.226 1348.7H597.91L596.421 1353.17C593.442 1364.34 590.464 1376.27 587.486 1388.19ZM584.507 1401.6H654.499L626.949 1349.44L585.996 1395.64C585.252 1397.13 584.507 1399.36 584.507 1401.6ZM653.755 1405.32H583.763L582.273 1411.29L607.59 1459.72L653.755 1405.32ZM737.149 1210.85V1209.36H700.664L714.067 1242.89L737.149 1210.85ZM737.149 1245.13V1217.56L717.045 1245.13H737.149ZM737.149 1282.38V1248.85H716.301L737.149 1282.38ZM737.149 1292.07V1289.09L713.322 1249.6L678.326 1291.32L737.149 1292.07ZM737.149 1297.28V1295.79H677.582L703.643 1343.48L737.149 1297.28ZM737.149 1344.23V1303.24L706.621 1344.23H737.149ZM737.149 1392.66V1347.95H706.621L737.149 1392.66ZM737.149 1401.6V1399.36L702.898 1349.44L661.201 1401.6H737.149ZM737.149 1406.81V1405.32H661.201L696.941 1459.72L737.149 1406.81ZM737.149 1461.21V1412.78L700.664 1461.21H737.149ZM928.51 1464.93C930.744 1477.6 932.233 1491.01 933.722 1503.68V1505.91L955.316 1464.93H928.51ZM921.064 1422.46C923.298 1435.13 925.532 1448.54 927.766 1461.21H955.316L921.064 1422.46ZM917.341 1405.32C918.086 1409.05 918.831 1412.03 919.575 1415.76L958.294 1459.72L978.398 1405.32H917.341ZM914.363 1388.93C915.108 1393.4 916.597 1397.13 917.341 1401.6H977.654L927.766 1350.19L914.363 1388.93ZM903.939 1347.95L905.428 1352.42C908.406 1362.11 910.64 1372.54 912.874 1382.23L924.787 1347.95H903.939ZM893.514 1315.17C896.493 1324.85 899.471 1334.54 902.449 1344.23H922.554L893.514 1315.17ZM886.068 1295.79C887.558 1299.52 889.047 1303.99 890.536 1307.71L925.532 1342.74L931.489 1295.79H886.068ZM877.878 1274.18C880.112 1280.15 883.09 1286.11 885.324 1292.07H929.255L880.112 1250.34L877.878 1274.18ZM865.964 1248.85C868.943 1254.81 871.921 1260.77 874.155 1267.48L875.644 1248.85H865.964ZM858.518 1233.2C860.752 1236.93 862.241 1240.65 864.475 1244.38H873.41L858.518 1233.2ZM844.371 1209.36L845.86 1211.6C848.839 1216.07 851.072 1220.54 854.051 1225.01L874.899 1241.4L865.22 1208.62H844.371V1209.36ZM1078.92 1464.93C1082.64 1476.86 1085.62 1488.03 1087.85 1499.95L1096.79 1464.93L1098.28 1464.19L1097.53 1464.93H1078.92ZM1067.01 1429.17C1070.73 1439.6 1074.45 1450.03 1077.43 1461.21H1094.56L1067.01 1429.17ZM1058.07 1405.32C1060.3 1409.8 1061.79 1415.01 1063.28 1419.48L1096.79 1458.23L1099.02 1405.32H1058.07ZM1048.39 1382.23C1051.37 1388.19 1053.6 1394.89 1056.58 1401.6H1096.79L1047.65 1350.93L1048.39 1382.23ZM1032.01 1347.95C1036.48 1356.15 1040.94 1365.09 1044.67 1374.03L1043.92 1347.95H1032.01ZM1019.35 1324.85C1021.58 1328.58 1023.82 1332.3 1026.05 1336.03C1027.54 1339.01 1029.03 1341.99 1030.52 1344.97H1041.69L1019.35 1324.85ZM999.991 1295.79C1004.46 1301.75 1008.18 1308.46 1012.65 1314.42L1042.43 1340.5L1028.29 1295.05H999.991V1295.79ZM973.931 1260.77C982.121 1270.46 990.312 1280.89 997.758 1291.32H1023.82L970.208 1251.83L973.931 1260.77ZM963.506 1248.85C964.251 1249.6 965.74 1251.09 966.485 1251.83L964.995 1248.85H963.506ZM922.554 1209.36L924.787 1211.6C933.722 1219.05 942.658 1227.99 951.593 1236.18L956.06 1239.16L928.51 1210.11L922.554 1209.36ZM1177.95 1464.93C1179.44 1469.4 1181.67 1474.62 1183.16 1479.84L1182.42 1464.93H1177.95ZM1171.99 1449.29C1173.48 1453.01 1174.97 1456.74 1176.46 1461.21H1180.18L1171.99 1449.29ZM1151.14 1405.32C1156.36 1415.01 1160.82 1424.7 1165.29 1434.38L1178.69 1453.01L1164.55 1405.32H1151.14ZM1127.32 1363.6C1135.51 1376.27 1142.95 1388.93 1149.66 1401.6H1162.31L1125.08 1356.15L1127.32 1363.6ZM1075.2 1295.79C1085.62 1306.97 1095.3 1318.89 1104.23 1331.56L1106.47 1333.79L1080.41 1296.54L1079.66 1295.79H1075.2ZM1063.28 1281.64C1066.26 1284.62 1069.24 1288.34 1072.22 1291.32H1075.94L1063.28 1281.64ZM991.056 1240.65C978.398 1230.97 964.995 1222.03 950.848 1213.83L943.402 1209.36H936.701L991.056 1240.65ZM1049.13 1292.07C1042.43 1285.36 1035.73 1278.66 1028.29 1271.95L1005.95 1255.56L1031.26 1292.81L1049.13 1292.07ZM1071.47 1315.91C1065.52 1308.46 1059.56 1301.75 1052.86 1295.05H1034.99L1083.39 1338.26L1071.47 1315.91ZM1093.81 1344.23C1091.58 1341.24 1089.34 1338.26 1087.11 1335.28C1085.62 1333.79 1084.13 1331.56 1082.64 1330.07L1090.09 1344.23H1093.81ZM1105.72 1361.36C1102.75 1356.89 1099.77 1352.42 1096.04 1347.95H1093.07L1105.72 1361.36ZM1129.55 1401.6C1125.83 1394.15 1121.36 1387.44 1116.89 1379.99L1092.32 1352.42L1102.75 1401.6H1129.55ZM1142.21 1425.44C1139.23 1418.74 1135.51 1412.03 1131.78 1405.32H1104.98L1146.68 1456.74L1142.21 1425.44ZM1157.85 1461.21C1154.87 1453.01 1151.14 1444.82 1147.42 1436.62L1151.14 1461.21H1157.85ZM1168.27 1489.52C1165.29 1481.33 1162.31 1473.13 1159.33 1464.19H1152.63L1168.27 1489.52ZM906.917 1219.79C904.683 1217.56 902.449 1216.07 899.471 1213.83L893.514 1209.36H872.666L919.575 1240.65L906.917 1219.79ZM934.467 1245.13C928.51 1239.16 921.809 1233.2 915.108 1227.24L926.277 1245.13H934.467ZM956.06 1267.48C950.103 1260.77 944.891 1254.81 938.935 1248.11H931.489L956.06 1267.48ZM974.675 1292.07C971.697 1288.34 968.718 1284.62 965.74 1280.89L927.766 1251.83L935.212 1292.81H974.675V1292.07ZM985.844 1306.97C982.866 1303.24 980.632 1299.52 977.654 1295.05H938.935L989.567 1341.24L985.844 1306.97ZM1008.93 1344.23C1007.44 1341.24 1005.2 1338.26 1003.71 1335.28C999.247 1327.83 994.779 1320.38 990.312 1313.68L993.29 1344.97H1008.93V1344.23ZM1027.54 1379.99C1022.33 1368.81 1017.12 1358.38 1011.16 1347.95H995.524L1027.54 1379.99ZM1036.48 1401.6C1034.99 1397.87 1033.5 1394.15 1031.26 1390.42L991.801 1350.19L982.866 1401.6H1036.48ZM1042.43 1416.5C1040.94 1412.78 1039.45 1409.05 1037.97 1405.32H985.844L1033.5 1458.97L1042.43 1416.5ZM1058.07 1461.21C1054.35 1448.54 1049.88 1435.87 1044.67 1422.46L1036.48 1461.21H1058.07ZM1069.98 1504.42C1067 1491.01 1063.28 1478.35 1059.56 1464.93H1038.71L1069.98 1504.42ZM899.471 1209.36L901.705 1210.85C903.939 1212.34 906.172 1214.58 908.406 1216.07C909.151 1216.07 909.151 1216.81 909.151 1216.81C919.575 1225.75 929.999 1234.69 939.679 1244.38H950.848C940.424 1233.2 930 1223.52 918.831 1213.83L912.874 1209.36H900.216H899.471ZM825.756 1215.32L824.267 1213.83L821.289 1209.36H789.271L823.522 1242.89L825.756 1215.32ZM843.626 1245.13C839.159 1236.93 833.947 1228.73 828.735 1220.54L827.245 1245.13H843.626ZM859.263 1276.42C854.795 1266.73 850.328 1257.79 845.86 1248.11H830.224L859.263 1276.42ZM865.22 1292.07C864.475 1289.83 863.731 1287.6 862.241 1285.36L825.756 1250.34L810.864 1292.07H865.22ZM869.687 1301.75C868.943 1299.52 868.198 1297.28 867.453 1295.79H813.843L855.54 1342.74L869.687 1301.75ZM883.835 1344.23C880.112 1331.56 875.644 1318.89 871.176 1306.97L857.774 1344.23H883.835ZM895.748 1388.19C892.77 1376.27 889.791 1364.34 886.068 1353.17L884.579 1348.7H859.263L895.748 1388.19ZM898.726 1401.6L897.237 1395.64L856.285 1349.44L828.735 1401.6H898.726ZM900.96 1411.29L899.471 1405.32H829.479L874.899 1459.72L900.96 1411.29ZM910.64 1461.21C908.406 1446.31 905.428 1432.15 902.449 1416.5L879.367 1461.21H910.64ZM917.341 1510.39L916.597 1503.68C915.108 1491.01 912.874 1477.6 910.64 1464.19H879.367L917.341 1510.39ZM521.961 1117.71C521.961 1114.73 521.961 1111.75 522.706 1109.52L521.961 1114.73V1117.71ZM474.307 1049.16C486.221 1055.12 496.645 1064.06 504.091 1075.24C510.792 1084.18 516.004 1095.36 518.983 1106.53C519.727 1101.32 520.472 1095.36 521.217 1089.4C518.238 1083.44 514.515 1077.48 510.048 1072.26C501.113 1061.08 488.454 1052.89 474.307 1049.16ZM1067.75 1038.73H745.34H737.149H415.484V1043.2H668.647H737.894H746.084H1068.49L1067.75 1038.73ZM525.684 1046.93H492.177C505.58 1053.63 516.005 1063.32 524.195 1074.49C527.173 1064.81 529.407 1058.1 532.386 1048.42C530.896 1047.67 529.407 1047.67 527.918 1047.67L525.684 1046.93ZM590.464 1046.93H557.702L556.957 1049.91C565.892 1056.61 572.594 1065.55 577.806 1075.24C580.04 1078.97 581.529 1082.69 583.018 1086.42C583.763 1080.46 584.507 1074.49 585.996 1069.28C587.486 1063.32 588.975 1056.61 590.464 1050.65V1046.93ZM596.421 1046.93H594.187L592.698 1051.4C591.209 1057.36 589.719 1064.06 588.23 1070.02C586.741 1075.99 585.996 1082.69 585.252 1088.65L584.507 1094.61C585.252 1096.85 585.996 1099.08 585.996 1102.06C586.741 1096.1 586.741 1090.89 588.23 1084.93C589.719 1073.75 591.953 1061.83 594.932 1050.65L596.421 1046.93ZM656.733 1046.93H641.841C647.053 1052.89 650.776 1060.34 653.755 1068.53C654.499 1061.08 655.244 1054.38 656.733 1046.93ZM664.924 1046.93H660.456L659.711 1050.65L658.222 1061.83C658.222 1065.55 657.478 1069.28 656.733 1073L655.988 1077.48C657.478 1082.69 658.222 1087.16 658.967 1092.38C658.967 1090.14 658.967 1087.16 659.711 1084.93C660.456 1073 661.945 1061.83 663.434 1049.91L664.924 1046.93ZM739.383 1135.59H744.595V1046.93H739.383V1135.59ZM663.434 1135.59H734.915V1046.93H669.391L668.647 1051.4C667.157 1062.57 665.668 1073.75 664.924 1084.93C664.179 1096.85 663.434 1108.77 663.434 1119.95V1126.65V1135.59ZM653.01 1135.59H656.733V1126.65C656.733 1114.73 655.244 1090.89 648.542 1072.26C644.82 1060.34 638.863 1049.91 629.928 1046.93H629.183C635.14 1051.4 640.352 1060.34 643.33 1070.02C650.032 1087.91 652.265 1111.01 651.521 1122.93V1127.4V1135.59H653.01ZM591.953 1135.59H649.287V1126.65V1122.18C649.287 1111.01 647.053 1088.65 641.096 1070.77C637.374 1059.59 631.417 1049.91 623.226 1046.93L621.737 1046.18H602.378L600.888 1050.65C597.91 1061.08 595.676 1073 594.187 1084.18C592.698 1096.1 591.209 1108.02 591.209 1119.95V1126.65L591.953 1135.59ZM580.784 1135.59H583.018V1126.65C583.018 1109.52 578.551 1088.65 568.871 1073C565.148 1066.3 559.936 1060.34 553.979 1055.87C558.446 1059.59 562.169 1064.06 565.148 1069.28C575.572 1084.93 580.784 1105.04 580.784 1122.18V1126.65V1135.59ZM539.832 1135.59H577.061V1126.65V1122.18C576.317 1105.79 571.849 1086.42 561.425 1070.77C558.446 1065.55 553.979 1061.08 550.256 1057.36L548.767 1061.08C545.788 1070.02 543.555 1079.71 542.065 1089.4C540.576 1099.83 539.832 1110.26 539.087 1119.95V1126.65L539.832 1135.59ZM524.94 1135.59H530.152V1126.65V1122.18C530.152 1115.48 528.663 1108.02 526.429 1102.06L525.684 1110.26L524.94 1126.65V1135.59ZM819.799 1126.65V1119.95C819.799 1108.02 819.055 1096.85 818.31 1085.67C817.566 1074.49 816.076 1062.57 814.587 1051.4L813.843 1046.93H748.318V1135.59H819.799V1126.65ZM829.479 1069.28C832.458 1060.34 836.181 1052.89 841.393 1046.93H826.501C827.245 1054.38 827.99 1061.83 829.479 1069.28ZM823.522 1093.12C824.267 1089.4 825.012 1085.67 825.756 1081.95C825.756 1080.46 826.501 1079.71 826.501 1078.22L825.756 1067.04C825.012 1060.34 824.267 1053.63 822.778 1046.93H818.31L819.055 1050.65C820.544 1062.57 822.033 1073.75 822.778 1085.67C822.778 1087.91 823.522 1090.89 823.522 1093.12ZM829.479 1126.65V1122.18C829.479 1110.26 831.713 1087.16 838.414 1069.28C842.137 1059.59 846.605 1051.4 852.562 1046.93H851.817C843.626 1049.91 837.67 1060.34 833.947 1072.26C827.99 1090.89 825.756 1113.99 826.501 1126.65V1135.59H830.224L829.479 1126.65ZM891.281 1126.65V1119.95C891.281 1108.02 889.791 1096.85 888.302 1084.93C886.813 1073.75 884.579 1061.83 881.601 1050.65L880.112 1046.18H860.752L859.263 1046.93C851.072 1049.91 845.86 1058.85 841.393 1070.02C834.691 1087.91 833.202 1110.26 832.458 1122.18V1126.65V1135.59H890.536L891.281 1126.65ZM896.493 1102.06C897.237 1099.83 897.237 1097.59 897.982 1095.36L897.237 1088.65C896.493 1082.69 895.748 1075.99 894.259 1070.02C892.77 1064.06 891.281 1057.36 889.791 1051.4L888.302 1046.93H886.068L886.813 1050.65C889.791 1061.83 892.025 1073.75 893.514 1084.93C895.004 1090.89 895.748 1096.1 896.493 1102.06ZM901.705 1126.65V1122.18C902.449 1105.04 907.662 1084.93 918.086 1069.28C921.064 1064.06 924.787 1059.59 929.255 1055.87C923.298 1060.34 918.086 1066.3 913.618 1073C903.939 1088.65 899.471 1108.77 899.471 1126.65V1135.59H901.705V1126.65ZM939.679 1126.65V1119.95C939.679 1110.26 938.935 1101.32 937.445 1092.38C935.956 1082.69 933.722 1073 931.489 1063.32L930.744 1059.59C927.766 1062.57 924.787 1066.3 921.809 1070.77C912.129 1085.67 906.917 1105.04 906.172 1122.18V1126.65V1135.59H940.424L939.679 1126.65ZM926.277 1049.91L925.532 1046.93H892.77L893.514 1050.65C895.004 1056.61 896.493 1063.32 897.982 1069.28C899.471 1075.24 900.216 1081.2 900.96 1086.42C902.449 1081.95 903.939 1078.22 906.172 1074.49C910.64 1064.81 918.086 1055.87 926.277 1049.91ZM950.848 1048.42C954.571 1058.1 956.805 1065.55 959.039 1075.24C967.229 1063.32 977.654 1053.63 991.056 1046.93H957.55L954.571 1047.67C953.082 1047.67 951.593 1047.67 950.848 1048.42ZM959.783 1099.83C960.528 1105.04 960.528 1110.26 961.273 1114.73V1113.99L960.528 1101.32L959.783 1099.83ZM958.294 1126.65L957.55 1110.26L956.805 1102.06C954.571 1108.77 953.826 1115.48 953.082 1122.18V1126.65V1135.59H958.294V1126.65ZM953.827 1083.44L950.848 1072.26L947.125 1060.34L943.402 1050.65C940.424 1052.14 937.445 1053.63 935.212 1055.87L936.701 1061.08C939.679 1070.77 941.913 1079.71 943.402 1089.4C944.147 1094.61 944.891 1099.83 945.636 1105.04C947.87 1097.59 950.104 1090.14 953.827 1083.44ZM964.251 1105.79C967.229 1094.61 971.697 1084.18 978.398 1075.24C986.589 1064.06 997.013 1055.12 1008.93 1049.16C994.779 1052.89 982.121 1061.08 973.186 1072.26C968.718 1077.48 964.995 1083.44 962.017 1089.4C962.762 1094.61 963.506 1100.57 964.251 1105.79ZM739.383 942.61H744.595V923.982V921.747H739.383V923.982V942.61ZM658.222 942.61C660.456 941.12 661.945 939.63 664.179 938.139C662.69 938.885 660.456 941.12 658.222 942.61ZM627.694 942.61H631.417C638.118 938.139 644.82 934.414 651.521 931.433C643.33 934.414 635.884 938.139 627.694 942.61ZM626.205 946.335H621.737C613.547 951.551 606.101 956.767 598.655 962.728C586.741 972.415 576.317 982.846 567.382 994.768H577.806C586.741 982.101 597.165 970.179 608.334 960.493C614.291 955.277 620.248 950.061 626.205 946.335ZM648.542 946.335H632.161C624.716 951.551 617.269 956.767 610.568 963.473C600.144 973.16 590.464 983.591 581.529 995.513H611.313C618.014 982.846 626.205 971.669 635.14 960.493C639.607 955.277 644.075 950.061 648.542 946.335ZM654.499 946.335C647.798 951.551 642.586 956.767 637.374 962.728C629.183 972.415 621.737 983.591 615.036 994.768H616.525C623.226 982.846 630.672 970.924 640.352 960.493C645.564 955.277 650.032 950.806 654.499 946.335ZM688.006 946.335H659.711C653.755 951.551 648.542 956.767 643.33 962.728C635.14 972.415 627.694 983.591 620.992 994.768H667.157C669.391 986.572 672.37 978.376 675.348 970.179C679.815 961.983 684.283 953.787 688.006 946.335ZM696.197 946.335H692.474C688.006 953.787 683.538 962.728 679.815 971.669C676.837 979.121 673.859 987.317 671.625 994.768H675.348C678.326 983.591 682.794 971.67 688.006 961.238C690.984 956.022 693.218 950.806 696.197 946.335ZM735.66 946.335H700.664C697.686 951.551 694.707 956.767 691.729 962.728C687.261 973.16 682.794 984.336 679.815 994.768H735.66V946.335ZM743.851 946.335H738.638V994.768H743.851V946.335ZM782.57 946.335H747.574V994.768H803.418C801.185 987.317 798.206 979.121 795.228 971.669C791.505 962.728 787.782 953.787 782.57 946.335ZM790.76 946.335H787.037C791.505 953.787 795.228 961.983 798.951 970.179C801.929 978.376 804.908 986.572 807.141 994.768H810.864C808.63 987.317 805.652 979.121 802.674 971.669C799.695 962.728 795.228 953.787 790.76 946.335ZM822.778 946.335H794.483C798.951 953.787 802.674 961.983 806.397 970.179C809.375 978.376 812.353 986.572 814.587 994.768H860.752C854.051 983.591 846.605 972.415 838.414 962.728C833.947 956.767 828.735 950.806 822.778 946.335ZM828.735 946.335C833.202 950.806 837.67 955.277 841.393 960.493C850.328 970.924 858.518 982.846 865.22 995.513H866.709C860.008 984.336 853.306 973.16 844.371 963.473C839.903 956.767 834.691 950.806 828.735 946.335ZM820.544 939.63C822.033 940.375 822.778 941.12 824.267 942.61C823.522 941.12 822.033 940.375 820.544 939.63ZM850.328 946.335H833.947C839.159 950.806 843.626 955.277 847.349 960.493C856.285 970.924 864.475 982.846 871.176 994.768H900.216C892.025 982.846 882.345 972.415 871.176 962.728C865.22 956.767 857.774 950.806 850.328 946.335ZM861.497 946.335H857.029C862.986 950.806 868.943 955.277 874.899 960.493C886.068 970.924 896.493 982.101 906.172 995.513H916.597C906.917 983.591 896.493 973.16 885.324 963.473C877.133 956.767 869.687 950.806 861.497 946.335ZM830.968 930.688C837.67 934.414 844.371 938.139 851.072 942.61H854.795C847.349 938.139 839.159 933.669 830.968 930.688ZM677.582 925.472L676.837 924.727C663.434 929.198 650.032 935.159 638.118 942.61H652.265C660.456 935.904 668.647 929.943 677.582 925.472ZM699.175 925.472H690.984C681.305 929.943 672.37 935.904 664.179 942.61H690.24C693.963 935.904 698.43 930.688 703.643 925.472H699.175ZM711.833 925.472H709.599C704.387 929.943 699.175 935.904 695.452 942.61H699.175C702.153 935.904 706.621 929.943 711.833 925.472ZM720.768 925.472H717.045C711.833 929.943 707.366 935.904 702.898 942.61H735.66V925.472H720.768ZM714.067 921.747H715.556L716.301 921.002H714.811L714.067 921.747ZM766.933 921.747H768.422L766.933 921.002H765.444L766.933 921.747ZM766.189 925.472H748.318V942.61H781.08C775.868 935.904 771.401 929.943 766.189 925.472ZM773.635 925.472H771.401C776.613 930.688 781.08 935.904 784.803 942.61H788.526C784.059 935.904 778.847 929.943 773.635 925.472ZM791.505 925.472H778.847C784.059 930.688 788.526 935.904 792.249 942.61H818.31C810.12 935.904 801.185 929.943 791.505 925.472ZM806.397 923.982C806.397 924.727 805.652 924.727 805.652 924.727C814.587 929.198 822.778 935.159 830.224 941.865H844.371C832.458 935.159 819.799 928.453 806.397 923.982ZM555.468 1035L557.702 1029.79C562.914 1018.61 568.871 1008.18 575.572 998.493H565.148C559.191 1006.69 553.234 1015.63 548.767 1024.57L543.555 1035H555.468ZM594.187 1035L595.676 1030.53C599.399 1020.1 603.867 1008.93 609.079 999.239H578.55C571.105 1009.67 565.148 1020.85 559.936 1032.02L558.446 1035.75L594.187 1035ZM600.144 1035L601.633 1030.53C605.356 1020.1 609.823 1008.93 615.036 999.239H613.547C607.59 1009.67 603.122 1020.85 599.399 1032.02L597.91 1035.75L600.144 1035ZM658.967 1035L659.711 1030.53C661.201 1020.85 664.179 1010.42 667.157 998.493H619.503C613.546 1008.93 609.079 1020.1 605.356 1031.28L603.867 1035H658.967ZM666.413 1035L667.157 1030.53C668.647 1020.85 671.625 1009.67 674.603 998.493H670.88C667.902 1010.42 664.924 1021.59 663.434 1031.28L662.69 1035H666.413ZM735.66 1035V998.493H679.071C676.092 1009.67 673.114 1021.59 671.625 1031.28L670.88 1035H735.66ZM743.851 1035V998.493H738.638V1035H743.851ZM813.098 1035L812.353 1031.28C810.12 1021.59 807.886 1010.42 804.907 998.493H748.318V1035H813.098ZM820.544 1035L819.799 1031.28C817.566 1021.59 815.332 1010.42 812.353 998.493H808.63C811.609 1009.67 814.587 1020.85 816.076 1030.53L816.821 1035H820.544ZM879.367 1035L877.878 1031.28C874.155 1020.1 868.943 1008.93 863.731 998.493H816.076C819.055 1009.67 822.033 1020.85 823.522 1030.53L824.267 1035H879.367ZM884.579 1035L883.09 1031.28C879.367 1020.1 874.155 1008.93 868.943 998.493H867.453C872.666 1008.93 877.133 1019.36 880.856 1029.79L882.345 1034.26L884.579 1035ZM924.043 1035L922.554 1031.28C917.341 1019.36 910.64 1008.93 903.939 998.493H874.155C879.367 1008.93 883.835 1019.36 887.557 1029.79L889.047 1034.26L924.043 1035ZM940.424 1035L935.212 1024.57C929.999 1015.63 924.787 1006.69 918.831 998.493H907.662C914.363 1008.18 920.32 1018.61 925.532 1029.79L927.766 1035H940.424ZM533.13 1188.5V1148.26H524.94V1188.5H533.13ZM580.04 1188.5V1148.26H539.832V1188.5H580.04ZM585.996 1188.5V1148.26H583.763V1188.5H585.996ZM650.776 1188.5V1148.26H591.953V1188.5H650.776ZM658.967 1188.5V1148.26H655.244V1188.5H658.967ZM735.66 1188.5V1148.26H664.179V1188.5H735.66ZM743.851 1188.5V1148.26H738.638V1188.5H743.851ZM819.799 1188.5V1148.26H748.318V1188.5H819.799ZM828.735 1188.5V1148.26H824.267V1188.5H828.735ZM891.281 1188.5V1148.26H832.458V1188.5H891.281ZM899.471 1188.5V1148.26H897.237V1188.5H899.471ZM939.679 1188.5V1148.26H903.194V1188.5H939.679ZM958.294 1188.5V1148.26H950.104V1188.5H958.294ZM963.506 1192.22H959.783H947.87H944.891H941.913H901.705H895.748H893.514H830.968H823.522H822.778H747.574H739.383H661.945H660.456H653.01H590.464H588.23H582.273H539.087H536.109H524.195H520.472H513.771V1205.63H518.238H532.386H570.36H583.763H647.798H657.478H738.638H743.106H743.851H825.012H825.756H834.691H899.471H912.874H950.848H964.995H969.463V1201.91C969.463 1201.16 969.463 1200.42 969.463 1200.42V1192.22H963.506ZM746.084 917.276C746.829 917.276 747.574 918.021 747.574 918.766V921.002H758.743V918.766C758.743 918.021 759.487 917.276 760.232 917.276H767.678C768.422 917.276 768.422 917.276 768.422 917.276L770.656 918.766C771.401 919.511 772.89 920.257 773.635 921.747H781.08L778.102 921.002C777.357 921.002 776.613 919.511 776.613 918.766C776.613 918.021 778.102 917.276 778.847 917.276L782.57 918.766C782.57 918.021 784.059 917.276 784.803 917.276L790.016 918.766L791.505 919.511V918.766C791.505 918.021 792.994 917.276 793.739 917.276L797.462 918.021C797.462 917.276 798.206 917.276 798.951 917.276H799.695H800.44V916.531H680.56V917.276H681.305C682.049 917.276 682.794 917.276 683.538 918.021L687.261 917.276C688.006 917.276 689.495 917.276 689.495 918.766V919.511L690.984 918.766L695.452 917.276C696.197 917.276 697.686 917.276 697.686 918.766L701.409 917.276C702.153 917.276 703.643 917.276 703.643 918.766C703.643 919.511 703.643 921.002 702.153 921.002L699.175 921.747H707.366C708.11 921.002 709.599 920.257 710.344 919.511L712.578 918.021H713.322H720.768C721.513 918.021 722.257 918.766 722.257 919.511V921.747H733.426V919.511C733.426 918.766 734.171 918.021 734.915 918.021H746.084V917.276ZM528.663 1071.51C529.407 1067.79 530.896 1064.06 531.641 1060.34L530.152 1064.06L528.663 1071.51ZM527.173 1078.97C527.173 1077.48 527.918 1075.99 527.918 1074.49L527.173 1078.97ZM539.087 1050.65L535.364 1060.34C533.13 1068.53 530.896 1075.24 529.407 1083.44C531.641 1087.91 533.13 1091.63 534.619 1096.1C535.364 1090.14 536.109 1084.18 537.598 1078.97C539.087 1072.26 540.576 1065.55 542.81 1058.1L544.299 1053.63C542.81 1052.89 541.321 1051.4 539.087 1050.65ZM742.361 -634.792V-868.757H741.617H740.872V-634.792H742.361ZM753.53 -531.966V-631.066H744.595H739.383H730.448V-531.966H753.53ZM755.02 -528.241H727.47H720.768V-487.26H760.976V-528.241H755.02ZM751.297 -442.553L743.851 -422.435H758.743L751.297 -442.553ZM751.297 -452.984L757.998 -471.612H744.595L751.297 -452.984ZM752.041 -399.336L758.743 -418.709H744.595L752.041 -399.336ZM752.041 -345.688L759.487 -365.061H743.851L752.041 -345.688ZM752.786 -292.04L760.976 -311.413H743.851L752.786 -292.04ZM754.275 -184.744L763.21 -204.862H744.595L754.275 -184.744ZM755.02 -131.096L764.699 -151.214H744.595L755.02 -131.096ZM755.764 -23.8L766.933 -43.918H744.595L755.764 -23.8ZM756.509 29.1029L767.678 8.23987H744.595L756.509 29.1029ZM757.253 82.7511L769.167 61.8878H744.595L757.253 82.7511ZM757.998 136.399L770.656 115.536H745.34L757.998 136.399ZM757.998 190.047L770.656 169.184H744.595L757.998 190.047ZM758.743 243.695L772.145 222.832H744.595L758.743 243.695ZM759.487 297.343L773.635 276.48H745.34L759.487 297.343ZM760.232 350.246L775.124 328.638H745.34L760.232 350.246ZM760.976 403.894L775.868 382.286H745.34L760.976 403.894ZM760.976 457.542L776.613 435.934H744.595L760.976 457.542ZM761.721 511.19L778.102 489.582H745.34L761.721 511.19ZM762.466 564.838L779.591 543.23H745.34L762.466 564.838ZM763.21 617.741L780.336 596.133H745.34L763.21 617.741ZM763.955 671.389L781.825 649.781H746.084L763.955 671.389ZM763.955 725.037L782.57 703.429H745.34L763.955 725.037ZM764.699 778.686L783.314 757.077H745.34L764.699 778.686ZM765.444 831.589L784.803 809.98H745.34L765.444 831.589ZM766.189 885.236L786.293 863.628H746.084L766.189 885.236ZM765.444 837.549L745.34 859.903H785.548L765.444 837.549ZM764.699 783.901L745.34 806.255H784.803L764.699 783.901ZM763.955 730.253L745.34 752.607H783.314L763.955 730.253ZM763.955 677.35L745.34 699.704H782.57L763.955 677.35ZM763.21 623.702L745.34 646.056H781.08L763.21 623.702ZM762.466 570.799L745.34 593.153H780.336L762.466 570.799ZM761.721 517.151L744.595 539.505H778.847L761.721 517.151ZM761.721 463.503L745.34 485.856H778.102L761.721 463.503ZM760.976 410.6L745.34 432.954H777.357L760.976 410.6ZM760.232 356.952L745.34 379.305H775.868L760.232 356.952ZM759.487 303.304L744.595 325.657H774.379L759.487 303.304ZM758.743 250.401L744.595 272.755H772.89L758.743 250.401ZM757.998 196.753L744.595 218.361H772.145L757.998 196.753ZM757.998 143.85L745.34 165.458H771.401L757.998 143.85ZM757.253 90.2021L744.595 111.81H769.911L757.253 90.2021ZM756.509 36.554L744.595 58.1622H769.167L756.509 36.554ZM755.764 -16.3489L744.595 5.25928H767.678L755.764 -16.3489ZM754.275 -176.548L744.595 -154.94H764.699L754.275 -176.548ZM753.53 -229.451L744.595 -208.588H763.21L753.53 -229.451ZM752.786 -282.354L743.851 -261.491H761.721L752.786 -282.354ZM752.041 -336.002L743.851 -315.139H760.976L752.041 -336.002ZM752.041 -389.65L744.595 -368.787H760.232L752.041 -389.65ZM743.106 -430.631L749.063 -447.769L743.106 -463.416V-430.631ZM743.106 -376.983L749.807 -394.121L743.106 -410.513V-376.983ZM743.106 -323.335L750.552 -341.218L743.106 -358.355V-323.335ZM743.106 -268.942L750.552 -286.825L743.106 -303.962V-268.942ZM743.106 -215.294L751.297 -233.922L743.106 -251.804V-215.294ZM743.106 -161.646L752.041 -181.019L743.106 -198.901V-161.646ZM743.106 -0.70166L753.53 -20.8197L743.106 -40.1924V-0.70166ZM743.106 52.9465L754.275 32.8284L743.106 13.4556V52.9465ZM743.106 106.595L755.02 86.4767L743.106 67.1036V106.595ZM743.106 160.243L755.02 139.379L743.106 119.261V160.243ZM743.106 213.891L755.764 193.027L743.106 172.91V213.891ZM743.106 267.539L756.509 246.676L743.106 226.558V267.539ZM743.106 321.187L757.253 300.324L743.106 280.206V321.187ZM743.106 374.835L757.998 353.227L743.106 332.363V374.835ZM743.106 428.483L757.998 406.875L743.106 386.011V428.483ZM743.106 482.131L758.743 460.523L743.106 439.66V482.131ZM743.106 535.779L759.487 514.171L743.106 493.307V535.779ZM743.106 589.427L760.232 567.819L743.106 546.956V589.427ZM743.106 643.075L760.232 621.467L743.106 599.859V643.075ZM743.106 696.723L760.976 675.115L743.106 653.507V696.723ZM743.106 749.626L761.721 727.273L743.106 705.665V749.626ZM743.106 803.274L762.466 780.921L743.106 759.312V803.274ZM743.106 856.922L763.21 834.569L743.106 812.961V856.922ZM743.106 910.57L763.21 888.217L743.106 866.609V910.57ZM739.383 866.609L719.279 888.217L739.383 910.57V866.609ZM717.79 837.549L697.686 859.903H737.894L717.79 837.549ZM739.383 812.961L720.024 834.569L739.383 856.922V812.961ZM718.534 783.901L698.43 806.255H737.894L718.534 783.901ZM739.383 759.312L720.024 780.921L739.383 803.274V759.312ZM718.534 730.998L699.175 753.352H737.149L718.534 730.998ZM739.383 706.41L720.768 728.018L739.383 750.371V706.41ZM719.279 677.35L700.664 699.704H737.894L719.279 677.35ZM739.383 652.762L721.513 674.37L739.383 695.978V652.762ZM720.024 623.702L701.409 646.056H737.149L720.024 623.702ZM739.383 599.859L722.257 621.467L739.383 643.075V599.859ZM720.768 570.799L702.898 593.153H737.894L720.768 570.799ZM739.383 546.211L722.257 567.074L739.383 588.682V546.211ZM721.513 517.151L704.387 539.505H738.638L721.513 517.151ZM739.383 493.307L723.002 514.171L739.383 535.779V493.307ZM721.513 463.503L705.132 485.856H737.894L721.513 463.503ZM739.383 439.66L723.747 460.523L739.383 482.131V439.66ZM722.257 410.6L705.876 432.954H737.894L722.257 410.6ZM739.383 386.756L724.491 407.62L739.383 429.228V386.756ZM723.002 356.952L707.366 379.305H737.894L723.002 356.952ZM739.383 333.109L725.236 353.972L739.383 375.58V333.109ZM723.747 303.304L708.855 324.912H738.638L723.747 303.304ZM739.383 280.206L725.236 300.324L739.383 321.187V280.206ZM723.747 250.401L708.855 272.755H737.149L723.747 250.401ZM739.383 226.558L725.98 246.676L739.383 267.539V226.558ZM724.491 196.753L710.344 218.361H737.894L724.491 196.753ZM739.383 173.655L726.725 193.773L739.383 214.636V173.655ZM725.236 143.85L711.833 165.458H738.638L725.236 143.85ZM739.383 120.007L727.47 140.125L739.383 160.988V120.007ZM725.98 90.2021L713.322 111.81H738.638L725.98 90.2021ZM739.383 67.1036L727.47 86.4767L739.383 106.595V67.1036ZM726.725 36.554L714.067 58.1622H738.638L726.725 36.554ZM739.383 13.4556L728.214 32.8284L739.383 52.9465V13.4556ZM727.47 -16.3489L715.556 5.25928H738.638L727.47 -16.3489ZM739.383 -39.4474L728.959 -20.0743L739.383 0.043457V-39.4474ZM728.959 -176.548L718.534 -154.94H738.638L728.959 -176.548ZM739.383 -198.901L730.448 -181.019L739.383 -161.646V-198.901ZM729.703 -229.451L720.024 -208.588H738.638L729.703 -229.451ZM739.383 -251.804L731.193 -233.922L739.383 -215.294V-251.804ZM730.448 -283.099L721.513 -262.236H739.383L730.448 -283.099ZM739.383 -304.707L731.937 -287.57L739.383 -268.942V-304.707ZM730.448 -336.002L721.513 -315.139H737.894L730.448 -336.002ZM739.383 -357.61L732.682 -340.473L739.383 -322.59V-357.61ZM731.193 -388.905L723.002 -368.042H738.638L731.193 -388.905ZM739.383 -410.513L732.682 -394.121L739.383 -376.983V-410.513ZM731.937 -442.553L724.491 -422.435H738.638L731.937 -442.553ZM739.383 -463.416L733.426 -447.769L739.383 -431.376V-463.416ZM731.937 -452.984L738.638 -471.612H725.236L731.937 -452.984ZM723.747 -431.376L729.703 -447.769L724.491 -463.416L723.747 -431.376ZM731.193 -399.336L737.894 -418.709H725.236L731.193 -399.336ZM723.002 -376.983L729.703 -394.121L723.747 -410.513L723.002 -376.983ZM730.448 -345.688L738.638 -365.061H723.002L730.448 -345.688ZM721.513 -323.335L728.959 -341.218L722.257 -357.61L721.513 -323.335ZM730.448 -292.04L738.638 -311.413H722.257L730.448 -292.04ZM720.024 -269.687L728.214 -287.57L720.768 -304.707L720.024 -269.687ZM719.279 -216.039L727.47 -234.667L720.024 -251.804L719.279 -216.039ZM728.959 -184.744L738.638 -204.862H720.024L728.959 -184.744ZM717.79 -161.646L726.725 -180.273L718.534 -198.156L717.79 -161.646ZM728.214 -131.096L738.638 -151.214H718.534L728.214 -131.096ZM727.47 -23.8L738.638 -43.918H717.045L727.47 -23.8ZM714.067 -0.70166L725.236 -20.8197L715.556 -40.1924L714.067 -0.70166ZM726.725 29.1029L738.638 8.23987H715.556L726.725 29.1029ZM713.322 52.9465L724.491 32.8284L714.067 13.4556L713.322 52.9465ZM725.98 82.7511L738.638 61.8878H714.811L725.98 82.7511ZM711.833 106.595L723.747 86.4767L712.578 67.1036L711.833 106.595ZM725.236 136.399L737.894 115.536H712.578L725.236 136.399ZM710.344 160.243L723.002 140.125L711.088 120.752L710.344 160.243ZM724.491 190.047L737.894 169.184H711.833L724.491 190.047ZM709.599 213.891L723.002 193.027L711.088 172.91L709.599 213.891ZM724.491 243.695L738.638 222.832H711.088L724.491 243.695ZM708.11 267.539L721.513 246.676L708.855 226.558L708.11 267.539ZM723.747 297.343L737.894 275.735H709.599L723.747 297.343ZM707.366 321.187L721.513 300.324L708.11 280.206L707.366 321.187ZM723.002 350.246L737.894 328.638H708.855L723.002 350.246ZM705.876 374.835L720.768 353.227L706.621 332.363L705.876 374.835ZM722.257 403.894L737.894 382.286H707.366L722.257 403.894ZM704.387 428.483L720.024 406.875L705.132 386.011L704.387 428.483ZM721.513 457.542L737.894 435.934H706.621L721.513 457.542ZM703.643 482.131L720.024 460.523L705.132 439.66L703.643 482.131ZM721.513 511.19L737.894 489.582H705.132L721.513 511.19ZM702.153 535.779L718.534 514.171L702.898 493.307L702.153 535.779ZM720.768 564.838L737.894 543.23H704.387L720.768 564.838ZM700.664 589.427L717.79 567.819L701.409 546.956L700.664 589.427ZM720.024 617.741L737.894 596.133H702.898L720.024 617.741ZM699.919 642.33L717.79 620.722L700.664 599.859L699.919 642.33ZM719.279 671.389L737.149 649.781H701.409L719.279 671.389ZM698.43 695.978L717.045 674.37L699.919 652.762L698.43 695.978ZM718.534 725.037L737.149 703.429H699.919L718.534 725.037ZM697.686 749.626L717.045 727.273L699.175 705.665V719.822L697.686 749.626ZM718.534 778.686L737.894 757.077H699.919L718.534 778.686ZM696.197 803.274L715.556 780.921L696.941 759.312L696.197 803.274ZM717.79 831.589L737.894 809.98H699.175L717.79 831.589ZM694.707 856.922L714.811 834.569L695.452 812.961L694.707 856.922ZM717.045 885.236L737.149 863.628H696.941L717.045 885.236ZM693.963 910.57L714.811 888.217L695.452 866.609L693.963 910.57ZM685.772 -67.7616H667.157V-55.8398H685.772V-67.7616ZM685.772 -79.6833H667.157V-71.4872H685.772V-79.6833ZM685.772 -92.3503H667.157V-82.6639H685.772V-92.3503ZM685.772 -116.939H667.157V-96.0759H685.772V-116.939ZM711.833 -67.7616H689.495V-55.8398H711.833V-67.7616ZM722.257 -67.7616H715.556V-55.8398H716.301L722.257 -67.7616ZM728.959 -67.7616H726.725L720.024 -55.8398H734.915L728.959 -67.7616ZM739.383 -67.7616H732.682L738.638 -55.8398H739.383V-67.7616ZM750.552 -67.7616H743.851V-55.8398H744.595L750.552 -67.7616ZM756.509 -67.7616H754.275L748.318 -55.8398H763.21L756.509 -67.7616ZM712.578 -79.6833H689.495V-71.4872H711.833L712.578 -79.6833ZM723.002 -79.6833H716.301V-71.4872H725.236L726.725 -73.7224L723.002 -79.6833ZM728.959 -79.6833H726.725L727.47 -78.1931L728.959 -79.6833ZM739.383 -79.6833H732.682L729.703 -73.7224L731.193 -71.4872H740.128L739.383 -79.6833ZM750.552 -79.6833H743.851V-71.4872H752.786L754.275 -73.7224L750.552 -79.6833ZM755.764 -79.6833H754.275L755.02 -78.1931L755.764 -79.6833ZM743.106 -83.4089H748.318L743.106 -93.0955V-83.4089ZM734.915 -83.4089H740.128V-93.0955L734.915 -83.4089ZM712.578 -92.3503H689.495V-82.6639H712.578V-92.3503ZM716.301 -92.3503V-82.6639H721.513L716.301 -92.3503ZM735.66 -92.3503H720.768L725.236 -82.6639H730.448L735.66 -92.3503ZM762.466 -92.3503H746.829L752.041 -82.6639H757.253L762.466 -92.3503ZM745.34 -96.0759H764.699L765.444 -97.5662H744.595L745.34 -96.0759ZM718.534 -96.0759H737.149L737.894 -97.5662H717.045L718.534 -96.0759ZM713.322 -116.939H689.495V-96.0759H712.578L713.322 -116.939ZM721.513 -116.939H717.045V-107.998L721.513 -116.939ZM731.193 -116.939H725.236L717.79 -102.037H738.638L731.193 -116.939ZM739.383 -116.939H734.915L739.383 -107.998V-116.939ZM747.574 -116.939H743.106V-107.998L747.574 -116.939ZM757.998 -116.939H752.041L744.595 -102.037H765.444L757.998 -116.939ZM816.076 -67.7616H797.462V-55.8398H816.076V-67.7616ZM816.076 -79.6833H797.462V-71.4872H816.076V-79.6833ZM816.076 -92.3503H797.462V-82.6639H816.076V-92.3503ZM816.076 -116.939H797.462V-96.0759H816.076V-116.939ZM753.53 -120.665H755.764L754.275 -122.9L753.53 -120.665ZM743.106 -120.665H749.063L752.041 -127.371L742.361 -145.998L743.106 -120.665ZM733.426 -120.665H739.383V-145.998L730.448 -127.371L733.426 -120.665ZM727.47 -120.665H729.703L728.214 -122.9L727.47 -120.665ZM717.045 -120.665H723.002L725.98 -127.371L717.045 -145.998V-120.665ZM736.405 -52.1143H717.79L716.301 -48.3888H738.638L736.405 -52.1143ZM764.699 -52.1143H746.084L744.595 -48.3888H766.933L764.699 -52.1143ZM771.401 -67.7616V-55.8398H793.739V-67.7616H771.401ZM770.656 -79.6833V-71.4872H793.739V-79.6833H770.656ZM770.656 -92.3503V-82.6639H793.739V-92.3503H770.656ZM769.911 -116.939L770.656 -96.0759H794.483V-116.939H769.911ZM759.487 -431.376L758.743 -464.161L753.53 -448.514L759.487 -431.376ZM760.232 -376.983L759.487 -410.513L753.53 -394.121L760.232 -376.983ZM761.721 -323.335L760.976 -357.61L754.275 -341.218L761.721 -323.335ZM763.21 -268.942L762.466 -304.707L755.02 -287.57L763.21 -268.942ZM763.955 -215.294L763.21 -251.804L755.02 -233.922L763.955 -215.294ZM765.444 -161.646L764.699 -198.901L756.509 -180.273L765.444 -161.646ZM766.189 -120.665L765.444 -145.998L756.509 -127.371L759.487 -120.665H766.189ZM766.189 -107.998V-116.939H761.721L766.189 -107.998ZM766.933 -83.4089V-93.0955L762.466 -83.4089H766.933ZM767.678 -71.4872V-79.6833H760.976L757.998 -73.7224L759.487 -71.4872H767.678ZM767.678 -55.8398V-67.7616H760.976L767.678 -55.8398ZM769.167 -0.70166L768.422 -39.4474L757.998 -20.0743L769.167 -0.70166ZM769.911 52.9465L769.167 13.4556L758.743 32.8284L769.911 52.9465ZM771.401 106.595L770.656 67.1036L759.487 86.4767L771.401 106.595ZM772.89 160.988L772.145 120.752L760.232 140.87L772.89 160.988ZM773.635 214.636L772.89 173.655L760.232 193.773L773.635 214.636ZM775.124 267.539L774.379 226.558L761.721 246.676L775.124 267.539ZM775.868 321.187L775.124 279.46L761.721 299.578L775.868 321.187ZM777.357 374.835L776.613 333.109L762.466 353.972L777.357 374.835ZM778.847 428.483L778.102 386.756L763.21 407.62L778.847 428.483ZM779.591 482.131L778.847 439.66L763.955 460.523L779.591 482.131ZM781.08 535.779L780.336 493.307L763.955 514.171L781.08 535.779ZM781.825 589.427L781.08 546.211L764.699 567.074L781.825 589.427ZM783.314 643.075L782.57 599.859L765.444 621.467L783.314 643.075ZM784.803 696.723L784.059 653.507L766.189 675.115L784.803 696.723ZM785.548 749.626L784.803 705.665L766.933 727.273L785.548 749.626ZM787.037 803.274L786.293 759.312L767.678 780.921L787.037 803.274ZM788.526 856.922L787.782 812.961L768.422 834.569L788.526 856.922ZM789.271 910.57L788.526 866.609L768.422 888.217L789.271 910.57ZM737.894 -256.275H722.257L729.703 -238.392L737.894 -256.275ZM760.976 -256.275H745.34L753.53 -238.392L760.976 -256.275ZM737.149 913.551L717.045 891.197L696.197 913.551H737.149ZM787.037 913.551L766.189 891.197L745.34 913.551H787.037ZM763.955 -483.534H720.024H715.556V-476.083H723.747H742.361H760.976H769.167V-483.534H763.955ZM1479.51 1514.86H1226.35H1215.18H933.722H928.51H744.595H739.383H554.724H549.511H268.054H256.885H3.72298V1526.78H1479.51V1514.86ZM250.929 1753.29V1746.59C250.184 1712.31 241.993 1678.78 227.102 1649.72C241.249 1679.53 249.439 1713.06 250.184 1746.59L250.929 1753.29ZM163.811 1550.62C142.962 1539.44 119.88 1531.99 93.819 1531.25H88.6068H84.8839C128.815 1539.44 166.045 1562.54 195.084 1593.84C224.123 1625.88 244.227 1666.86 252.418 1711.57C252.418 1698.15 253.162 1684.74 253.907 1671.33C249.439 1657.17 243.483 1643.76 236.037 1631.09C219.656 1601.29 197.318 1575.21 169.768 1555.09L163.811 1550.62ZM266.565 1707.84V1712.31C267.31 1718.27 268.054 1724.23 268.799 1730.19L269.543 1735.41H270.288C269.543 1726.47 268.799 1717.53 266.565 1707.84ZM256.885 1668.35V1670.58C259.864 1679.53 262.098 1687.72 264.331 1696.66V1693.68C264.331 1693.68 264.331 1693.68 264.331 1692.94C262.098 1684.74 259.119 1676.55 256.885 1668.35ZM251.673 1655.68V1657.92L253.162 1660.9V1658.66C253.162 1657.92 252.418 1657.17 251.673 1655.68ZM213.699 1592.35C223.379 1603.52 231.569 1616.19 238.27 1629.6C241.993 1636.31 244.972 1643.02 248.695 1650.47V1648.23C240.504 1629.6 229.335 1611.72 216.677 1596.07C215.188 1594.58 214.443 1593.09 213.699 1592.35ZM274.011 1753.29H276.245V1746.59C275.5 1692.19 256.141 1637.05 221.889 1595.33C212.21 1584.15 201.785 1573.72 190.616 1564.78C201.041 1572.97 210.72 1582.66 218.911 1593.09C231.569 1608.74 242.738 1626.62 250.929 1645.25C250.929 1645.25 251.673 1646 251.673 1646.74C253.162 1650.47 254.652 1653.45 256.141 1657.17C256.141 1657.17 256.885 1657.92 256.885 1658.66C268.054 1686.98 274.011 1716.78 274.011 1746.59V1753.29ZM166.045 1531.99C163.066 1531.99 160.833 1531.25 157.854 1531.25H153.387H125.837C166.045 1539.44 199.552 1562.54 224.868 1593.84C256.885 1633.33 276.245 1685.49 279.223 1736.9C279.223 1736.9 279.223 1736.9 279.968 1736.9H280.712H288.903V1731.68C288.158 1719.02 285.925 1705.6 282.946 1692.94V1692.19C279.223 1676.55 274.756 1660.9 268.054 1646.74C264.331 1637.8 260.608 1629.6 255.396 1621.41L254.652 1620.66C253.162 1618.43 252.418 1616.94 250.929 1614.7C250.184 1613.21 248.695 1611.72 247.95 1609.49C228.591 1578.94 202.53 1552.86 169.768 1536.46L166.045 1531.99ZM307.518 1722C307.518 1726.47 306.773 1730.94 306.773 1736.15H308.262C308.262 1730.94 307.518 1726.47 307.518 1722ZM298.583 1674.31C297.094 1684 296.349 1692.94 295.604 1701.88C294.86 1710.82 294.115 1719.76 294.115 1728.7V1735.41H303.795L304.539 1728.7C304.539 1719.76 305.284 1712.31 306.029 1703.37C303.05 1693.68 300.816 1684 298.583 1674.31ZM294.86 1660.9C294.115 1663.88 294.115 1667.6 293.371 1670.58L290.392 1696.66L289.648 1705.6C290.392 1708.58 290.392 1712.31 291.137 1715.29C291.137 1710.82 291.881 1705.6 292.626 1701.13C293.371 1692.19 294.115 1683.25 295.604 1674.31L297.094 1665.37C295.604 1663.88 294.86 1662.39 294.86 1660.9ZM290.392 1648.23L288.903 1666.11L286.669 1690.7L287.414 1692.94C288.158 1682.51 289.648 1672.07 291.137 1661.64L292.626 1653.45C291.137 1651.96 290.392 1649.72 290.392 1648.23ZM275.5 1615.45C274.756 1621.41 274.011 1627.37 273.266 1632.58L271.777 1643.76C276.245 1654.94 280.712 1666.86 283.691 1678.78C284.435 1666.11 285.925 1652.7 287.414 1640.03C283.691 1631.84 279.968 1623.64 275.5 1615.45ZM260.608 1592.35C259.864 1600.54 259.119 1608.74 259.119 1617.68C262.842 1624.39 265.82 1630.35 268.799 1637.05C269.543 1628.11 271.033 1619.17 272.522 1610.23C269.543 1605.01 266.565 1599.8 262.842 1594.58C262.098 1594.58 261.353 1593.84 260.608 1592.35ZM251.673 1581.17V1605.76C252.418 1607.25 253.907 1608.74 254.652 1610.23L255.396 1611.72L256.141 1602.78L256.885 1587.88C255.396 1585.64 253.907 1583.41 251.673 1581.17ZM177.958 1534.23C206.253 1550.62 230.08 1573.72 247.95 1600.54V1577.45C229.335 1555.84 206.253 1540.19 177.958 1534.23ZM276.245 1610.23L276.989 1605.76C274.756 1602.03 272.522 1598.31 270.288 1595.33C255.396 1574.47 237.526 1557.33 216.677 1545.41C236.037 1557.33 252.418 1573.72 265.821 1593.09C269.543 1598.31 272.522 1602.78 275.5 1607.99C275.5 1608.74 276.245 1609.49 276.245 1610.23ZM312.73 1753.29H316.453V1746.59C316.453 1703.37 304.539 1651.96 279.968 1610.23L279.223 1614.7C283.691 1622.15 287.414 1630.35 290.392 1638.54C290.392 1638.54 290.392 1638.54 290.392 1639.29C291.881 1643.76 293.371 1647.49 294.86 1651.96C294.86 1651.96 294.86 1651.96 294.86 1652.7C306.029 1684 311.241 1716.78 311.241 1746.59L312.73 1753.29ZM260.608 1562.54L259.864 1561.8C249.439 1550.62 238.27 1541.68 224.868 1533.48L220.4 1531.25H187.638C222.634 1540.19 250.929 1563.29 272.522 1593.84C274.011 1596.07 275.5 1598.31 277.734 1601.29L279.968 1587.88C279.223 1586.39 278.479 1585.64 277.734 1584.15C277.734 1584.15 277.734 1584.15 277.734 1583.41C271.777 1575.21 266.565 1568.5 260.608 1562.54ZM323.154 1700.39V1699.64C317.942 1669.84 309.007 1639.29 294.86 1611.72C291.137 1605.01 287.414 1598.31 282.946 1591.6L280.712 1605.76C304.539 1645.25 317.198 1693.68 319.431 1736.15H326.877V1730.94C326.133 1720.51 324.644 1710.82 323.154 1700.39ZM248.695 1531.25H247.206H227.846C235.292 1535.72 241.993 1540.93 247.95 1546.15L248.695 1531.25ZM262.098 1533.48C258.375 1532.74 255.396 1531.99 251.673 1531.99V1549.88C254.652 1552.11 256.885 1555.09 259.864 1557.33L262.098 1533.48ZM354.427 1650.47V1651.21C351.449 1663.88 348.471 1677.29 346.981 1689.96C344.748 1702.62 344.003 1716.04 343.258 1729.45V1735.41H369.319C367.83 1710.82 363.362 1680.27 354.427 1650.47ZM347.726 1630.35L346.981 1631.84C342.514 1648.23 338.791 1663.88 336.557 1680.27C334.323 1695.92 332.09 1712.31 331.345 1729.45V1735.41H338.791V1729.45C339.535 1716.04 341.025 1702.62 342.514 1689.96C344.748 1677.29 346.981 1663.88 349.96 1651.21L351.449 1644.51C351.449 1639.29 349.96 1634.82 347.726 1630.35ZM344.003 1619.17L343.258 1621.41C339.535 1632.58 336.557 1643.76 334.323 1655.68C331.345 1667.6 329.856 1679.53 327.622 1691.45L326.877 1698.9C327.622 1704.11 328.367 1710.08 329.111 1715.29C329.856 1703.37 331.345 1691.45 333.579 1679.53C335.812 1663.13 339.535 1647.49 344.003 1630.35L346.237 1623.64C345.492 1622.9 344.748 1621.41 344.003 1619.17ZM329.856 1590.86L328.366 1596.07C326.133 1603.52 323.899 1611.72 322.41 1619.17C320.176 1626.62 318.687 1634.82 317.198 1643.02L315.708 1651.96C319.431 1663.88 322.41 1675.8 324.644 1687.72C326.133 1677.29 328.367 1666.11 330.6 1655.68C332.834 1643.76 336.557 1632.58 339.535 1621.41L341.769 1614.7C338.791 1608 335.812 1601.29 332.089 1595.33C331.345 1593.09 330.6 1592.35 329.856 1590.86ZM320.176 1575.96C318.687 1581.17 317.198 1585.64 315.708 1590.86L312.73 1599.8C311.241 1606.5 309.752 1612.47 308.262 1618.43L306.773 1627.37C309.007 1632.58 311.241 1638.54 313.475 1643.76L314.219 1640.78C315.708 1632.58 317.198 1625.13 319.431 1616.94C321.665 1609.49 323.154 1601.29 325.388 1593.84L327.622 1584.9C325.388 1582.66 323.154 1579.68 320.176 1575.96ZM316.453 1570.74L309.007 1593.84C306.773 1602.78 304.539 1610.98 302.306 1619.92C303.05 1620.66 303.05 1622.15 303.795 1622.9C304.539 1618.43 306.029 1613.96 306.773 1609.49C308.262 1602.78 309.752 1597.56 311.985 1590.86C313.475 1584.9 315.708 1578.94 317.198 1572.97L316.453 1570.74ZM287.414 1543.92L285.18 1555.09L280.712 1581.92C281.457 1583.41 282.202 1584.15 282.946 1585.64C282.946 1585.64 282.946 1585.64 283.691 1586.39C288.903 1593.84 293.371 1602.03 297.838 1610.98C298.583 1612.47 299.327 1613.96 300.072 1615.45C300.816 1610.98 302.306 1607.25 303.05 1602.78C306.029 1590.86 309.752 1580.43 313.475 1568.5C306.029 1558.07 297.094 1549.88 287.414 1543.92ZM265.821 1534.23L263.587 1560.31C268.799 1565.52 273.266 1571.48 277.734 1577.45C279.968 1565.52 282.202 1554.35 284.435 1542.43C278.479 1538.7 272.522 1535.72 265.821 1534.23ZM372.298 1753.29H377.51V1746.59C378.254 1704.86 367.085 1642.27 341.025 1594.58C326.877 1568.5 307.518 1546.9 282.946 1537.21C284.435 1537.95 285.925 1538.7 287.414 1539.44H288.158C307.518 1551.37 323.154 1569.99 335.812 1593.09C339.535 1599.05 342.514 1605.76 345.492 1612.47C346.237 1613.21 346.237 1613.21 346.237 1613.96C347.726 1616.94 348.471 1619.92 349.96 1622.9C349.96 1622.9 350.704 1623.64 350.704 1624.39C352.938 1630.35 355.172 1636.31 356.661 1642.27C357.406 1643.02 357.406 1643.02 357.406 1643.76C368.575 1680.27 373.787 1718.27 373.042 1746.59L372.298 1753.29ZM322.41 1543.17C323.899 1538.7 325.388 1534.97 327.622 1531.25H309.007C313.475 1534.97 317.942 1538.7 322.41 1543.17ZM326.133 1547.64C328.367 1541.68 330.6 1536.46 332.834 1531.25H331.345L328.366 1538.7L325.388 1546.15L326.133 1547.64ZM336.557 1559.56C340.28 1549.88 344.003 1540.19 347.726 1530.5H336.557L334.323 1536.46C332.834 1540.93 330.6 1545.41 329.111 1550.62C331.345 1553.6 334.323 1556.58 336.557 1559.56ZM381.977 1692.19V1691.45C378.254 1664.62 370.808 1637.05 361.129 1611.72C359.639 1607.99 358.15 1604.27 355.917 1600.54L355.172 1599.8C353.683 1597.56 352.938 1594.58 351.449 1592.35C351.449 1592.35 350.704 1591.6 350.704 1590.86C339.535 1568.5 324.643 1549.13 306.029 1534.23L303.05 1531.99H277.734C306.773 1540.94 328.366 1564.78 344.748 1593.84C368.575 1637.8 379.744 1695.17 381.233 1736.9H386.445V1731.68C384.956 1718.27 383.467 1704.86 381.977 1692.19ZM380.488 1531.99C379.744 1531.99 378.254 1531.25 377.51 1531.25H375.276H351.449C349.215 1536.46 346.981 1541.68 344.748 1546.9L338.791 1563.29C344.003 1569.99 348.471 1577.45 352.194 1585.64L353.683 1582.66C357.406 1574.46 361.129 1566.27 365.596 1558.07C370.064 1549.88 373.787 1542.43 378.999 1534.97L380.488 1531.99ZM387.19 1533.48C386.445 1533.48 385.7 1532.74 384.956 1532.74L381.977 1536.46C377.51 1543.92 373.042 1551.37 368.575 1559.56C364.107 1567.76 360.384 1575.96 356.661 1584.15L354.427 1589.37C355.172 1590.86 355.917 1592.35 356.661 1593.09L358.15 1590.11C361.873 1580.43 366.341 1571.48 370.064 1563.29C374.531 1554.35 378.999 1546.15 384.211 1537.21L387.19 1533.48ZM432.61 1592.35L431.865 1593.84C421.441 1614.7 413.995 1637.8 408.783 1660.15C403.571 1683.25 400.592 1706.35 399.103 1730.19V1735.41H458.671C457.926 1701.13 451.225 1640.03 433.354 1593.84L432.61 1592.35ZM427.398 1579.68L426.653 1581.92C416.229 1603.52 408.038 1626.62 402.081 1650.47C395.38 1676.55 392.402 1704.11 390.913 1730.94V1736.15H396.125V1730.94C397.614 1707.09 400.592 1683.25 405.804 1660.15C411.017 1637.05 418.463 1614.7 428.887 1593.09L431.121 1588.62C429.631 1584.9 428.142 1581.92 427.398 1579.68ZM422.93 1570.74L421.441 1572.97C412.506 1590.11 405.804 1608 399.848 1625.88C393.891 1644.51 389.423 1663.88 386.445 1684L384.956 1690.7C386.445 1698.15 387.19 1705.6 387.934 1713.06C390.168 1691.45 393.146 1669.84 398.358 1648.98C404.315 1625.13 411.761 1602.03 422.93 1579.68L425.164 1575.21C424.419 1573.72 423.675 1572.23 422.93 1570.74ZM400.592 1542.43L398.358 1546.15C392.402 1555.09 386.445 1565.52 381.233 1575.96C376.021 1586.39 370.808 1597.56 367.085 1607.99L364.852 1613.96C373.042 1634.82 378.999 1657.17 382.722 1679.53C385.7 1660.9 390.168 1643.02 395.38 1625.13C401.337 1606.5 408.783 1588.62 416.973 1571.48L419.207 1567.01C414.74 1557.33 408.038 1548.39 400.592 1542.43ZM390.168 1534.97L387.19 1539.44C381.977 1547.64 377.51 1556.58 373.042 1564.78C368.575 1573.72 364.852 1581.92 361.129 1591.6L358.895 1597.56C360.384 1601.29 361.873 1605.01 363.362 1608.74L364.107 1606.5C367.83 1596.07 373.042 1584.9 378.254 1573.72C383.467 1563.29 389.423 1552.86 395.38 1543.17L397.614 1539.44C395.38 1537.95 393.146 1536.46 390.168 1534.97ZM462.394 1753.29H468.35V1746.59C469.84 1716.78 463.138 1646 443.034 1593.84C431.121 1562.54 414.74 1537.95 393.146 1531.99C396.125 1533.48 399.103 1535.72 402.081 1537.95C416.973 1549.88 428.142 1569.25 436.333 1592.35C456.437 1645.25 462.394 1715.29 461.649 1746.59L462.394 1753.29ZM433.354 1546.9C437.077 1540.93 441.545 1536.46 446.013 1531.25H421.441C425.908 1535.72 429.631 1540.93 433.354 1546.9ZM437.822 1553.6L439.311 1551.37C442.29 1547.64 444.523 1544.66 446.757 1540.93C448.991 1537.95 451.969 1534.97 454.948 1531.25L455.692 1530.5H451.225L446.013 1536.46L437.822 1546.9L435.588 1549.88C436.333 1551.37 437.077 1552.86 437.822 1553.6ZM443.779 1565.52L445.268 1564.03C449.736 1558.07 454.203 1552.11 458.671 1546.9C463.138 1541.68 468.35 1536.46 474.307 1531.99H460.16L457.182 1534.97C454.203 1537.95 451.969 1541.68 448.991 1544.66C446.757 1547.64 443.779 1551.37 441.545 1554.35L439.311 1558.07C440.8 1560.31 442.29 1562.54 443.779 1565.52ZM469.095 1676.55V1675.8C466.117 1654.19 462.394 1631.84 456.437 1610.98C452.714 1596.82 447.502 1583.41 442.29 1570.74L441.545 1569.99C434.844 1556.58 427.398 1543.92 419.207 1533.48L416.973 1531.25H399.848C419.952 1540.19 434.844 1564.03 446.013 1593.09C463.883 1640.03 471.329 1701.88 471.329 1736.15H473.563V1730.94C473.563 1714.55 472.073 1695.92 469.095 1676.55ZM520.472 1531.25H480.264L477.286 1533.48C471.329 1537.95 466.861 1543.17 461.649 1548.39C457.181 1553.6 452.714 1559.56 448.246 1565.52L446.013 1569.25C451.969 1581.92 456.437 1595.33 460.16 1609.49C465.372 1626.62 468.35 1645.25 471.329 1662.39C475.052 1638.54 481.009 1610.98 489.944 1585.64C497.39 1565.52 507.069 1545.41 520.472 1531.25ZM530.152 1531.25H525.684L523.45 1533.48C510.792 1547.64 501.113 1567.01 493.667 1587.88C483.987 1615.45 478.03 1645.25 474.307 1669.84L473.563 1675.8C475.052 1686.23 475.796 1696.66 476.541 1706.35C478.775 1676.55 483.987 1642.27 492.177 1610.98C500.368 1579.68 512.281 1551.37 530.152 1531.25ZM549.511 1535.72L548.022 1536.46C528.663 1549.88 514.515 1575.96 504.836 1605.76C490.688 1648.98 484.732 1699.64 483.987 1730.94V1735.41H583.018C582.274 1713.8 581.529 1691.45 580.04 1669.84C578.55 1646.74 575.572 1622.9 571.105 1600.54C570.36 1597.56 569.615 1594.58 569.615 1590.86V1589.37C566.637 1576.7 559.936 1546.9 549.511 1535.72ZM541.321 1531.25H534.619L532.386 1533.48C515.26 1553.6 503.346 1581.92 495.156 1611.72C483.987 1651.96 479.519 1696.66 478.03 1730.94V1736.15H480.264V1730.94C481.009 1699.64 486.965 1648.23 501.113 1604.27C511.537 1573.72 525.684 1546.9 545.788 1533.48H546.533C545.788 1532.74 544.299 1531.99 543.555 1531.99L541.321 1531.25ZM586.741 1753.29H593.442V1739.88C592.698 1716.78 591.953 1692.94 590.464 1669.84C588.975 1646.74 585.996 1622.9 581.529 1600.54L580.784 1595.33L580.04 1590.86C578.55 1584.15 575.572 1570.74 571.105 1558.07C566.637 1546.15 561.425 1534.97 553.979 1531.99L551.745 1531.25H549.511L550.256 1531.99C562.169 1543.92 568.871 1575.21 571.849 1587.88C572.594 1589.37 574.083 1598.31 574.083 1599.05C578.551 1622.15 580.784 1645.25 583.018 1669.09C584.507 1692.19 585.996 1716.04 585.996 1739.13L586.741 1753.29ZM567.382 1531.25H559.936C565.892 1536.46 570.36 1546.15 574.083 1556.58C578.551 1569.25 581.529 1583.41 583.018 1590.11C583.763 1593.84 584.507 1596.07 584.507 1599.8C586.741 1610.98 588.23 1622.15 589.719 1633.33C588.975 1628.86 588.975 1624.39 588.23 1619.92L587.486 1613.96L586.741 1607.99C585.252 1596.07 583.018 1583.41 580.04 1570.74C577.061 1558.07 574.083 1546.15 568.871 1534.97L567.382 1531.25ZM629.183 1531.25L626.949 1535.72C622.482 1546.15 619.503 1557.33 616.525 1568.5C613.547 1579.68 612.057 1591.6 609.824 1602.78L609.079 1607.99L608.334 1613.96C607.59 1621.41 606.101 1629.6 605.356 1637.05C607.59 1619.92 609.823 1602.78 612.802 1587.13C618.014 1561.05 625.46 1539.44 635.884 1531.25H629.183ZM593.442 1626.62C597.165 1594.58 602.378 1560.31 615.036 1531.25H571.849L573.338 1534.23C577.806 1545.41 581.529 1558.07 584.507 1570.74C587.486 1583.41 589.719 1596.07 591.209 1607.99C591.953 1611.72 592.698 1615.45 592.698 1619.17C592.698 1621.41 592.698 1624.39 593.442 1626.62ZM618.759 1531.25L618.014 1532.74C604.611 1564.03 600.144 1602.78 595.676 1636.31V1637.05L594.932 1643.02C595.676 1651.96 596.421 1661.64 597.165 1670.58C597.165 1675.8 597.91 1681.02 597.91 1686.23C597.91 1680.27 598.655 1673.56 599.399 1667.6C600.888 1648.98 602.378 1631.09 605.356 1612.47C606.101 1608.74 606.845 1605.01 606.845 1601.29C608.334 1590.11 610.568 1578.19 613.547 1566.27C616.525 1554.35 619.503 1543.17 623.971 1532.74L625.46 1529.76H618.759V1531.25ZM734.171 1531.25H644.819H644.075C632.161 1534.97 623.971 1558.07 617.269 1587.88C606.101 1640.78 603.122 1713.06 603.122 1730.94V1736.15H734.171V1531.25ZM254.652 1737.64V1736.9C254.652 1736.15 255.396 1736.15 256.141 1736.15H265.076V1731.68C263.587 1714.55 260.608 1698.15 256.141 1682.51C256.141 1691.45 255.396 1699.64 255.396 1708.58V1724.98C255.396 1725.72 254.652 1726.47 253.907 1726.47C254.652 1731.68 254.652 1737.64 255.396 1743.61V1737.64H254.652ZM241.993 1737.64V1736.9C241.993 1736.15 242.738 1736.15 243.483 1736.15H246.461C242.738 1683.25 221.145 1633.33 187.638 1596.82C157.11 1563.29 116.901 1540.19 69.992 1533.48C111.689 1543.17 148.174 1564.78 177.214 1594.58C215.933 1634.07 239.76 1688.47 241.249 1747.33V1754.04H241.993V1737.64ZM745.34 1531.25H738.638V1737.64V1753.29H745.34V1737.64V1531.25ZM1232.31 1746.59C1233.05 1709.33 1243.47 1672.82 1259.86 1640.78C1242.73 1672.82 1233.05 1709.33 1232.31 1746.59ZM1215.92 1708.58C1214.43 1717.53 1213.69 1726.47 1212.95 1736.15H1213.69V1730.94C1214.43 1724.98 1215.18 1719.02 1215.92 1713.06V1708.58ZM1226.35 1667.6C1223.37 1676.55 1221.14 1684.74 1218.9 1693.68V1697.41C1221.14 1688.47 1223.37 1678.78 1226.35 1669.84V1667.6ZM1231.56 1655.68C1230.82 1656.43 1230.82 1657.92 1230.07 1658.66V1660.9C1230.82 1660.15 1230.82 1658.66 1231.56 1657.92V1655.68ZM1272.51 1588.62C1270.28 1590.86 1268.05 1593.09 1266.56 1595.33C1253.9 1610.98 1243.47 1628.11 1235.28 1646.74V1648.98C1238.26 1642.27 1241.98 1635.56 1244.96 1628.86C1252.41 1614.7 1262.09 1601.29 1272.51 1588.62ZM1395.37 1531.25H1390.16C1364.84 1532.74 1341.02 1539.44 1320.17 1550.62L1314.96 1554.35C1287.41 1574.46 1264.32 1601.29 1247.94 1630.35C1242.73 1639.29 1238.26 1648.98 1234.54 1658.66V1659.41C1233.05 1663.13 1231.56 1666.86 1230.07 1670.58C1230.82 1682.51 1230.82 1694.43 1230.82 1707.09V1710.82C1238.26 1666.11 1258.37 1625.13 1288.15 1593.09C1317.19 1561.8 1354.42 1538.7 1398.35 1530.5L1395.37 1531.25ZM1209.22 1753.29V1746.59C1209.22 1743.61 1209.22 1740.62 1209.22 1737.64C1209.22 1737.64 1209.22 1737.64 1209.22 1736.9V1736.15C1210.71 1709.33 1216.67 1682.51 1226.35 1657.17V1656.43C1235.28 1633.33 1247.94 1610.98 1263.58 1592.35C1271.77 1582.66 1280.7 1572.97 1290.38 1565.52C1279.21 1574.47 1269.54 1584.15 1260.6 1595.33C1226.35 1636.31 1207.73 1692.19 1206.99 1746.59V1753.29H1209.22ZM1175.72 1722C1174.97 1726.47 1174.97 1730.94 1174.97 1736.15H1176.46C1176.46 1730.94 1175.72 1726.47 1175.72 1722ZM1184.65 1674.31C1181.67 1684 1180.18 1693.68 1177.95 1703.37V1704.11C1178.69 1714.55 1179.44 1724.98 1179.44 1735.41H1189.12V1728.7C1188.37 1719.76 1188.37 1710.82 1187.63 1701.88C1186.88 1692.94 1186.14 1684 1184.65 1674.31ZM1188.37 1660.9C1187.63 1662.39 1187.63 1663.88 1186.88 1665.37L1188.37 1673.56C1189.86 1682.51 1190.61 1691.45 1191.35 1700.39C1192.1 1704.86 1192.1 1710.08 1192.1 1714.55C1192.84 1710.82 1192.84 1707.84 1193.59 1704.11L1192.84 1695.92L1190.61 1678.04L1188.37 1660.9ZM1192.84 1648.23C1192.1 1649.72 1191.35 1651.96 1190.61 1654.19C1192.84 1666.86 1194.33 1680.27 1195.82 1692.94V1691.45C1195.08 1683.25 1195.08 1674.31 1194.33 1666.11C1194.33 1660.15 1193.59 1654.19 1192.84 1648.23ZM1207.73 1615.45L1206.99 1616.19C1206.99 1616.19 1206.99 1616.19 1206.99 1616.94C1202.52 1624.39 1198.8 1632.58 1195.82 1640.78C1197.31 1653.45 1198.8 1666.11 1199.54 1679.53C1202.52 1667.6 1206.99 1655.68 1211.46 1643.76L1207.73 1615.45ZM1222.63 1593.09C1221.88 1593.84 1221.14 1594.58 1221.14 1595.33C1217.41 1600.54 1214.43 1605.01 1211.46 1610.23L1215.18 1637.05C1218.16 1630.35 1221.14 1623.64 1224.86 1617.68C1223.37 1609.49 1222.63 1601.29 1222.63 1593.09ZM1231.56 1581.17C1229.33 1583.41 1227.84 1585.64 1225.6 1587.88C1226.35 1596.07 1227.09 1603.52 1227.09 1611.72L1228.58 1609.49C1229.33 1607.99 1230.07 1606.5 1231.56 1605.01V1581.17ZM1305.28 1534.23C1277.73 1540.93 1253.9 1556.58 1235.28 1577.45V1600.54C1253.15 1573.72 1276.24 1550.62 1305.28 1534.23ZM1329.1 1531.25H1324.63C1321.66 1531.25 1319.42 1531.99 1316.44 1531.99L1311.98 1534.23C1279.96 1551.37 1253.9 1576.7 1234.54 1607.25C1234.54 1607.25 1234.54 1607.99 1233.79 1607.99C1233.05 1609.49 1232.31 1610.98 1230.82 1612.47C1224.86 1622.9 1218.9 1633.33 1214.43 1644.51V1645.25C1206.24 1664.62 1200.29 1684.74 1197.31 1704.86V1705.6C1195.82 1713.8 1195.08 1722 1194.33 1729.45V1734.66H1202.52C1205.5 1683.25 1224.86 1631.09 1256.88 1592.35C1282.19 1561.05 1315.7 1538.7 1355.91 1529.76H1329.1V1531.25ZM1206.99 1610.23C1207.73 1608.74 1207.73 1608.74 1207.73 1608.74C1210.71 1603.52 1213.69 1598.31 1217.41 1593.09C1218.9 1590.86 1220.39 1588.62 1221.88 1587.13C1221.88 1587.13 1221.88 1586.39 1222.63 1586.39C1235.28 1569.99 1250.18 1555.09 1268.05 1545.41C1246.45 1556.58 1227.84 1574.47 1212.95 1595.33C1210.71 1599.05 1208.48 1602.03 1206.24 1605.76L1206.99 1610.23ZM1170.5 1753.29V1746.59C1170.5 1720.51 1174.97 1692.94 1183.16 1665.37C1183.16 1664.62 1183.16 1664.62 1183.16 1663.88C1184.65 1660.15 1185.4 1656.43 1186.88 1652.7C1186.88 1651.96 1186.88 1651.96 1187.63 1651.21C1189.12 1647.49 1190.61 1643.76 1192.1 1639.29C1192.1 1638.54 1192.1 1638.54 1192.84 1637.8C1195.82 1629.6 1199.54 1622.15 1204.01 1613.96L1203.27 1609.49C1179.44 1651.21 1167.53 1701.88 1166.78 1745.84V1752.55H1170.5V1753.29ZM1200.29 1590.86C1195.82 1597.56 1192.1 1604.27 1188.37 1610.98C1185.4 1616.94 1182.42 1622.9 1180.18 1628.86C1180.18 1628.86 1180.18 1628.86 1180.18 1629.6C1166.04 1662.39 1158.59 1697.41 1156.36 1730.94V1736.15H1163.8C1166.04 1692.94 1178.69 1644.51 1202.52 1605.76L1200.29 1590.86ZM1262.09 1531.25L1257.62 1533.48C1249.43 1538.7 1241.24 1544.66 1234.54 1550.62L1233.79 1551.37C1230.07 1554.35 1226.35 1558.07 1223.37 1561.8C1223.37 1561.8 1223.37 1562.54 1222.63 1562.54C1216.67 1568.5 1211.46 1575.21 1206.24 1582.66C1206.24 1583.41 1205.5 1583.41 1205.5 1583.41C1204.76 1584.15 1204.01 1585.64 1203.27 1586.39L1205.5 1599.8C1206.99 1597.56 1208.48 1594.58 1209.97 1592.35C1230.82 1561.8 1259.11 1538.7 1294.85 1530.5H1262.09V1531.25ZM1128.81 1650.47C1119.87 1680.27 1116.15 1710.82 1114.66 1735.41H1140.72V1729.45C1139.98 1716.04 1138.49 1703.37 1137 1689.96C1134.76 1677.29 1132.53 1663.88 1129.55 1651.21L1128.81 1650.47ZM1134.76 1630.35C1133.27 1634.82 1131.78 1639.29 1130.3 1643.76L1131.78 1650.47C1134.76 1663.88 1137.74 1676.55 1139.23 1689.21C1141.46 1702.62 1142.21 1715.29 1142.95 1728.7V1734.66H1150.4V1728.7C1149.66 1711.57 1148.17 1695.17 1145.19 1678.04C1142.95 1662.39 1139.23 1646 1134.76 1630.35ZM1139.23 1619.17C1138.49 1620.66 1137.74 1622.9 1137 1624.39L1138.49 1631.09C1142.95 1646.74 1146.68 1662.39 1148.91 1678.78C1151.14 1690.7 1152.63 1703.37 1153.38 1716.04C1154.12 1710.82 1154.87 1705.6 1155.61 1699.64L1154.87 1691.45C1153.38 1679.53 1151.14 1668.35 1148.91 1656.43C1146.68 1644.51 1142.95 1633.33 1139.98 1622.15L1139.23 1619.17ZM1153.38 1590.86C1152.63 1592.35 1151.89 1593.09 1151.14 1594.58C1147.42 1601.29 1144.44 1608 1141.46 1614.7L1143.7 1621.41C1146.68 1632.58 1150.4 1644.51 1152.63 1656.43C1154.87 1666.86 1157.1 1678.04 1158.59 1688.47C1160.82 1676.55 1163.8 1664.62 1168.27 1652.7L1166.78 1643.76C1165.29 1636.31 1163.8 1628.11 1161.57 1620.66C1159.33 1613.21 1157.85 1605.01 1155.61 1597.56L1153.38 1590.86ZM1163.06 1575.96C1160.82 1579.68 1157.85 1583.41 1155.61 1587.13L1158.59 1595.33C1160.82 1602.78 1163.06 1610.98 1164.55 1618.43C1166.78 1625.88 1168.27 1634.07 1169.76 1642.27L1170.5 1644.51C1172.74 1638.54 1174.97 1633.33 1177.21 1628.11L1172.74 1609.49C1171.25 1603.52 1169.76 1596.82 1167.53 1590.86L1164.55 1581.17L1163.06 1575.96ZM1166.78 1570.74C1166.04 1571.48 1166.04 1572.23 1165.29 1572.23C1170.5 1589.37 1174.97 1605.76 1178.69 1622.9C1179.44 1622.15 1179.44 1620.66 1180.18 1619.92L1177.95 1611.72C1175.72 1602.78 1173.48 1594.58 1170.5 1585.64L1166.78 1570.74ZM1195.08 1543.92C1185.4 1549.88 1177.21 1558.07 1169.01 1567.01C1173.48 1581.17 1177.95 1595.33 1181.67 1610.23L1182.42 1614.7C1183.16 1613.21 1183.91 1611.72 1184.65 1610.23C1189.86 1600.54 1195.82 1590.86 1201.78 1581.92C1200.29 1568.5 1198.05 1556.58 1195.08 1543.92ZM1217.41 1534.23C1210.71 1536.46 1204.76 1538.7 1198.8 1542.43C1201.03 1554.35 1203.27 1565.52 1205.5 1577.45C1209.97 1571.48 1214.43 1565.52 1219.65 1560.31L1218.16 1546.15L1217.41 1534.23ZM1231.56 1531.25C1227.84 1531.99 1224.86 1531.99 1221.14 1532.74C1221.88 1540.94 1222.63 1548.39 1223.37 1556.58C1226.35 1553.6 1228.58 1551.37 1231.56 1548.39V1531.25ZM1236.03 1531.25H1234.54V1546.15C1241.24 1540.93 1247.94 1535.72 1254.64 1531.25H1236.03ZM1110.94 1753.29V1746.59C1110.94 1718.27 1115.4 1680.27 1126.57 1643.76C1126.57 1643.02 1126.57 1643.02 1127.32 1642.27C1129.55 1636.31 1131.04 1630.35 1133.27 1624.39C1133.27 1623.64 1133.27 1623.64 1134.02 1623.64C1135.51 1620.66 1136.25 1617.68 1137.74 1614.7C1137.74 1613.96 1137.74 1613.96 1138.49 1613.21C1141.46 1606.5 1144.44 1599.8 1148.17 1593.09C1160.82 1570.74 1176.46 1551.37 1195.82 1540.19C1195.82 1540.19 1195.82 1540.19 1196.56 1540.19C1198.05 1539.44 1199.54 1537.95 1201.78 1537.21C1177.2 1546.9 1157.85 1568.5 1142.95 1595.33C1116.89 1643.02 1105.72 1706.35 1106.47 1747.33V1754.04L1110.94 1753.29ZM1180.18 1531.25L1177.21 1533.48C1166.04 1542.43 1156.36 1552.86 1148.17 1564.78C1148.17 1564.78 1148.17 1565.52 1147.42 1565.52C1142.21 1572.97 1137 1581.92 1132.53 1590.11C1132.53 1590.86 1132.53 1591.6 1131.78 1591.6C1130.3 1593.84 1129.55 1596.07 1128.06 1598.31C1128.06 1599.05 1128.06 1599.05 1127.32 1599.8C1125.83 1603.52 1124.34 1607.25 1122.1 1610.98C1121.36 1612.47 1121.36 1613.21 1120.62 1614.7V1615.45C1105.72 1653.45 1099.02 1695.17 1096.79 1730.94V1736.15H1102C1103.49 1694.43 1114.66 1637.05 1138.49 1593.09C1154.87 1563.29 1176.46 1540.19 1205.5 1531.25H1180.18ZM1160.82 1543.17C1165.29 1538.7 1169.76 1534.97 1174.23 1531.25H1155.61C1157.85 1534.97 1159.33 1538.7 1160.82 1543.17ZM1157.1 1547.64L1158.59 1546.15C1156.36 1540.93 1154.87 1536.46 1152.63 1531.25H1150.4L1152.63 1535.72C1154.12 1539.44 1155.61 1543.92 1157.1 1547.64ZM1146.68 1559.56C1148.91 1556.58 1151.14 1553.6 1154.12 1550.62L1151.89 1544.66L1148.91 1537.21L1146.68 1531.25H1135.51L1137.74 1537.21C1140.72 1544.66 1143.7 1552.11 1146.68 1559.56ZM1050.62 1592.35L1049.88 1593.84C1032.01 1640.78 1025.31 1701.13 1024.56 1735.41H1084.13V1730.19C1083.39 1706.35 1079.66 1681.76 1074.45 1657.92C1069.24 1635.56 1061.79 1613.21 1052.11 1593.09L1050.62 1592.35ZM1055.84 1579.68C1054.35 1582.66 1053.6 1584.9 1052.11 1587.88L1054.35 1592.35C1064.03 1612.47 1071.47 1634.82 1076.68 1657.92C1082.64 1681.76 1085.62 1706.35 1087.11 1730.19V1735.41H1092.32V1730.19C1091.58 1704.11 1087.85 1677.29 1081.15 1651.21C1075.2 1626.62 1067.01 1602.78 1056.58 1581.17L1055.84 1579.68ZM1060.3 1570.74C1059.56 1572.23 1058.81 1573.72 1058.07 1575.21L1060.3 1579.68C1070.73 1601.29 1078.92 1625.88 1084.88 1650.47C1090.09 1671.33 1093.07 1692.19 1094.56 1712.31C1095.3 1705.6 1096.04 1698.15 1097.53 1690.7L1096.79 1684C1093.81 1663.88 1089.34 1643.76 1083.39 1624.39C1077.43 1606.5 1070.73 1589.37 1061.79 1572.97L1060.3 1570.74ZM1081.9 1542.43C1074.45 1548.39 1067.75 1557.33 1062.54 1567.01L1064.77 1571.48C1073.71 1587.88 1080.41 1605.76 1086.36 1623.64C1092.32 1641.52 1096.79 1660.9 1099.77 1679.53C1103.49 1657.92 1109.45 1635.56 1117.64 1614.7L1115.4 1608.74C1110.94 1597.56 1106.47 1587.13 1101.26 1576.7C1096.04 1566.27 1090.83 1555.84 1084.13 1546.15L1081.9 1542.43ZM1093.07 1534.97C1090.09 1536.46 1087.85 1537.95 1084.88 1540.19L1087.85 1543.92C1094.56 1553.6 1099.77 1564.03 1104.98 1574.46C1110.19 1584.9 1114.66 1596.07 1119.13 1606.5L1119.87 1608.74C1121.36 1605.01 1122.85 1601.29 1124.34 1597.56L1122.1 1591.6C1118.38 1582.66 1114.66 1573.72 1110.19 1564.78C1105.72 1555.84 1101.26 1547.64 1096.04 1539.44L1093.07 1534.97ZM1099.02 1532.74C1098.28 1532.74 1097.53 1533.48 1096.79 1533.48L1099.02 1537.21C1104.23 1545.41 1108.7 1554.35 1113.17 1563.29C1117.64 1572.23 1121.36 1581.17 1125.08 1590.11L1126.57 1593.09C1127.32 1591.6 1128.06 1590.11 1128.81 1589.37L1126.57 1584.15C1122.85 1575.96 1119.13 1567.76 1114.66 1559.56C1110.94 1552.11 1106.47 1543.92 1101.26 1536.46L1099.02 1532.74ZM1107.96 1531.25H1105.72C1104.98 1531.25 1103.49 1531.25 1102.75 1531.99L1104.98 1534.97C1110.19 1542.43 1114.66 1550.62 1118.38 1558.07C1122.85 1566.27 1126.57 1573.72 1130.3 1582.66L1131.78 1585.64C1136.25 1578.19 1140.72 1570.74 1145.19 1563.29L1142.21 1555.84L1135.51 1538.7L1132.53 1531.25H1107.96ZM1020.84 1753.29V1746.59C1020.1 1715.29 1026.05 1645.25 1046.16 1592.35C1055.09 1569.25 1066.26 1549.88 1080.41 1537.95C1080.41 1537.95 1080.41 1537.21 1081.15 1537.21C1081.15 1537.21 1081.15 1537.21 1081.9 1537.21C1084.88 1534.97 1087.11 1533.48 1090.09 1531.99C1067.75 1538.7 1051.37 1562.54 1040.2 1593.84C1020.84 1646 1014.14 1716.04 1014.88 1746.59V1753.29H1020.84ZM1066.26 1531.25L1064.03 1533.48C1059.56 1538.7 1055.09 1544.66 1051.37 1551.37C1051.37 1551.37 1051.37 1551.37 1051.37 1552.11C1040.94 1569.25 1032.75 1590.11 1026.8 1611.72C1015.63 1652.7 1011.16 1697.41 1009.67 1731.68V1736.9H1011.9C1012.65 1701.88 1019.35 1640.78 1037.22 1593.84C1048.39 1564.78 1063.28 1540.94 1083.39 1531.99H1066.26V1531.25ZM1049.88 1546.9C1053.6 1540.93 1057.33 1535.72 1061.79 1530.5H1037.22C1040.2 1534.23 1043.18 1537.21 1046.16 1540.93C1046.9 1543.17 1048.39 1545.41 1049.88 1546.9ZM1045.41 1553.6C1046.16 1552.11 1046.9 1551.37 1047.65 1549.88C1045.41 1546.15 1042.43 1543.17 1040.2 1539.44L1037.22 1535.72L1032.01 1529.76H1028.29L1029.03 1530.5C1032.01 1534.23 1034.99 1537.21 1037.22 1540.19C1039.45 1543.17 1042.43 1546.9 1044.67 1550.62L1045.41 1553.6ZM1039.46 1565.52C1040.94 1562.54 1042.43 1560.31 1043.18 1557.33L1040.94 1553.6C1038.71 1549.88 1036.48 1546.9 1033.5 1543.17C1031.26 1540.19 1028.29 1537.21 1025.31 1533.48L1022.33 1530.5H1008.18C1014.14 1534.97 1019.35 1540.19 1023.82 1545.41C1029.03 1550.62 1033.5 1556.58 1037.22 1563.29L1039.46 1565.52ZM962.762 1531.25C977.654 1548.39 988.823 1572.23 996.268 1596.82C1003.71 1619.17 1008.18 1643.02 1011.9 1663.13C1014.88 1645.25 1017.86 1627.37 1023.07 1610.23C1026.8 1596.07 1032.01 1582.66 1037.22 1569.99L1034.99 1566.27C1031.26 1560.31 1026.8 1554.35 1021.58 1549.13C1017.12 1543.92 1011.91 1538.7 1005.95 1534.23L1002.97 1531.25H962.762ZM953.082 1531.25C970.208 1551.37 982.866 1579.68 991.056 1610.23C999.991 1642.27 1004.46 1676.55 1007.44 1706.35C1008.18 1696.66 1008.93 1686.98 1010.42 1676.55L1009.67 1669.84C1006.69 1648.23 1001.48 1622.15 993.29 1597.56C985.099 1572.97 974.675 1549.88 959.783 1533.48L957.55 1531.25H953.082ZM933.722 1535.72C924.787 1545.41 918.086 1567.01 912.874 1593.09C903.194 1642.27 900.216 1706.35 900.216 1735.41H999.247V1730.94C998.502 1699.64 992.545 1648.23 978.398 1605.01C968.718 1575.21 954.571 1549.13 935.212 1536.46L933.722 1535.72ZM941.913 1531.25C939.679 1531.99 938.19 1532.74 936.701 1533.48C956.805 1546.9 971.697 1573.72 981.377 1604.27C996.268 1648.23 1001.48 1699.64 1002.23 1730.94V1736.15H1004.46V1730.94C1002.97 1696.66 998.502 1651.96 987.333 1610.98C979.143 1581.17 967.229 1552.86 950.104 1533.48L947.87 1531.25H941.913ZM896.493 1753.29V1746.59C895.748 1727.21 898.726 1649.72 909.151 1592.35C914.363 1565.52 921.064 1543.17 930.744 1532.74V1531.99C930.744 1531.25 931.489 1531.25 932.233 1531.25L932.978 1530.5H930.744H929.255C916.597 1534.23 907.662 1560.31 901.705 1593.09C890.536 1650.47 888.302 1727.21 889.047 1745.84V1752.55H896.493V1753.29ZM915.852 1531.25L913.618 1535.72C904.683 1558.07 900.216 1584.15 895.748 1607.99V1609.49L894.259 1620.66C893.514 1628.11 892.025 1636.31 891.281 1643.76C892.77 1626.62 895.748 1609.49 898.726 1594.58C903.939 1565.52 912.129 1541.68 923.298 1531.99H915.852V1531.25ZM879.367 1735.41V1730.19C880.112 1712.31 876.389 1640.78 865.964 1588.62C860.008 1558.07 851.072 1534.23 839.159 1531.25H837.67H748.318V1736.15L879.367 1735.41ZM877.133 1635.56C876.389 1628.11 875.644 1620.66 874.899 1613.96C874.155 1610.23 873.41 1606.5 873.41 1602.78C871.921 1591.6 869.687 1579.68 866.709 1568.5C863.73 1557.33 860.752 1545.41 856.285 1535.72L854.051 1531.25H846.605C857.029 1540.19 864.475 1561.8 869.687 1588.62C872.666 1602.78 874.899 1619.92 877.133 1635.56ZM888.302 1643.02L887.557 1637.05C886.068 1620.66 883.835 1602.03 880.112 1583.41C876.389 1565.52 871.921 1546.9 865.22 1531.99L864.475 1530.5H857.774L859.263 1533.48C863.731 1543.92 866.709 1555.84 869.687 1567.01C872.666 1578.94 874.155 1590.86 876.389 1602.03L877.133 1607.25L877.878 1613.21C880.112 1631.09 882.345 1649.72 883.835 1668.35C884.579 1674.31 884.579 1680.27 885.324 1686.23C885.324 1681.02 886.068 1675.8 886.068 1670.58C886.068 1661.64 886.813 1652.7 888.302 1643.02ZM868.198 1531.25C874.899 1546.9 880.112 1564.78 883.09 1583.41C886.068 1598.31 888.302 1613.21 889.791 1627.37C889.791 1625.13 890.536 1622.15 890.536 1619.92C891.28 1615.45 891.281 1611.72 892.025 1607.25C895.748 1583.41 900.216 1557.33 909.895 1534.23L911.385 1531.25H868.198ZM1227.84 1737.64V1753.29V1746.59C1227.84 1739.13 1228.58 1732.43 1229.33 1724.98C1228.58 1724.98 1227.84 1724.23 1227.84 1723.49C1227.84 1712.31 1227.09 1701.88 1227.09 1691.45C1227.09 1687.72 1227.09 1684.74 1227.09 1681.76C1222.63 1698.15 1218.9 1714.55 1217.41 1731.68V1736.15H1225.6C1227.09 1735.41 1227.84 1736.15 1227.84 1737.64ZM1241.24 1737.64V1753.29H1241.98V1746.59C1243.47 1686.98 1267.3 1633.33 1306.02 1593.09C1335.06 1563.29 1371.54 1541.68 1412.5 1532.74C1365.59 1539.44 1325.38 1562.54 1294.85 1596.07C1260.6 1633.33 1239.75 1682.51 1235.28 1736.15H1238.26C1240.5 1735.41 1241.24 1736.15 1241.24 1737.64ZM885.324 1754.78V1739.13H884.579H749.063V1754.78C749.063 1755.53 748.318 1756.27 747.574 1756.27H737.149C736.405 1756.27 735.66 1755.53 735.66 1754.78V1739.13H601.633H598.655V1754.78C598.655 1755.53 597.91 1756.27 597.165 1756.27H596.421H585.252C584.507 1756.27 583.763 1755.53 583.763 1754.78V1739.88V1739.13H475.796H472.818V1754.78C472.818 1755.53 472.073 1756.27 471.329 1756.27H460.904C460.16 1756.27 459.415 1755.53 459.415 1754.78V1746.59C459.415 1744.35 459.415 1742.11 459.415 1739.13H381.977V1754.78C381.977 1755.53 381.233 1756.27 380.488 1756.27H379.744H370.808C370.064 1756.27 369.319 1755.53 369.319 1754.78V1746.59C369.319 1744.35 369.319 1741.37 369.319 1739.13H322.41V1754.78C322.41 1755.53 321.665 1756.27 320.921 1756.27H319.431H311.985C311.241 1756.27 310.496 1755.53 310.496 1754.78V1746.59C310.496 1744.35 310.496 1741.37 310.496 1739.13H284.435V1754.78C284.435 1755.53 283.691 1756.27 282.946 1756.27H280.712H272.522C271.777 1756.27 271.033 1755.53 271.033 1754.78V1746.59C271.033 1744.35 271.033 1741.37 271.033 1739.13H259.119V1754.78C259.119 1755.53 258.375 1756.27 257.63 1756.27H254.652H250.929C250.184 1756.27 249.439 1755.53 249.439 1754.78V1746.59C249.439 1744.35 249.439 1741.37 249.439 1739.13H247.95V1754.78C247.95 1755.53 247.206 1756.27 246.461 1756.27H244.227H244.972H247.95H250.184H259.119H262.842H276.989H280.712H286.669H300.072H317.942H325.388H336.557H376.021H384.956H393.891H464.627H474.307H480.264H587.486H597.91H600.144H736.405H741.617H746.829H883.09H886.068H896.493H1003.71H1009.67H1019.35H1090.09H1099.02H1107.21H1147.42H1158.59H1166.04H1183.91H1197.31H1202.52H1206.24H1221.14H1224.86H1234.54H1236.77H1239.75H1240.5H1238.26C1237.52 1756.27 1236.77 1755.53 1236.77 1754.78V1739.13H1235.28C1235.28 1741.37 1235.28 1744.35 1235.28 1746.59V1754.78C1235.28 1755.53 1234.54 1756.27 1233.79 1756.27H1230.07H1226.35C1225.6 1756.27 1224.86 1755.53 1224.86 1754.78V1739.13H1213.69C1213.69 1741.37 1213.69 1744.35 1213.69 1746.59V1754.78C1213.69 1755.53 1212.95 1756.27 1212.2 1756.27H1204.01C1203.27 1756.27 1202.52 1755.53 1202.52 1754.78V1739.13H1176.46C1176.46 1741.37 1176.46 1744.35 1176.46 1746.59V1754.78C1176.46 1755.53 1175.72 1756.27 1174.97 1756.27H1166.04C1165.29 1756.27 1164.55 1755.53 1164.55 1754.78V1739.13H1117.64C1117.64 1741.37 1117.64 1744.35 1117.64 1746.59V1754.78C1117.64 1755.53 1116.89 1756.27 1116.15 1756.27H1106.47C1105.72 1756.27 1104.98 1755.53 1104.98 1754.78V1739.13H1024.56C1024.56 1742.11 1024.56 1744.35 1024.56 1746.59V1754.78C1024.56 1755.53 1023.82 1756.27 1023.07 1756.27H1013.39H1012.65C1011.9 1756.27 1011.16 1755.53 1011.16 1754.78V1739.13H900.216C900.216 1742.11 900.216 1744.35 900.216 1746.59V1754.78C900.216 1755.53 899.471 1756.27 898.726 1756.27H887.557C886.068 1757.02 885.324 1756.27 885.324 1754.78ZM1216.67 1511.13H1224.11L1217.41 1491.76C1197.31 1433.64 1166.78 1379.99 1128.06 1332.3C1089.34 1284.62 1043.18 1244.38 990.312 1213.83L973.186 1204.14V1207.87C973.186 1208.62 972.441 1209.36 971.697 1209.36H969.463L972.441 1210.85L974.675 1212.34L994.035 1223.52C1004.46 1230.22 1014.88 1236.93 1025.31 1244.38C1025.31 1244.38 1025.31 1244.38 1026.05 1244.38C1037.22 1252.58 1048.39 1261.52 1058.81 1270.46C1066.26 1276.42 1073.71 1283.13 1080.41 1289.83L1081.9 1290.58L1082.64 1291.32C1093.81 1302.5 1104.23 1313.68 1114.66 1325.6L1128.81 1342.74L1142.95 1362.11C1156.36 1380.74 1168.27 1400.85 1179.44 1420.97C1180.18 1422.46 1180.93 1423.95 1181.67 1425.44V1426.19C1181.67 1426.19 1181.67 1426.19 1181.67 1426.93C1191.35 1447.05 1200.29 1467.17 1207.73 1487.29L1216.67 1511.13ZM1192.84 1511.13H1206.99L1186.14 1470.89L1187.63 1492.5C1188.37 1495.48 1189.86 1498.46 1190.61 1502.19L1192.84 1511.13ZM1189.12 1511.13L1186.88 1503.68C1183.16 1490.27 1178.69 1476.86 1173.48 1463.44V1462.7C1169.76 1453.76 1166.04 1444.82 1162.31 1435.87C1171.99 1457.48 1180.18 1479.84 1186.88 1502.93L1189.12 1511.13ZM1178.69 1511.13H1185.4L1183.16 1503.68C1165.29 1444.07 1137.74 1387.44 1101.26 1337.52C1065.52 1289.09 1022.33 1247.36 970.952 1214.58L963.506 1209.36H952.337H950.104L952.337 1210.85C969.463 1221.28 986.589 1232.46 1002.23 1245.13C1002.23 1245.13 1002.97 1245.13 1002.97 1245.87C1020.84 1260.03 1037.97 1275.68 1054.35 1292.07L1055.09 1292.81C1067.01 1305.48 1078.92 1319.64 1090.09 1333.79C1093.07 1337.52 1096.04 1341.25 1098.28 1344.97L1099.02 1345.72C1106.47 1356.15 1113.17 1366.58 1119.87 1377.76L1120.62 1378.5C1125.08 1385.95 1129.55 1394.15 1134.02 1401.6C1144.44 1420.97 1153.38 1440.34 1161.57 1460.46V1461.21C1166.78 1473.88 1171.25 1487.29 1174.97 1499.95V1500.7V1501.44L1178.69 1511.13ZM1146.68 1511.13H1175.72L1173.48 1503.68V1502.93L1151.14 1467.91L1146.68 1511.13ZM1136.25 1511.13H1142.95L1147.42 1464.19H1102.75L1136.25 1511.13ZM1090.09 1511.13H1131.78L1099.77 1466.42L1089.34 1506.66L1090.09 1511.13ZM1075.2 1511.13H1082.64L1081.15 1503.68C1068.49 1447.05 1047.65 1389.68 1018.61 1337.52C1010.42 1322.62 1001.48 1308.46 991.801 1295.05C991.801 1295.05 991.801 1295.05 991.801 1294.3C980.632 1277.91 967.974 1263.01 955.316 1248.11H944.147C953.082 1257.05 961.272 1267.48 969.463 1277.17C983.61 1294.3 996.268 1312.93 1007.44 1332.3C1009.67 1336.03 1011.9 1339.75 1014.14 1343.48C1014.14 1343.48 1014.88 1344.23 1014.88 1344.97C1022.33 1358.38 1029.03 1372.54 1035.73 1386.7V1387.44C1037.97 1391.91 1039.45 1396.38 1041.69 1400.85L1042.43 1401.6C1043.92 1405.32 1045.41 1409.8 1046.9 1413.52V1414.27C1052.86 1429.17 1058.07 1444.82 1062.54 1460.46C1062.54 1460.46 1062.54 1460.46 1062.54 1461.21C1066.26 1474.62 1069.98 1488.03 1072.96 1502.19L1075.2 1511.13ZM1017.12 1511.13H1070.73L1034.99 1466.42L1017.12 1511.13ZM1001.48 1511.13H1012.65L1031.26 1464.19H962.762L1001.48 1511.13ZM935.212 1511.13H997.013L959.783 1465.68L935.212 1511.13ZM930 1511.13V1503.68C926.277 1475.36 921.809 1446.31 915.852 1417.25V1416.5C915.108 1412.78 914.363 1408.3 913.618 1404.58V1403.83C909.895 1387.44 906.172 1370.3 901.705 1353.91C900.96 1351.68 900.216 1349.44 900.216 1347.21C900.216 1347.21 900.216 1347.21 900.216 1346.46C896.493 1333.79 892.77 1321.13 888.302 1309.21C876.389 1274.93 861.497 1242.89 843.626 1213.83L840.648 1209.36H839.904L841.393 1211.6C867.454 1253.32 886.068 1301.75 900.216 1352.42C914.363 1403.09 923.298 1455.25 929.255 1502.93L930 1511.13ZM921.064 1511.13H926.277L925.532 1502.93C919.575 1455.25 910.64 1403.09 896.493 1353.17C882.345 1303.24 863.731 1254.07 837.67 1213.09L834.691 1208.62H826.501H825.756L827.245 1210.85C834.691 1221.28 841.393 1232.46 847.349 1244.38C848.094 1244.38 848.094 1245.13 848.094 1245.87C854.051 1257.79 860.008 1269.71 865.22 1282.38C866.709 1285.36 867.453 1288.34 868.943 1291.32L869.687 1292.07C877.133 1310.7 883.835 1330.81 889.791 1350.19C895.003 1369.56 900.216 1388.93 904.683 1408.3C904.683 1409.05 904.683 1409.05 904.683 1409.8C908.406 1426.93 911.385 1444.07 914.363 1460.46V1461.21C916.597 1474.62 918.831 1488.78 920.32 1501.44L921.064 1511.13ZM846.605 1511.13H913.618L875.644 1465.68L846.605 1511.13ZM827.99 1511.13H842.137L872.666 1464.19H790.76L827.99 1511.13ZM753.53 1511.13H823.522L787.037 1465.68L753.53 1511.13ZM746.084 1511.13H748.318L782.57 1464.19H746.084V1511.13ZM740.872 1511.13H743.106V1462.7V1403.09V1346.46V1293.56V1246.62V1209.36H740.872V1246.62V1288.34V1293.56V1346.46V1403.09V1462.7V1511.13ZM734.171 1511.13H736.405V1464.19H699.919L734.171 1511.13ZM659.711 1511.13H729.703L696.197 1465.68L659.711 1511.13ZM641.096 1511.13H655.244L692.474 1464.19H610.568L641.096 1511.13ZM569.615 1511.13H636.629L606.845 1465.68L569.615 1511.13ZM556.957 1511.13H562.169L562.914 1502.93C564.403 1489.52 566.637 1476.11 568.871 1462.7C568.871 1462.7 568.871 1462.7 568.871 1461.95C568.871 1461.21 568.871 1461.21 568.871 1461.21C571.849 1444.07 574.828 1427.68 577.806 1410.54V1409.8C578.551 1407.56 578.551 1405.32 579.295 1403.09V1402.34C580.04 1399.36 580.784 1397.13 580.784 1394.15V1393.4C583.763 1379.25 587.486 1365.09 591.209 1351.68C601.633 1315.17 615.036 1280.15 632.906 1246.62C632.906 1245.87 633.651 1245.13 633.651 1245.13C639.607 1234.69 645.564 1224.26 651.521 1214.58C651.521 1213.83 652.265 1213.09 652.265 1213.09L653.01 1211.6L654.499 1209.36H645.564L642.586 1213.83C616.525 1254.81 597.91 1303.24 583.763 1353.91C569.615 1404.58 560.68 1455.99 554.724 1503.68L556.957 1511.13ZM551.745 1511.13L553.234 1502.93C559.191 1455.25 568.126 1403.09 582.273 1352.42C596.421 1301.75 615.78 1252.58 641.841 1211.6L643.33 1209.36H642.586L639.607 1213.83C627.694 1232.46 617.269 1253.32 608.334 1274.18V1274.93C606.101 1280.89 603.122 1286.85 600.888 1293.56C600.888 1294.3 600.888 1294.3 600.144 1295.05C598.655 1299.52 596.421 1303.99 594.932 1308.46C594.932 1309.21 594.932 1309.2 594.187 1309.95C589.719 1321.87 585.996 1333.79 582.273 1346.46C582.273 1347.21 582.273 1347.21 581.529 1347.95C580.784 1350.19 580.04 1351.68 580.04 1353.91C577.061 1365.83 574.083 1377.01 571.105 1388.93V1389.68C562.169 1428.42 555.468 1467.17 551 1503.68L551.745 1511.13ZM486.221 1511.13H548.022L523.45 1465.68L486.221 1511.13ZM469.84 1511.13H481.009L519.728 1464.19H451.225L469.84 1511.13ZM412.506 1511.13H466.117L448.246 1466.42L412.506 1511.13ZM400.592 1511.13H408.038L408.783 1510.39L410.272 1502.93C422.185 1450.03 442.29 1394.89 469.84 1345.72C469.84 1345.72 469.84 1345.72 469.84 1344.97C472.073 1341.25 474.307 1336.77 476.541 1333.05C481.753 1323.36 487.71 1314.42 493.667 1305.48C493.667 1305.48 493.667 1305.48 493.667 1304.73C496.645 1300.26 499.623 1296.54 502.602 1292.07C502.602 1292.07 502.602 1292.07 502.602 1291.32C513.771 1275.68 526.429 1261.52 539.087 1247.36H527.918C503.346 1274.18 482.498 1303.99 463.883 1336.03C434.844 1388.19 413.995 1445.56 401.337 1502.19L400.592 1511.13ZM351.449 1511.13H393.146L393.891 1506.66L383.467 1466.42L351.449 1511.13ZM340.28 1511.13H346.981L381.233 1464.19H336.557L340.28 1511.13ZM308.262 1511.13H336.557L332.834 1467.91L310.496 1502.93V1503.68L308.262 1511.13ZM297.838 1511.13H304.539L306.773 1502.93V1502.19V1501.44C310.496 1488.03 314.964 1475.37 320.176 1461.95C320.176 1461.95 320.176 1461.95 320.176 1461.21C325.388 1448.54 330.6 1435.87 336.557 1423.95C344.003 1408.3 352.194 1392.66 361.873 1378.5C361.873 1378.5 361.873 1378.5 361.873 1377.76C371.553 1362.85 381.233 1347.95 392.402 1333.79C410.272 1310.7 430.376 1288.34 451.969 1268.97C460.904 1260.77 469.84 1253.32 478.775 1245.87C478.775 1245.87 478.775 1245.87 479.519 1245.87C495.156 1233.2 512.282 1222.03 529.407 1211.6L531.641 1210.11H530.152H518.238L510.792 1215.32L508.559 1216.81C508.559 1216.81 508.559 1216.81 507.814 1217.56L506.325 1218.3C457.181 1251.09 414.74 1292.07 379.744 1339.75C343.258 1389.68 315.708 1445.56 297.838 1505.91V1511.13ZM294.115 1511.13L297.094 1502.19C306.029 1472.38 317.198 1442.58 331.345 1415.01C318.687 1440.34 308.262 1466.42 300.072 1493.25C300.072 1493.25 300.072 1493.25 300.072 1493.99C299.327 1496.97 297.838 1499.95 297.094 1503.68L294.115 1511.13ZM276.245 1511.13H290.392L292.626 1502.19C293.371 1499.21 294.86 1495.48 295.604 1492.5L297.094 1470.89L276.245 1511.13ZM259.119 1511.13H266.565L273.266 1489.52C276.245 1480.58 279.968 1470.89 283.691 1461.95C283.691 1461.95 283.691 1461.21 284.435 1461.21C288.903 1450.03 294.115 1439.6 299.327 1428.42C299.327 1428.42 299.327 1428.42 299.327 1427.68C303.795 1418.74 308.262 1410.54 313.475 1401.6C313.475 1401.6 313.475 1400.85 314.219 1400.85C325.388 1381.48 338.046 1362.85 352.194 1344.97C352.194 1344.23 352.938 1344.23 352.938 1344.23C354.427 1341.99 355.917 1339.75 358.15 1338.26C370.808 1322.62 384.956 1306.97 399.103 1292.81V1292.07C399.103 1292.07 399.103 1291.32 399.848 1291.32L400.592 1290.58C417.718 1274.19 436.333 1258.54 454.948 1244.38C454.948 1244.38 455.692 1244.38 455.692 1243.64C465.372 1236.18 475.796 1229.48 486.965 1222.77L504.836 1212.34C506.325 1211.6 507.814 1210.85 508.559 1209.36L511.537 1207.12H510.792C510.048 1207.12 509.303 1206.38 509.303 1205.63V1201.91L492.177 1211.6C440.056 1242.89 393.146 1283.13 354.427 1330.81C315.708 1377.76 285.925 1432.15 265.821 1490.27L259.119 1511.13ZM240.504 1874V1760.74H239.76C239.015 1760.74 238.27 1760 238.27 1759.25V1757.76H235.292C234.548 1757.76 233.803 1757.02 233.803 1756.27L233.058 1740.62C229.335 1684.74 206.253 1634.82 169.023 1597.56C132.538 1560.31 82.6501 1536.46 27.55 1532.74L13.4027 1531.99H1.48919C0.744595 1531.99 0 1531.25 0 1530.5V1514.86C0 1514.11 0.744595 1513.37 1.48919 1513.37H255.396L262.098 1492.5C282.202 1434.38 312.73 1379.99 351.449 1332.3C390.168 1284.62 437.077 1243.64 489.944 1212.34L509.303 1201.16V1191.48C509.303 1190.73 510.048 1189.99 510.792 1189.99H517.494V1149.75H516.005C515.26 1149.75 514.515 1149.01 514.515 1148.26V1139.32V1128.89L513.771 1119.95C512.282 1102.06 504.091 1086.42 492.922 1073.75C481.753 1061.08 466.117 1052.89 448.991 1049.16L440.8 1048.42H413.25C412.506 1048.42 411.761 1047.67 411.761 1046.93V1038.73C411.761 1037.98 412.506 1037.24 413.25 1037.24H538.342L544.299 1025.32C549.511 1015.63 555.468 1006.69 562.169 997.748V997.003H562.914C572.594 984.336 584.507 972.415 596.421 961.983C603.867 956.022 612.057 950.061 620.248 944.845V944.1H620.992C635.884 935.159 651.521 927.708 667.157 923.237L673.859 921.002L676.837 920.257V916.531C676.837 915.786 677.582 915.041 678.326 915.041H689.495L693.963 704.174V703.429V702.684L695.452 650.526L696.941 598.368C696.941 598.368 696.941 598.368 696.941 597.623C696.941 597.623 696.941 597.623 696.941 596.878L698.43 543.975L704.387 277.225C704.387 277.225 704.387 277.225 704.387 276.48V275.735L705.876 223.577C705.876 223.577 705.876 223.577 705.876 222.832V222.087L707.366 169.929C707.366 169.929 707.366 169.929 707.366 169.184L708.855 116.281L711.833 -52.1143H687.261H664.924C664.179 -52.1143 663.434 -52.8594 663.434 -53.6045V-118.429C663.434 -119.174 664.179 -119.92 664.924 -119.92H687.261H713.322L714.067 -151.959L715.556 -204.117L716.301 -253.294H680.56V-257.02H716.301L717.79 -309.178C717.79 -309.178 717.79 -309.178 717.79 -309.923C717.79 -309.923 717.79 -309.923 717.79 -310.668L719.279 -363.571L720.024 -414.984H688.751V-418.709H720.024C720.024 -418.709 720.024 -418.709 720.024 -419.454C720.024 -429.141 720.768 -455.965 720.768 -467.887H712.578C711.833 -467.887 711.088 -468.632 711.088 -469.377V-480.554C711.088 -481.299 711.833 -482.044 712.578 -482.044H717.045V-525.26C717.045 -526.005 717.79 -526.751 718.534 -526.751H725.236V-632.556C725.236 -633.302 725.98 -634.047 726.725 -634.047H735.66V-870.247C735.66 -870.992 736.405 -871.737 737.149 -871.737H737.894V-1287.51C737.894 -1288.25 738.639 -1289 739.383 -1289C740.128 -1289 740.872 -1288.25 740.872 -1287.51V-872.482H741.617C742.361 -872.482 743.106 -871.737 743.106 -870.992V-635.537H752.041C752.786 -635.537 753.53 -634.792 753.53 -634.047V-533.457H760.232C760.976 -533.457 761.721 -532.711 761.721 -531.966V-488.75H766.189C766.933 -488.75 767.678 -488.005 767.678 -487.26V-476.083C767.678 -475.338 766.933 -474.593 766.189 -474.593H757.998L758.743 -426.906V-425.415H790.016V-421.69H758.743L759.487 -370.277C759.487 -370.277 759.487 -370.277 759.487 -369.532C759.487 -369.532 759.487 -369.532 759.487 -368.787L760.976 -316.629V-315.884C760.976 -315.884 760.976 -315.884 760.976 -315.139L761.721 -278.628V-262.236H797.462V-258.51H761.721L764.699 -122.9H790.76H813.098C813.843 -122.9 814.587 -122.155 814.587 -121.41V-56.585C814.587 -55.8398 813.843 -55.0947 813.098 -55.0947H790.76H771.401L772.89 3.02393L774.379 55.927C774.379 55.927 774.379 55.927 774.379 56.6721L775.868 108.83L784.059 482.131L785.548 535.034L793.739 906.845H804.907C805.652 906.845 806.397 907.59 806.397 908.335V912.06L816.076 915.041C832.458 920.257 848.094 926.963 862.241 935.904H862.986V936.649C871.177 941.865 878.622 947.081 886.068 953.787C898.727 964.218 909.895 976.14 919.575 988.807H920.32V989.552C927.021 997.748 932.233 1006.69 937.445 1016.38L943.402 1028.3H1068.49C1069.24 1028.3 1069.98 1029.04 1069.98 1029.79V1037.98C1069.98 1038.73 1069.24 1039.47 1068.49 1039.47H1040.94L1032.75 1040.22C1015.63 1043.2 999.991 1052.14 988.823 1064.81C977.654 1077.48 969.463 1093.12 967.974 1111.01L967.229 1119.95V1130.38V1139.32C967.229 1140.06 966.485 1140.81 965.74 1140.81H964.251V1181.05H970.952C971.697 1181.05 972.441 1181.79 972.441 1182.54V1192.22L991.056 1202.65C1043.92 1233.95 1090.83 1274.18 1129.55 1321.87C1168.27 1369.56 1198.8 1423.95 1218.9 1482.82L1225.6 1503.68H1479.51C1480.26 1503.68 1481 1504.42 1481 1505.17V1520.82C1481 1521.56 1480.26 1522.31 1479.51 1522.31H1469.09L1454.94 1523.05C1399.84 1526.78 1349.95 1550.62 1313.47 1587.88C1276.98 1625.13 1253.15 1675.06 1249.43 1730.94L1248.69 1746.59C1248.69 1747.33 1247.94 1748.08 1247.2 1748.08H1244.22V1749.57C1244.22 1750.31 1243.47 1751.06 1242.73 1751.06H1241.98V1864.31H1233.79V1751.06H1227.84V1864.31H1224.11H1220.39V1751.06H1209.22V1864.31H1205.5H1201.78V1751.06H1199.54V1864.31H1195.82V1751.06H1186.14V1864.31H1182.42V1751.06H1167.53V1864.31H1163.8V1751.06H1160.08V1864.31H1156.36V1751.06H1148.91V1864.31H1145.19V1751.06H1108.7V1864.31H1106.47V1751.06H1101.26V1864.31H1097.53V1751.06H1092.32V1864.31H1088.6V1751.06H1021.58V1864.31H1017.86V1751.06H1011.9V1864.31H1008.18V1751.06H1005.95V1864.31H1002.23V1751.06H897.982V1864.31H894.259V1751.06H887.557V1864.31H880.856V1751.06H749.063V1864.31H745.34V1751.06H741.617H738.638V1864.31H734.171V1751.06H601.633V1864.31H594.932V1751.06H588.23V1864.31H584.507V1751.06H481.009V1864.31H477.286V1751.06H475.052V1864.31H471.329V1751.06H465.372V1864.31H461.649V1751.06H394.635V1864.31H390.913V1751.06H385.7V1864.31H381.977V1751.06H376.765V1864.31H373.042V1751.06H336.557V1864.31H332.834V1751.06H325.388V1864.31H321.665V1751.06H317.942V1864.31H314.219V1751.06H299.327V1864.31H295.604V1751.06H285.925V1864.31H282.202V1751.06H279.968V1864.31H276.245H272.522V1751.06H261.353V1864.31H257.63V1751.06H256.885V1864.31H253.162V1751.06H247.206V1864.31H240.504V1874ZM746.084 1144.54H821.289H822.033H829.479H892.025H894.259H895.003H900.96H941.168H944.147H944.891H948.614H960.528H963.506H964.251H965.74V1139.32H964.251H961.273H952.337H949.359H946.381H943.402H905.428H897.982H895.748H893.514H832.458H825.012H823.522H822.778H747.574H739.383H661.945H660.456H658.967H651.521H590.464H588.23H585.252H579.295H538.342H535.364H532.386H524.195H521.217H518.238V1144.54H519.728H520.472H523.45H535.364H538.342H539.087H582.273H588.23H590.464H653.01H660.456H661.945H737.149H746.084Z" fill="#B7B7B7"/>
</svg>
